{"glyphs":{"0":{"ha":987,"x_min":47,"x_max":940,"o":"m 494 -14 q 254 48 353 -14 q 101 225 154 110 q 47 505 47 341 q 101 784 47 668 q 254 962 154 901 q 494 1024 353 1024 q 734 962 634 1024 q 887 784 834 900 q 940 505 940 668 q 887 225 940 341 q 734 48 834 110 q 494 -14 635 -14 m 494 209 q 614 285 572 209 q 655 505 655 361 q 614 726 655 649 q 494 803 572 803 q 374 726 416 803 q 332 505 332 648 q 374 285 332 361 q 494 209 415 209 z "},"1":{"ha":628,"x_min":61,"x_max":563,"o":"m 563 1010 l 563 0 l 289 0 l 289 774 l 282 774 l 61 625 l 61 859 l 288 1010 l 563 1010 z "},"2":{"ha":898,"x_min":47,"x_max":842,"o":"m 66 0 l 66 197 l 444 509 q 532 595 500 555 q 564 689 564 635 q 528 780 564 747 q 435 812 492 812 q 343 779 378 812 q 308 681 308 745 l 47 681 q 95 864 47 787 q 231 982 143 941 q 435 1024 318 1024 q 646 985 557 1024 q 783 877 734 947 q 831 712 831 806 q 807 596 831 654 q 721 469 783 539 q 543 304 659 399 l 448 225 l 448 218 l 842 218 l 842 0 l 66 0 z "},"3":{"ha":929,"x_min":52,"x_max":882,"o":"m 461 -14 q 249 27 342 -14 q 104 141 157 68 q 52 308 52 214 l 327 308 q 366 236 327 264 q 464 208 404 208 q 556 237 521 208 q 591 313 591 267 q 550 389 591 359 q 442 418 509 418 l 339 418 l 339 608 l 442 608 q 542 637 503 608 q 581 712 581 667 q 548 784 581 756 q 464 812 515 812 q 370 783 407 812 q 334 708 334 754 l 71 708 q 121 872 71 801 q 260 984 172 943 q 464 1024 349 1024 q 662 986 576 1024 q 797 882 748 948 q 845 730 845 815 q 786 591 845 646 q 637 526 728 536 l 637 519 q 821 445 760 506 q 882 290 882 383 q 828 133 882 201 q 680 25 774 64 q 461 -14 585 -14 z "},"4":{"ha":975,"x_min":57,"x_max":928,"o":"m 57 157 l 57 370 l 464 1010 l 811 1010 l 811 370 l 928 370 l 928 157 l 811 157 l 811 0 l 548 0 l 548 157 l 57 157 m 555 370 l 555 726 l 547 726 l 327 378 l 327 370 l 555 370 z "},"5":{"ha":898,"x_min":43,"x_max":850,"o":"m 445 -14 q 238 27 328 -14 q 96 141 148 68 q 43 308 45 214 l 311 308 q 350 225 311 256 q 445 194 390 194 q 547 234 507 194 q 586 339 586 273 q 547 446 586 406 q 445 486 507 486 q 365 465 401 486 q 311 407 328 444 l 69 454 l 109 1010 l 788 1010 l 788 791 l 334 791 l 315 568 l 320 568 q 402 644 344 614 q 537 674 460 674 q 698 632 627 674 q 809 517 768 591 q 850 347 850 444 q 800 160 850 241 q 659 33 750 79 q 445 -14 568 -14 z "},"6":{"ha":937,"x_min":47,"x_max":890,"o":"m 486 -14 q 318 14 397 -14 q 178 102 239 42 q 82 259 117 163 q 47 494 47 356 q 102 776 47 657 q 256 960 157 895 q 487 1024 355 1024 q 684 981 599 1024 q 819 866 768 938 q 878 708 869 795 l 608 708 q 565 771 599 751 q 487 791 530 791 q 360 716 401 791 q 320 519 320 642 l 326 519 q 426 628 355 589 q 583 667 497 667 q 744 626 675 667 q 851 512 813 585 q 890 347 890 440 q 838 157 890 239 q 696 31 787 76 q 486 -14 605 -14 m 483 194 q 584 235 545 194 q 624 338 624 275 q 584 441 624 400 q 483 481 545 481 q 383 441 423 481 q 343 338 343 400 q 383 235 343 275 q 483 194 423 194 z "},"7":{"ha":826,"x_min":38,"x_max":788,"o":"m 107 0 l 503 785 l 503 791 l 38 791 l 38 1010 l 788 1010 l 788 791 l 389 0 l 107 0 z "},"8":{"ha":943,"x_min":47,"x_max":895,"o":"m 471 -14 q 253 24 349 -14 q 102 127 157 62 q 47 274 47 193 q 79 388 47 336 q 163 475 110 440 q 282 519 216 509 l 282 526 q 140 604 196 542 q 84 750 84 666 q 134 891 84 829 q 272 988 184 953 q 471 1024 359 1024 q 670 988 583 1024 q 808 891 758 953 q 859 750 859 829 q 802 604 859 665 q 661 526 745 542 l 661 519 q 779 475 726 509 q 864 388 832 440 q 895 274 895 336 q 840 127 895 193 q 689 24 785 62 q 471 -14 593 -14 m 471 175 q 567 210 529 175 q 605 298 605 245 q 567 384 605 351 q 471 418 529 418 q 375 384 413 418 q 338 298 338 351 q 375 210 338 245 q 471 175 413 175 m 471 608 q 556 639 523 608 q 590 718 590 670 q 556 795 590 765 q 471 826 523 826 q 386 796 420 826 q 353 718 353 766 q 386 639 353 671 q 471 608 420 608 z "},"9":{"ha":937,"x_min":47,"x_max":890,"o":"m 450 -16 q 254 27 339 -16 q 119 144 169 71 q 60 302 68 216 l 330 302 q 373 238 339 259 q 450 217 407 217 q 577 293 537 217 q 617 491 617 369 l 612 491 q 511 382 583 422 q 354 343 440 343 q 193 385 262 343 q 86 498 124 426 q 47 663 47 571 q 99 854 47 772 q 242 981 151 936 q 452 1027 333 1027 q 620 999 541 1027 q 759 910 699 970 q 855 752 820 849 q 890 517 890 654 q 835 234 890 353 q 682 49 781 114 q 450 -16 583 -16 m 454 529 q 554 570 515 529 q 594 673 594 611 q 554 776 594 735 q 454 817 515 817 q 354 776 394 817 q 313 673 313 735 q 353 570 313 610 q 454 529 393 529 z "},"\u0000":{"ha":814,"x_min":0,"x_max":0,"o":""},"A":{"ha":1104,"x_min":31,"x_max":1073,"o":"m 31 0 l 359 1010 l 733 1010 l 1073 0 l 762 0 l 704 194 l 393 194 l 338 0 l 31 0 m 452 399 l 643 399 q 590 589 615 491 q 543 786 566 687 q 500 589 522 687 q 452 399 478 491 z "},"Ä":{"ha":1104,"x_min":31,"x_max":1073,"o":"m 31 0 l 359 1010 l 733 1010 l 1073 0 l 762 0 l 704 194 l 393 194 l 338 0 l 31 0 m 452 399 l 643 399 q 590 589 615 491 q 543 786 566 687 q 500 589 522 687 q 452 399 478 491 m 393 1098 q 308 1132 343 1098 q 273 1213 273 1165 q 308 1294 273 1260 q 393 1327 343 1327 q 477 1294 442 1327 q 512 1213 512 1260 q 477 1132 512 1165 q 393 1098 442 1098 m 706 1098 q 622 1132 656 1098 q 587 1213 587 1165 q 622 1294 587 1260 q 706 1327 656 1327 q 790 1294 755 1327 q 825 1213 825 1260 q 790 1132 825 1165 q 706 1098 755 1098 z "},"Ã":{"ha":1104,"x_min":31,"x_max":1073,"o":"m 31 0 l 359 1010 l 733 1010 l 1073 0 l 762 0 l 704 194 l 393 194 l 338 0 l 31 0 m 452 399 l 643 399 q 590 589 615 491 q 543 786 566 687 q 500 589 522 687 q 452 399 478 491 m 650 1104 q 584 1116 611 1104 q 538 1145 557 1128 q 502 1173 519 1161 q 467 1185 486 1185 q 415 1109 418 1185 l 281 1109 q 331 1269 283 1217 q 449 1321 379 1321 q 532 1301 500 1321 q 586 1261 564 1281 q 632 1242 609 1242 q 672 1262 661 1242 q 685 1317 684 1282 l 818 1317 q 768 1158 817 1213 q 650 1104 719 1104 z "},"À":{"ha":1104,"x_min":31,"x_max":1073,"o":"m 31 0 l 359 1010 l 733 1010 l 1073 0 l 762 0 l 704 194 l 393 194 l 338 0 l 31 0 m 452 399 l 643 399 q 590 589 615 491 q 543 786 566 687 q 500 589 522 687 q 452 399 478 491 m 461 1104 l 313 1325 l 547 1325 l 640 1104 l 461 1104 z "},"Á":{"ha":1104,"x_min":31,"x_max":1073,"o":"m 31 0 l 359 1010 l 733 1010 l 1073 0 l 762 0 l 704 194 l 393 194 l 338 0 l 31 0 m 452 399 l 643 399 q 590 589 615 491 q 543 786 566 687 q 500 589 522 687 q 452 399 478 491 m 458 1104 l 552 1325 l 785 1325 l 637 1104 l 458 1104 z "},"Â":{"ha":1104,"x_min":31,"x_max":1073,"o":"m 31 0 l 359 1010 l 733 1010 l 1073 0 l 762 0 l 704 194 l 393 194 l 338 0 l 31 0 m 452 399 l 643 399 q 590 589 615 491 q 543 786 566 687 q 500 589 522 687 q 452 399 478 491 m 453 1104 l 228 1104 l 228 1108 l 454 1325 l 644 1325 l 871 1108 l 871 1104 l 646 1104 l 549 1217 l 453 1104 z "},"Å":{"ha":1104,"x_min":31,"x_max":1073,"o":"m 31 0 l 359 1010 l 733 1010 l 1073 0 l 762 0 l 704 194 l 393 194 l 338 0 l 31 0 m 452 399 l 643 399 q 590 589 615 491 q 543 786 566 687 q 500 589 522 687 q 452 399 478 491 m 549 1050 q 408 1096 460 1050 q 356 1213 356 1143 q 408 1329 356 1282 q 549 1375 460 1375 q 690 1329 638 1375 q 743 1213 743 1282 q 690 1096 743 1143 q 549 1050 638 1050 m 549 1143 q 605 1162 585 1143 q 625 1213 625 1181 q 605 1263 625 1244 q 549 1282 585 1282 q 494 1263 514 1282 q 473 1213 473 1244 q 494 1162 473 1181 q 549 1143 514 1143 z "},"Ǻ":{"ha":1104,"x_min":31,"x_max":1073,"o":"m 31 0 l 359 1010 l 733 1010 l 1073 0 l 762 0 l 704 194 l 393 194 l 338 0 l 31 0 m 452 399 l 643 399 q 590 589 615 491 q 543 786 566 687 q 500 589 522 687 q 452 399 478 491 m 549 1048 q 408 1093 460 1048 q 356 1203 356 1137 q 408 1313 356 1269 q 549 1358 460 1358 q 690 1313 638 1358 q 743 1203 743 1269 q 690 1093 743 1137 q 549 1048 638 1048 m 472 1395 l 571 1551 l 780 1551 l 632 1395 l 472 1395 m 549 1137 q 605 1155 585 1137 q 625 1203 625 1173 q 605 1251 625 1233 q 549 1269 585 1269 q 494 1251 514 1269 q 473 1203 473 1233 q 494 1155 473 1173 q 549 1137 514 1137 z "},"":{"ha":1104,"x_min":31,"x_max":1097,"o":"m 31 0 l 359 1010 l 733 1010 l 1073 0 l 762 0 l 704 194 l 393 194 l 338 0 l 31 0 m 452 399 l 643 399 q 590 589 615 491 q 543 786 566 687 q 500 589 522 687 q 452 399 478 491 m 549 1050 q 408 1096 460 1050 q 356 1213 356 1143 q 408 1329 356 1282 q 549 1375 460 1375 q 690 1329 638 1375 q 743 1213 743 1282 q 690 1096 743 1143 q 549 1050 638 1050 m 549 1143 q 605 1162 585 1143 q 625 1213 625 1181 q 605 1263 625 1244 q 549 1282 585 1282 q 494 1263 514 1282 q 473 1213 473 1244 q 494 1162 473 1181 q 549 1143 514 1143 m 926 -289 q 775 -245 836 -289 q 714 -130 714 -202 q 734 -51 714 -88 q 785 11 755 -14 l 1073 0 q 988 -44 1011 -19 q 964 -98 964 -68 q 1007 -145 964 -145 q 1050 -132 1029 -145 l 1097 -254 q 1018 -280 1068 -271 q 926 -289 968 -289 z "},"Ā":{"ha":1104,"x_min":31,"x_max":1073,"o":"m 31 0 l 359 1010 l 733 1010 l 1073 0 l 762 0 l 704 194 l 393 194 l 338 0 l 31 0 m 452 399 l 643 399 q 590 589 615 491 q 543 786 566 687 q 500 589 522 687 q 452 399 478 491 m 753 1291 l 753 1134 l 346 1134 l 346 1291 l 753 1291 z "},"Ă":{"ha":1104,"x_min":31,"x_max":1073,"o":"m 31 0 l 359 1010 l 733 1010 l 1073 0 l 762 0 l 704 194 l 393 194 l 338 0 l 31 0 m 452 399 l 643 399 q 590 589 615 491 q 543 786 566 687 q 500 589 522 687 q 452 399 478 491 m 549 1093 q 413 1123 473 1093 q 318 1205 353 1154 q 283 1320 283 1257 l 427 1320 q 463 1253 427 1280 q 549 1225 498 1225 q 635 1253 600 1225 q 670 1320 670 1280 l 815 1320 q 780 1205 815 1257 q 685 1123 745 1154 q 549 1093 625 1093 z "},"Ą":{"ha":1104,"x_min":31,"x_max":1097,"o":"m 31 0 l 359 1010 l 733 1010 l 1073 0 l 762 0 l 704 194 l 393 194 l 338 0 l 31 0 m 452 399 l 643 399 q 590 589 615 491 q 543 786 566 687 q 500 589 522 687 q 452 399 478 491 m 926 -289 q 775 -245 836 -289 q 714 -130 714 -202 q 734 -51 714 -88 q 785 11 755 -14 l 1073 0 q 988 -44 1011 -19 q 964 -98 964 -68 q 1007 -145 964 -145 q 1050 -132 1029 -145 l 1097 -254 q 1018 -280 1068 -271 q 926 -289 968 -289 z "},"Ǎ":{"ha":1104,"x_min":31,"x_max":1073,"o":"m 31 0 l 359 1010 l 733 1010 l 1073 0 l 762 0 l 704 194 l 393 194 l 338 0 l 31 0 m 452 399 l 643 399 q 590 589 615 491 q 543 786 566 687 q 500 589 522 687 q 452 399 478 491 m 453 1325 l 549 1213 l 646 1325 l 871 1325 l 871 1321 l 644 1104 l 454 1104 l 228 1321 l 228 1325 l 453 1325 z "},"Ǟ":{"ha":1104,"x_min":31,"x_max":1073,"o":"m 31 0 l 359 1010 l 733 1010 l 1073 0 l 762 0 l 704 194 l 393 194 l 338 0 l 31 0 m 452 399 l 643 399 q 590 589 615 491 q 543 786 566 687 q 500 589 522 687 q 452 399 478 491 m 753 1512 l 753 1386 l 346 1386 l 346 1512 l 753 1512 m 393 1082 q 308 1115 343 1082 q 273 1196 273 1149 q 308 1277 273 1244 q 393 1311 343 1311 q 477 1277 442 1311 q 512 1196 512 1244 q 477 1115 512 1149 q 393 1082 442 1082 m 706 1082 q 622 1115 656 1082 q 587 1196 587 1149 q 622 1277 587 1244 q 706 1311 656 1311 q 790 1277 755 1311 q 825 1196 825 1244 q 790 1115 825 1149 q 706 1082 755 1082 z "},"Ǡ":{"ha":1104,"x_min":31,"x_max":1073,"o":"m 31 0 l 359 1010 l 733 1010 l 1073 0 l 762 0 l 704 194 l 393 194 l 338 0 l 31 0 m 452 399 l 643 399 q 590 589 615 491 q 543 786 566 687 q 500 589 522 687 q 452 399 478 491 m 549 1072 q 454 1108 494 1072 q 415 1196 415 1145 q 454 1285 415 1249 q 549 1321 494 1321 q 644 1285 605 1321 q 684 1196 684 1249 q 644 1108 684 1145 q 549 1072 605 1072 m 753 1512 l 753 1386 l 347 1386 l 347 1512 l 753 1512 z "},"Ȁ":{"ha":1104,"x_min":31,"x_max":1073,"o":"m 31 0 l 359 1010 l 733 1010 l 1073 0 l 762 0 l 704 194 l 393 194 l 338 0 l 31 0 m 452 399 l 643 399 q 590 589 615 491 q 543 786 566 687 q 500 589 522 687 q 452 399 478 491 m 334 1104 l 159 1325 l 403 1325 l 518 1104 l 334 1104 m 585 1104 l 476 1325 l 697 1325 l 764 1104 l 585 1104 z "},"Ȃ":{"ha":1104,"x_min":31,"x_max":1073,"o":"m 31 0 l 359 1010 l 733 1010 l 1073 0 l 762 0 l 704 194 l 393 194 l 338 0 l 31 0 m 452 399 l 643 399 q 590 589 615 491 q 543 786 566 687 q 500 589 522 687 q 452 399 478 491 m 549 1331 q 685 1300 625 1331 q 780 1219 745 1270 q 815 1104 815 1168 l 670 1104 q 635 1171 670 1144 q 549 1198 600 1198 q 463 1171 498 1198 q 427 1104 427 1144 l 283 1104 q 318 1219 283 1168 q 413 1300 353 1270 q 549 1331 473 1331 z "},"Ȧ":{"ha":1104,"x_min":31,"x_max":1073,"o":"m 31 0 l 359 1010 l 733 1010 l 1073 0 l 762 0 l 704 194 l 393 194 l 338 0 l 31 0 m 452 399 l 643 399 q 590 589 615 491 q 543 786 566 687 q 500 589 522 687 q 452 399 478 491 m 549 1088 q 454 1124 494 1088 q 415 1213 415 1161 q 454 1301 415 1265 q 549 1337 494 1337 q 644 1301 605 1337 q 684 1213 684 1265 q 644 1124 684 1161 q 549 1088 605 1088 z "},"Ḁ":{"ha":1104,"x_min":31,"x_max":1073,"o":"m 31 0 l 359 1010 l 733 1010 l 1073 0 l 762 0 l 704 194 l 393 194 l 338 0 l 31 0 m 452 399 l 643 399 q 590 589 615 491 q 543 786 566 687 q 500 589 522 687 q 452 399 478 491 m 549 -362 q 457 -340 499 -362 q 391 -282 416 -319 q 366 -202 366 -246 q 391 -122 366 -158 q 457 -64 416 -85 q 549 -42 499 -42 q 642 -64 600 -42 q 708 -122 684 -85 q 733 -202 733 -158 q 708 -282 733 -246 q 642 -340 684 -319 q 549 -362 600 -362 m 549 -273 q 602 -252 581 -273 q 624 -202 624 -231 q 602 -153 624 -173 q 549 -132 581 -132 q 497 -153 519 -132 q 475 -202 475 -173 q 497 -252 475 -231 q 549 -273 519 -273 z "},"Ạ":{"ha":1104,"x_min":31,"x_max":1073,"o":"m 31 0 l 359 1010 l 733 1010 l 1073 0 l 762 0 l 704 194 l 393 194 l 338 0 l 31 0 m 452 399 l 643 399 q 590 589 615 491 q 543 786 566 687 q 500 589 522 687 q 452 399 478 491 m 549 -327 q 454 -290 494 -327 q 415 -202 415 -254 q 454 -114 415 -150 q 549 -77 494 -77 q 644 -114 605 -77 q 684 -202 684 -150 q 644 -290 684 -254 q 549 -327 605 -327 z "},"Ả":{"ha":1104,"x_min":31,"x_max":1073,"o":"m 31 0 l 359 1010 l 733 1010 l 1073 0 l 762 0 l 704 194 l 393 194 l 338 0 l 31 0 m 452 399 l 643 399 q 590 589 615 491 q 543 786 566 687 q 500 589 522 687 q 452 399 478 491 m 616 1104 l 471 1104 l 527 1196 q 524 1201 530 1201 l 404 1201 l 404 1325 l 524 1325 q 632 1307 594 1325 q 682 1261 670 1289 q 686 1203 694 1234 q 656 1147 678 1173 l 616 1104 z "},"Ấ":{"ha":1104,"x_min":31,"x_max":1073,"o":"m 31 0 l 359 1010 l 733 1010 l 1073 0 l 762 0 l 704 194 l 393 194 l 338 0 l 31 0 m 452 399 l 643 399 q 590 589 615 491 q 543 786 566 687 q 500 589 522 687 q 452 399 478 491 m 453 1086 l 228 1086 l 228 1090 l 454 1307 l 644 1307 l 871 1090 l 871 1086 l 646 1086 l 549 1198 l 453 1086 m 662 1359 l 736 1536 l 924 1536 l 805 1359 l 662 1359 z "},"Ầ":{"ha":1104,"x_min":31,"x_max":1073,"o":"m 31 0 l 359 1010 l 733 1010 l 1073 0 l 762 0 l 704 194 l 393 194 l 338 0 l 31 0 m 452 399 l 643 399 q 590 589 615 491 q 543 786 566 687 q 500 589 522 687 q 452 399 478 491 m 453 1086 l 228 1086 l 228 1090 l 454 1307 l 644 1307 l 871 1090 l 871 1086 l 646 1086 l 549 1198 l 453 1086 m 744 1359 l 626 1536 l 812 1536 l 888 1359 l 744 1359 z "},"Ẩ":{"ha":1104,"x_min":31,"x_max":1073,"o":"m 31 0 l 359 1010 l 733 1010 l 1073 0 l 762 0 l 704 194 l 393 194 l 338 0 l 31 0 m 452 399 l 643 399 q 590 589 615 491 q 543 786 566 687 q 500 589 522 687 q 452 399 478 491 m 453 1086 l 228 1086 l 228 1090 l 454 1307 l 644 1307 l 871 1090 l 871 1086 l 646 1086 l 549 1198 l 453 1086 m 779 1359 l 663 1359 l 708 1433 q 706 1436 710 1436 l 610 1436 l 610 1536 l 706 1536 q 810 1511 781 1536 q 838 1453 840 1487 q 811 1394 835 1420 l 779 1359 z "},"Ẫ":{"ha":1104,"x_min":31,"x_max":1073,"o":"m 31 0 l 359 1010 l 733 1010 l 1073 0 l 762 0 l 704 194 l 393 194 l 338 0 l 31 0 m 452 399 l 643 399 q 590 589 615 491 q 543 786 566 687 q 500 589 522 687 q 452 399 478 491 m 453 1086 l 228 1086 l 228 1090 l 454 1307 l 644 1307 l 871 1090 l 871 1086 l 646 1086 l 549 1198 l 453 1086 m 650 1354 q 567 1371 598 1354 q 514 1404 536 1388 q 467 1421 492 1421 q 415 1358 418 1421 l 281 1358 q 331 1491 283 1447 q 449 1534 379 1534 q 532 1518 500 1534 q 586 1485 564 1501 q 632 1468 609 1468 q 672 1485 661 1468 q 685 1531 684 1501 l 818 1531 q 768 1399 817 1444 q 650 1354 719 1354 z "},"Ậ":{"ha":1104,"x_min":31,"x_max":1073,"o":"m 31 0 l 359 1010 l 733 1010 l 1073 0 l 762 0 l 704 194 l 393 194 l 338 0 l 31 0 m 452 399 l 643 399 q 590 589 615 491 q 543 786 566 687 q 500 589 522 687 q 452 399 478 491 m 453 1104 l 228 1104 l 228 1108 l 454 1325 l 644 1325 l 871 1108 l 871 1104 l 646 1104 l 549 1217 l 453 1104 m 549 -327 q 454 -290 494 -327 q 415 -202 415 -254 q 454 -114 415 -150 q 549 -77 494 -77 q 644 -114 605 -77 q 684 -202 684 -150 q 644 -290 684 -254 q 549 -327 605 -327 z "},"Ắ":{"ha":1104,"x_min":31,"x_max":1073,"o":"m 31 0 l 359 1010 l 733 1010 l 1073 0 l 762 0 l 704 194 l 393 194 l 338 0 l 31 0 m 452 399 l 643 399 q 590 589 615 491 q 543 786 566 687 q 500 589 522 687 q 452 399 478 491 m 549 1075 q 413 1105 473 1075 q 318 1187 353 1135 q 283 1301 283 1238 l 427 1301 q 463 1235 427 1262 q 549 1207 498 1207 q 635 1235 600 1207 q 670 1301 670 1262 l 815 1301 q 780 1187 815 1238 q 685 1105 745 1135 q 549 1075 625 1075 m 477 1359 l 551 1536 l 739 1536 l 620 1359 l 477 1359 z "},"Ằ":{"ha":1104,"x_min":31,"x_max":1073,"o":"m 31 0 l 359 1010 l 733 1010 l 1073 0 l 762 0 l 704 194 l 393 194 l 338 0 l 31 0 m 452 399 l 643 399 q 590 589 615 491 q 543 786 566 687 q 500 589 522 687 q 452 399 478 491 m 549 1075 q 413 1105 473 1075 q 318 1187 353 1135 q 283 1301 283 1238 l 429 1301 q 464 1235 429 1262 q 549 1207 498 1207 q 636 1235 601 1207 q 671 1301 671 1262 l 815 1301 q 780 1187 815 1238 q 685 1105 745 1135 q 549 1075 625 1075 m 622 1359 l 479 1359 l 360 1536 l 547 1536 l 622 1359 z "},"Ẳ":{"ha":1104,"x_min":31,"x_max":1073,"o":"m 31 0 l 359 1010 l 733 1010 l 1073 0 l 762 0 l 704 194 l 393 194 l 338 0 l 31 0 m 452 399 l 643 399 q 590 589 615 491 q 543 786 566 687 q 500 589 522 687 q 452 399 478 491 m 549 1075 q 413 1105 473 1075 q 318 1187 353 1135 q 283 1301 283 1238 l 427 1301 q 463 1235 427 1262 q 549 1207 498 1207 q 635 1235 600 1207 q 670 1301 670 1262 l 815 1301 q 780 1187 815 1238 q 685 1105 745 1135 q 549 1075 625 1075 m 606 1359 l 490 1359 l 534 1433 q 532 1436 536 1436 l 436 1436 l 436 1536 l 532 1536 q 637 1511 607 1536 q 664 1453 667 1487 q 637 1394 661 1420 l 606 1359 z "},"Ẵ":{"ha":1104,"x_min":31,"x_max":1073,"o":"m 31 0 l 359 1010 l 733 1010 l 1073 0 l 762 0 l 704 194 l 393 194 l 338 0 l 31 0 m 452 399 l 643 399 q 590 589 615 491 q 543 786 566 687 q 500 589 522 687 q 452 399 478 491 m 549 1080 q 413 1111 473 1080 q 318 1192 353 1141 q 283 1307 283 1244 l 427 1307 q 463 1240 427 1267 q 549 1213 498 1213 q 635 1240 600 1213 q 670 1307 670 1267 l 815 1307 q 780 1192 815 1244 q 685 1111 745 1141 q 549 1080 625 1080 m 657 1354 q 575 1371 606 1354 q 522 1404 544 1388 q 474 1421 499 1421 q 422 1358 426 1421 l 288 1358 q 338 1491 290 1447 q 456 1534 387 1534 q 539 1518 507 1534 q 594 1485 571 1501 q 640 1468 616 1468 q 680 1485 668 1468 q 692 1531 692 1501 l 825 1531 q 775 1399 824 1444 q 657 1354 726 1354 z "},"Ặ":{"ha":1104,"x_min":31,"x_max":1073,"o":"m 31 0 l 359 1010 l 733 1010 l 1073 0 l 762 0 l 704 194 l 393 194 l 338 0 l 31 0 m 452 399 l 643 399 q 590 589 615 491 q 543 786 566 687 q 500 589 522 687 q 452 399 478 491 m 549 1093 q 413 1123 473 1093 q 318 1205 353 1154 q 283 1320 283 1257 l 427 1320 q 463 1253 427 1280 q 549 1225 498 1225 q 635 1253 600 1225 q 670 1320 670 1280 l 815 1320 q 780 1205 815 1257 q 685 1123 745 1154 q 549 1093 625 1093 m 549 -327 q 454 -290 494 -327 q 415 -202 415 -254 q 454 -114 415 -150 q 549 -77 494 -77 q 644 -114 605 -77 q 684 -202 684 -150 q 644 -290 684 -254 q 549 -327 605 -327 z "},"Α":{"ha":1104,"x_min":31,"x_max":1073,"o":"m 31 0 l 359 1010 l 733 1010 l 1073 0 l 762 0 l 704 194 l 393 194 l 338 0 l 31 0 m 452 399 l 643 399 q 590 589 615 491 q 543 786 566 687 q 500 589 522 687 q 452 399 478 491 z "},"Ά":{"ha":1104,"x_min":-24,"x_max":1073,"o":"m 31 0 l 359 1010 l 733 1010 l 1073 0 l 762 0 l 704 194 l 393 194 l 338 0 l 31 0 m 452 399 l 643 399 q 590 589 615 491 q 543 786 566 687 q 500 589 522 687 q 452 399 478 491 m -24 789 l -3 1010 l 225 1010 l 127 789 l -24 789 z "},"Ἀ":{"ha":1131,"x_min":38,"x_max":1099,"o":"m 58 0 l 385 1010 l 760 1010 l 1099 0 l 789 0 l 730 194 l 420 194 l 364 0 l 58 0 m 478 399 l 669 399 q 617 589 642 491 q 570 786 592 687 q 527 589 549 687 q 478 399 505 491 m 73 780 l 64 780 l 64 841 l 73 841 q 147 880 147 841 q 82 916 147 916 l 38 916 l 38 1026 l 73 1026 q 217 993 167 1026 q 267 901 267 960 q 216 810 267 841 q 73 780 165 780 z "},"Ἁ":{"ha":1152,"x_min":38,"x_max":1121,"o":"m 79 0 l 407 1010 l 781 1010 l 1121 0 l 810 0 l 752 194 l 441 194 l 386 0 l 79 0 m 500 399 l 691 399 q 638 589 663 491 q 591 786 614 687 q 548 589 570 687 q 500 399 526 491 m 233 769 q 89 800 140 769 q 38 890 38 830 q 88 982 38 949 q 233 1015 138 1015 l 267 1015 l 267 905 l 223 905 q 158 869 158 905 q 233 830 158 830 l 241 830 l 241 769 l 233 769 z "},"Ἂ":{"ha":1429,"x_min":38,"x_max":1398,"o":"m 356 0 l 684 1010 l 1058 1010 l 1398 0 l 1087 0 l 1029 194 l 718 194 l 663 0 l 356 0 m 777 399 l 968 399 q 915 589 940 491 q 868 786 890 687 q 825 589 847 687 q 777 399 803 491 m 73 769 l 64 769 l 64 830 l 73 830 q 147 869 147 830 q 82 905 147 905 l 38 905 l 38 1015 l 73 1015 q 217 982 167 1015 q 267 890 267 949 q 216 800 267 830 q 73 769 165 769 m 509 781 l 377 781 l 293 1010 l 490 1010 l 509 781 z "},"Ἃ":{"ha":1461,"x_min":38,"x_max":1430,"o":"m 389 0 l 716 1010 l 1090 1010 l 1430 0 l 1120 0 l 1061 194 l 751 194 l 695 0 l 389 0 m 809 399 l 1000 399 q 948 589 972 491 q 901 786 923 687 q 858 589 880 687 q 809 399 836 491 m 233 769 q 89 800 140 769 q 38 890 38 830 q 88 982 38 949 q 233 1015 138 1015 l 267 1015 l 267 905 l 223 905 q 158 869 158 905 q 233 830 158 830 l 241 830 l 241 769 l 233 769 m 531 781 l 399 781 l 315 1010 l 512 1010 l 531 781 z "},"Ἄ":{"ha":1440,"x_min":38,"x_max":1409,"o":"m 367 0 l 694 1010 l 1069 1010 l 1409 0 l 1098 0 l 1040 194 l 729 194 l 673 0 l 367 0 m 787 399 l 979 399 q 926 589 951 491 q 879 786 901 687 q 836 589 858 687 q 787 399 814 491 m 73 769 l 64 769 l 64 830 l 73 830 q 147 869 147 830 q 82 905 147 905 l 38 905 l 38 1015 l 73 1015 q 217 982 167 1015 q 267 890 267 949 q 216 800 267 830 q 73 769 165 769 m 355 781 l 373 1010 l 570 1010 l 486 781 l 355 781 z "},"Ἅ":{"ha":1472,"x_min":38,"x_max":1441,"o":"m 399 0 l 727 1010 l 1101 1010 l 1441 0 l 1131 0 l 1072 194 l 762 194 l 706 0 l 399 0 m 820 399 l 1011 399 q 959 589 983 491 q 911 786 934 687 q 868 589 890 687 q 820 399 846 491 m 233 769 q 89 800 140 769 q 38 890 38 830 q 88 982 38 949 q 233 1015 138 1015 l 267 1015 l 267 905 l 223 905 q 158 869 158 905 q 233 830 158 830 l 241 830 l 241 769 l 233 769 m 376 781 l 395 1010 l 592 1010 l 507 781 l 376 781 z "},"Ἆ":{"ha":1286,"x_min":38,"x_max":1255,"o":"m 214 0 l 541 1010 l 916 1010 l 1255 0 l 945 0 l 886 194 l 576 194 l 520 0 l 214 0 m 634 399 l 825 399 q 773 589 798 491 q 726 786 748 687 q 683 589 705 687 q 634 399 661 491 m 407 1089 q 324 1107 355 1089 q 271 1144 293 1126 q 224 1162 249 1162 q 172 1095 176 1162 l 38 1095 q 88 1237 40 1190 q 206 1284 136 1284 q 289 1267 257 1284 q 343 1231 321 1249 q 389 1213 366 1213 q 430 1231 418 1213 q 442 1281 441 1249 l 575 1281 q 525 1138 574 1187 q 407 1089 476 1089 m 227 786 l 218 786 l 218 847 l 227 847 q 301 886 301 847 q 236 922 301 922 l 192 922 l 192 1032 l 227 1032 q 371 999 321 1032 q 421 907 421 966 q 370 817 421 847 q 227 786 319 786 z "},"Ἇ":{"ha":1316,"x_min":38,"x_max":1285,"o":"m 243 0 l 571 1010 l 945 1010 l 1285 0 l 975 0 l 916 194 l 606 194 l 550 0 l 243 0 m 664 399 l 855 399 q 803 589 827 491 q 755 786 778 687 q 712 589 734 687 q 664 399 690 491 m 407 1067 q 324 1086 355 1067 q 271 1122 293 1104 q 224 1141 249 1141 q 172 1073 176 1141 l 38 1073 q 88 1216 40 1168 q 206 1263 136 1263 q 289 1245 257 1263 q 343 1210 321 1227 q 389 1192 366 1192 q 430 1210 418 1192 q 442 1259 441 1227 l 575 1259 q 525 1116 574 1165 q 407 1067 476 1067 m 387 764 q 243 795 294 764 q 192 885 192 825 q 242 977 192 944 q 387 1010 292 1010 l 421 1010 l 421 901 l 377 901 q 312 864 312 901 q 387 825 312 825 l 395 825 l 395 764 l 387 764 z "},"Ᾰ":{"ha":1104,"x_min":31,"x_max":1073,"o":"m 31 0 l 359 1010 l 733 1010 l 1073 0 l 762 0 l 704 194 l 393 194 l 338 0 l 31 0 m 452 399 l 643 399 q 590 589 615 491 q 543 786 566 687 q 500 589 522 687 q 452 399 478 491 m 549 1093 q 413 1123 473 1093 q 318 1205 353 1154 q 283 1320 283 1257 l 427 1320 q 463 1253 427 1280 q 549 1225 498 1225 q 635 1253 600 1225 q 670 1320 670 1280 l 815 1320 q 780 1205 815 1257 q 685 1123 745 1154 q 549 1093 625 1093 z "},"Ᾱ":{"ha":1104,"x_min":31,"x_max":1073,"o":"m 31 0 l 359 1010 l 733 1010 l 1073 0 l 762 0 l 704 194 l 393 194 l 338 0 l 31 0 m 452 399 l 643 399 q 590 589 615 491 q 543 786 566 687 q 500 589 522 687 q 452 399 478 491 m 753 1291 l 753 1134 l 346 1134 l 346 1291 l 753 1291 z "},"Ὰ":{"ha":1104,"x_min":-104,"x_max":1073,"o":"m 31 0 l 359 1010 l 733 1010 l 1073 0 l 762 0 l 704 194 l 393 194 l 338 0 l 31 0 m 452 399 l 643 399 q 590 589 615 491 q 543 786 566 687 q 500 589 522 687 q 452 399 478 491 m 145 840 l -7 840 l -104 1061 l 123 1061 l 145 840 z "},"Ⱥ":{"ha":1104,"x_min":31,"x_max":1073,"o":"m 787 1138 l 741 987 l 1073 0 l 762 0 l 704 194 l 502 194 l 404 -129 l 351 -129 l 449 194 l 393 194 l 338 0 l 31 0 l 359 1010 l 695 1010 l 734 1138 l 787 1138 m 511 399 l 581 630 q 562 708 571 669 q 543 786 552 747 q 500 589 522 687 q 452 399 478 491 l 511 399 m 605 535 l 564 399 l 643 399 q 623 466 633 432 q 605 535 614 500 z "},"Ά":{"ha":1166,"x_min":38,"x_max":1135,"o":"m 94 0 l 421 1010 l 795 1010 l 1135 0 l 825 0 l 766 194 l 456 194 l 400 0 l 94 0 m 514 399 l 705 399 q 653 589 677 491 q 606 786 628 687 q 563 589 585 687 q 514 399 541 491 m 38 789 l 60 1010 l 288 1010 l 190 789 l 38 789 z "},"А":{"ha":1104,"x_min":31,"x_max":1073,"o":"m 31 0 l 359 1010 l 733 1010 l 1073 0 l 762 0 l 704 194 l 393 194 l 338 0 l 31 0 m 452 399 l 643 399 q 590 589 615 491 q 543 786 566 687 q 500 589 522 687 q 452 399 478 491 z "},"Ӑ":{"ha":1104,"x_min":31,"x_max":1073,"o":"m 31 0 l 359 1010 l 733 1010 l 1073 0 l 762 0 l 704 194 l 393 194 l 338 0 l 31 0 m 452 399 l 643 399 q 590 589 615 491 q 543 786 566 687 q 500 589 522 687 q 452 399 478 491 m 549 1093 q 413 1123 473 1093 q 318 1205 353 1154 q 283 1320 283 1257 l 427 1320 q 463 1253 427 1280 q 549 1225 498 1225 q 635 1253 600 1225 q 670 1320 670 1280 l 815 1320 q 780 1205 815 1257 q 685 1123 745 1154 q 549 1093 625 1093 z "},"Ӓ":{"ha":1104,"x_min":31,"x_max":1073,"o":"m 31 0 l 359 1010 l 733 1010 l 1073 0 l 762 0 l 704 194 l 393 194 l 338 0 l 31 0 m 452 399 l 643 399 q 590 589 615 491 q 543 786 566 687 q 500 589 522 687 q 452 399 478 491 m 393 1098 q 308 1132 343 1098 q 273 1213 273 1165 q 308 1294 273 1260 q 393 1327 343 1327 q 477 1294 442 1327 q 512 1213 512 1260 q 477 1132 512 1165 q 393 1098 442 1098 m 706 1098 q 622 1132 656 1098 q 587 1213 587 1165 q 622 1294 587 1260 q 706 1327 656 1327 q 790 1294 755 1327 q 825 1213 825 1260 q 790 1132 825 1165 q 706 1098 755 1098 z "},"ᾈ":{"ha":1131,"x_min":38,"x_max":1099,"o":"m 58 0 l 385 1010 l 760 1010 l 1099 0 l 789 0 l 730 194 l 420 194 l 364 0 l 58 0 m 478 399 l 669 399 q 617 589 642 491 q 570 786 592 687 q 527 589 549 687 q 478 399 505 491 m 622 -335 q 515 -301 547 -335 q 484 -208 484 -267 l 484 -80 l 668 -80 l 668 -197 q 673 -221 668 -214 q 707 -228 679 -228 q 715 -228 707 -228 q 739 -227 724 -227 l 739 -326 q 682 -332 718 -329 q 622 -335 647 -335 m 73 780 l 64 780 l 64 841 l 73 841 q 147 880 147 841 q 82 916 147 916 l 38 916 l 38 1026 l 73 1026 q 217 993 167 1026 q 267 901 267 960 q 216 810 267 841 q 73 780 165 780 z "},"ᾉ":{"ha":1152,"x_min":38,"x_max":1121,"o":"m 79 0 l 407 1010 l 781 1010 l 1121 0 l 810 0 l 752 194 l 441 194 l 386 0 l 79 0 m 500 399 l 691 399 q 638 589 663 491 q 591 786 614 687 q 548 589 570 687 q 500 399 526 491 m 644 -335 q 537 -301 568 -335 q 505 -208 505 -267 l 505 -80 l 690 -80 l 690 -197 q 695 -221 690 -214 q 729 -228 701 -228 q 737 -228 729 -228 q 760 -227 745 -227 l 760 -326 q 704 -332 739 -329 q 644 -335 669 -335 m 233 769 q 89 800 140 769 q 38 890 38 830 q 88 982 38 949 q 233 1015 138 1015 l 267 1015 l 267 905 l 223 905 q 158 869 158 905 q 233 830 158 830 l 241 830 l 241 769 l 233 769 z "},"ᾊ":{"ha":1429,"x_min":38,"x_max":1398,"o":"m 356 0 l 684 1010 l 1058 1010 l 1398 0 l 1087 0 l 1029 194 l 718 194 l 663 0 l 356 0 m 777 399 l 968 399 q 915 589 940 491 q 868 786 890 687 q 825 589 847 687 q 777 399 803 491 m 920 -335 q 813 -301 845 -335 q 782 -208 782 -267 l 782 -80 l 966 -80 l 966 -197 q 972 -221 966 -214 q 1006 -228 977 -228 q 1014 -228 1006 -228 q 1037 -227 1022 -227 l 1037 -326 q 981 -332 1016 -329 q 920 -335 945 -335 m 73 769 l 64 769 l 64 830 l 73 830 q 147 869 147 830 q 82 905 147 905 l 38 905 l 38 1015 l 73 1015 q 217 982 167 1015 q 267 890 267 949 q 216 800 267 830 q 73 769 165 769 m 509 781 l 377 781 l 293 1010 l 490 1010 l 509 781 z "},"ᾋ":{"ha":1461,"x_min":38,"x_max":1430,"o":"m 389 0 l 716 1010 l 1090 1010 l 1430 0 l 1120 0 l 1061 194 l 751 194 l 695 0 l 389 0 m 809 399 l 1000 399 q 948 589 972 491 q 901 786 923 687 q 858 589 880 687 q 809 399 836 491 m 953 -335 q 846 -301 878 -335 q 814 -208 814 -267 l 814 -80 l 999 -80 l 999 -197 q 1004 -221 999 -214 q 1038 -228 1010 -228 q 1046 -228 1038 -228 q 1069 -227 1055 -227 l 1069 -326 q 1013 -332 1048 -329 q 953 -335 978 -335 m 233 769 q 89 800 140 769 q 38 890 38 830 q 88 982 38 949 q 233 1015 138 1015 l 267 1015 l 267 905 l 223 905 q 158 869 158 905 q 233 830 158 830 l 241 830 l 241 769 l 233 769 m 531 781 l 399 781 l 315 1010 l 512 1010 l 531 781 z "},"ᾌ":{"ha":1440,"x_min":38,"x_max":1409,"o":"m 367 0 l 694 1010 l 1069 1010 l 1409 0 l 1098 0 l 1040 194 l 729 194 l 673 0 l 367 0 m 787 399 l 979 399 q 926 589 951 491 q 879 786 901 687 q 836 589 858 687 q 787 399 814 491 m 73 769 l 64 769 l 64 830 l 73 830 q 147 869 147 830 q 82 905 147 905 l 38 905 l 38 1015 l 73 1015 q 217 982 167 1015 q 267 890 267 949 q 216 800 267 830 q 73 769 165 769 m 355 781 l 373 1010 l 570 1010 l 486 781 l 355 781 m 931 -335 q 824 -301 856 -335 q 793 -208 793 -267 l 793 -80 l 977 -80 l 977 -197 q 983 -221 977 -214 q 1017 -228 988 -228 q 1025 -228 1017 -228 q 1048 -227 1033 -227 l 1048 -326 q 991 -332 1027 -329 q 931 -335 956 -335 z "},"ᾍ":{"ha":1472,"x_min":38,"x_max":1441,"o":"m 399 0 l 727 1010 l 1101 1010 l 1441 0 l 1131 0 l 1072 194 l 762 194 l 706 0 l 399 0 m 820 399 l 1011 399 q 959 589 983 491 q 911 786 934 687 q 868 589 890 687 q 820 399 846 491 m 964 -335 q 857 -301 888 -335 q 825 -208 825 -267 l 825 -80 l 1010 -80 l 1010 -197 q 1015 -221 1010 -214 q 1049 -228 1021 -228 q 1057 -228 1049 -228 q 1080 -227 1065 -227 l 1080 -326 q 1024 -332 1059 -329 q 964 -335 989 -335 m 233 769 q 89 800 140 769 q 38 890 38 830 q 88 982 38 949 q 233 1015 138 1015 l 267 1015 l 267 905 l 223 905 q 158 869 158 905 q 233 830 158 830 l 241 830 l 241 769 l 233 769 m 376 781 l 395 1010 l 592 1010 l 507 781 l 376 781 z "},"ᾎ":{"ha":1286,"x_min":38,"x_max":1255,"o":"m 214 0 l 541 1010 l 916 1010 l 1255 0 l 945 0 l 886 194 l 576 194 l 520 0 l 214 0 m 634 399 l 825 399 q 773 589 798 491 q 726 786 748 687 q 683 589 705 687 q 634 399 661 491 m 407 1089 q 324 1107 355 1089 q 271 1144 293 1126 q 224 1162 249 1162 q 172 1095 176 1162 l 38 1095 q 88 1237 40 1190 q 206 1284 136 1284 q 289 1267 257 1284 q 343 1231 321 1249 q 389 1213 366 1213 q 430 1231 418 1213 q 442 1281 441 1249 l 575 1281 q 525 1138 574 1187 q 407 1089 476 1089 m 227 786 l 218 786 l 218 847 l 227 847 q 301 886 301 847 q 236 922 301 922 l 192 922 l 192 1032 l 227 1032 q 371 999 321 1032 q 421 907 421 966 q 370 817 421 847 q 227 786 319 786 m 778 -335 q 671 -301 703 -335 q 640 -208 640 -267 l 640 -80 l 824 -80 l 824 -197 q 829 -221 824 -214 q 863 -228 835 -228 q 871 -228 863 -228 q 895 -227 880 -227 l 895 -326 q 838 -332 873 -329 q 778 -335 803 -335 z "},"ᾏ":{"ha":1316,"x_min":38,"x_max":1285,"o":"m 243 0 l 571 1010 l 945 1010 l 1285 0 l 975 0 l 916 194 l 606 194 l 550 0 l 243 0 m 664 399 l 855 399 q 803 589 827 491 q 755 786 778 687 q 712 589 734 687 q 664 399 690 491 m 808 -335 q 701 -301 732 -335 q 669 -208 669 -267 l 669 -80 l 854 -80 l 854 -197 q 859 -221 854 -214 q 893 -228 865 -228 q 901 -228 893 -228 q 924 -227 909 -227 l 924 -326 q 868 -332 903 -329 q 808 -335 833 -335 m 407 1067 q 324 1086 355 1067 q 271 1122 293 1104 q 224 1141 249 1141 q 172 1073 176 1141 l 38 1073 q 88 1216 40 1168 q 206 1263 136 1263 q 289 1245 257 1263 q 343 1210 321 1227 q 389 1192 366 1192 q 430 1210 418 1192 q 442 1259 441 1227 l 575 1259 q 525 1116 574 1165 q 407 1067 476 1067 m 387 764 q 243 795 294 764 q 192 885 192 825 q 242 977 192 944 q 387 1010 292 1010 l 421 1010 l 421 901 l 377 901 q 312 864 312 901 q 387 825 312 825 l 395 825 l 395 764 l 387 764 z "},"ᾼ":{"ha":1104,"x_min":31,"x_max":1073,"o":"m 31 0 l 359 1010 l 733 1010 l 1073 0 l 762 0 l 704 194 l 393 194 l 338 0 l 31 0 m 452 399 l 643 399 q 590 589 615 491 q 543 786 566 687 q 500 589 522 687 q 452 399 478 491 m 595 -335 q 489 -301 520 -335 q 457 -208 457 -267 l 457 -80 l 642 -80 l 642 -197 q 647 -221 642 -214 q 681 -228 652 -228 q 689 -228 681 -228 q 712 -227 697 -227 l 712 -326 q 656 -332 691 -329 q 595 -335 621 -335 z "},"Λ":{"ha":1104,"x_min":31,"x_max":1073,"o":"m 31 0 l 359 1010 l 733 1010 l 1073 0 l 762 0 l 645 392 q 592 586 617 486 q 543 786 566 685 q 499 586 522 685 q 450 392 477 486 l 338 0 l 31 0 z "},"Æ":{"ha":1455,"x_min":31,"x_max":1397,"o":"m 31 0 l 426 1010 l 1397 1010 l 1397 789 l 943 789 l 943 618 l 1359 618 l 1359 403 l 943 403 l 943 221 l 1394 221 l 1394 0 l 680 0 l 680 205 l 408 205 l 334 0 l 31 0 m 475 388 l 680 388 l 680 838 l 638 838 l 475 388 z "},"Ǣ":{"ha":1455,"x_min":31,"x_max":1397,"o":"m 31 0 l 426 1010 l 1397 1010 l 1397 789 l 943 789 l 943 618 l 1359 618 l 1359 403 l 943 403 l 943 221 l 1394 221 l 1394 0 l 680 0 l 680 205 l 408 205 l 334 0 l 31 0 m 475 388 l 680 388 l 680 838 l 638 838 l 475 388 m 1120 1291 l 1120 1134 l 713 1134 l 713 1291 l 1120 1291 z "},"Ǽ":{"ha":1455,"x_min":31,"x_max":1397,"o":"m 31 0 l 426 1010 l 1397 1010 l 1397 789 l 943 789 l 943 618 l 1359 618 l 1359 403 l 943 403 l 943 221 l 1394 221 l 1394 0 l 680 0 l 680 205 l 408 205 l 334 0 l 31 0 m 475 388 l 680 388 l 680 838 l 638 838 l 475 388 m 826 1104 l 920 1325 l 1153 1325 l 1005 1104 l 826 1104 z "},"Ӕ":{"ha":1455,"x_min":31,"x_max":1397,"o":"m 31 0 l 426 1010 l 1397 1010 l 1397 789 l 943 789 l 943 618 l 1359 618 l 1359 403 l 943 403 l 943 221 l 1394 221 l 1394 0 l 680 0 l 680 205 l 408 205 l 334 0 l 31 0 m 475 388 l 680 388 l 680 838 l 638 838 l 475 388 z "},"B":{"ha":928,"x_min":65,"x_max":895,"o":"m 65 0 l 65 1010 l 503 1010 q 766 942 676 1010 q 856 758 856 873 q 802 614 856 674 q 661 537 749 554 l 661 526 q 779 494 726 524 q 864 411 832 464 q 895 286 895 357 q 852 139 895 203 q 730 37 810 74 q 541 0 651 0 l 65 0 m 339 218 l 468 218 q 606 321 606 218 q 570 404 606 375 q 472 433 534 433 l 339 433 l 339 218 m 339 602 l 452 602 q 540 627 506 602 q 574 699 574 652 q 540 770 574 745 q 456 795 507 795 l 339 795 l 339 602 z "},"Ḃ":{"ha":928,"x_min":65,"x_max":895,"o":"m 65 0 l 65 1010 l 503 1010 q 766 942 676 1010 q 856 758 856 873 q 802 614 856 674 q 661 537 749 554 l 661 526 q 779 494 726 524 q 864 411 832 464 q 895 286 895 357 q 852 139 895 203 q 730 37 810 74 q 541 0 651 0 l 65 0 m 339 218 l 468 218 q 606 321 606 218 q 570 404 606 375 q 472 433 534 433 l 339 433 l 339 218 m 339 602 l 452 602 q 540 627 506 602 q 574 699 574 652 q 540 770 574 745 q 456 795 507 795 l 339 795 l 339 602 m 452 1088 q 357 1124 396 1088 q 317 1213 317 1161 q 357 1301 317 1265 q 452 1337 396 1337 q 547 1301 507 1337 q 586 1213 586 1265 q 547 1124 586 1161 q 452 1088 507 1088 z "},"Ḅ":{"ha":928,"x_min":65,"x_max":895,"o":"m 65 0 l 65 1010 l 503 1010 q 766 942 676 1010 q 856 758 856 873 q 802 614 856 674 q 661 537 749 554 l 661 526 q 779 494 726 524 q 864 411 832 464 q 895 286 895 357 q 852 139 895 203 q 730 37 810 74 q 541 0 651 0 l 65 0 m 339 218 l 468 218 q 606 321 606 218 q 570 404 606 375 q 472 433 534 433 l 339 433 l 339 218 m 339 602 l 452 602 q 540 627 506 602 q 574 699 574 652 q 540 770 574 745 q 456 795 507 795 l 339 795 l 339 602 m 450 -327 q 355 -290 395 -327 q 316 -202 316 -254 q 355 -114 316 -150 q 450 -77 395 -77 q 545 -114 506 -77 q 585 -202 585 -150 q 545 -290 585 -254 q 450 -327 506 -327 z "},"Ḇ":{"ha":928,"x_min":65,"x_max":895,"o":"m 65 0 l 65 1010 l 503 1010 q 766 942 676 1010 q 856 758 856 873 q 802 614 856 674 q 661 537 749 554 l 661 526 q 779 494 726 524 q 864 411 832 464 q 895 286 895 357 q 852 139 895 203 q 730 37 810 74 q 541 0 651 0 l 65 0 m 339 218 l 468 218 q 606 321 606 218 q 570 404 606 375 q 472 433 534 433 l 339 433 l 339 218 m 339 602 l 452 602 q 540 627 506 602 q 574 699 574 652 q 540 770 574 745 q 456 795 507 795 l 339 795 l 339 602 m 654 -123 l 654 -281 l 247 -281 l 247 -123 l 654 -123 z "},"Ƀ":{"ha":982,"x_min":7,"x_max":949,"o":"m 119 0 l 119 1010 l 557 1010 q 820 942 730 1010 q 910 758 910 873 q 857 614 910 674 q 715 537 803 554 l 715 526 q 833 494 780 524 q 918 411 886 464 q 949 286 949 357 q 907 139 949 203 q 785 37 864 74 q 595 0 705 0 l 119 0 m 393 218 l 522 218 q 661 321 661 218 q 625 404 661 375 q 526 433 589 433 l 393 433 l 393 218 m 393 602 l 506 602 q 594 627 560 602 q 628 699 628 652 q 594 770 628 745 q 510 795 561 795 l 393 795 l 393 602 m 7 288 l 7 363 l 538 363 l 538 288 l 7 288 z "},"Ɓ":{"ha":1253,"x_min":28,"x_max":1221,"o":"m 28 694 l 28 743 q 112 947 28 883 q 376 1010 195 1010 l 829 1010 q 1092 942 1002 1010 q 1181 758 1181 873 q 1128 614 1181 674 q 986 537 1074 554 l 986 526 q 1104 494 1051 524 q 1189 411 1158 464 q 1221 286 1221 357 q 1178 139 1221 203 q 1056 37 1135 74 q 867 0 977 0 l 391 0 l 391 789 l 365 789 q 269 713 269 789 l 269 694 l 28 694 m 665 218 l 793 218 q 932 321 932 218 q 896 404 932 375 q 798 433 860 433 l 665 433 l 665 218 m 665 602 l 777 602 q 865 627 831 602 q 899 699 899 652 q 866 770 899 745 q 781 795 832 795 l 665 795 l 665 602 z "},"В":{"ha":928,"x_min":65,"x_max":895,"o":"m 65 0 l 65 1010 l 503 1010 q 766 942 676 1010 q 856 758 856 873 q 802 614 856 674 q 661 537 749 554 l 661 526 q 779 494 726 524 q 864 411 832 464 q 895 286 895 357 q 852 139 895 203 q 730 37 810 74 q 541 0 651 0 l 65 0 m 339 218 l 468 218 q 606 321 606 218 q 570 404 606 375 q 472 433 534 433 l 339 433 l 339 218 m 339 602 l 452 602 q 540 627 506 602 q 574 699 574 652 q 540 770 574 745 q 456 795 507 795 l 339 795 l 339 602 z "},"Β":{"ha":928,"x_min":65,"x_max":895,"o":"m 65 0 l 65 1010 l 503 1010 q 766 942 676 1010 q 856 758 856 873 q 802 614 856 674 q 661 537 749 554 l 661 526 q 779 494 726 524 q 864 411 832 464 q 895 286 895 357 q 852 139 895 203 q 730 37 810 74 q 541 0 651 0 l 65 0 m 339 218 l 468 218 q 606 321 606 218 q 570 404 606 375 q 472 433 534 433 l 339 433 l 339 218 m 339 602 l 452 602 q 540 627 506 602 q 574 699 574 652 q 540 770 574 745 q 456 795 507 795 l 339 795 l 339 602 z "},"C":{"ha":1038,"x_min":47,"x_max":994,"o":"m 534 -14 q 286 46 396 -14 q 112 221 176 106 q 47 505 47 337 q 113 789 47 673 q 288 965 178 905 q 534 1024 399 1024 q 759 979 661 1024 q 919 849 858 935 q 993 642 981 764 l 715 642 q 663 746 707 706 q 543 785 619 785 q 385 711 439 785 q 330 505 330 637 q 385 295 330 366 q 541 225 441 225 q 661 265 616 225 q 716 369 706 304 l 994 369 q 959 237 989 304 q 870 113 928 170 q 729 21 813 56 q 534 -14 646 -14 z "},"Ƈ":{"ha":1038,"x_min":47,"x_max":1143,"o":"m 534 -14 q 286 46 396 -14 q 112 221 176 106 q 47 505 47 337 q 113 789 47 673 q 288 965 178 905 q 534 1024 399 1024 q 734 990 644 1024 q 1009 1153 778 1153 q 1143 1137 1084 1153 l 1143 951 q 1104 956 1123 954 q 1065 958 1085 958 q 1009 945 1026 958 q 993 903 993 933 l 993 642 l 715 642 q 663 746 707 706 q 543 785 619 785 q 385 711 439 785 q 330 505 330 637 q 385 295 330 366 q 541 225 441 225 q 661 265 616 225 q 716 369 706 304 l 994 369 q 959 237 989 304 q 870 113 928 170 q 729 21 813 56 q 534 -14 646 -14 z "},"Ç":{"ha":1038,"x_min":47,"x_max":994,"o":"m 534 -14 q 286 46 396 -14 q 112 221 176 106 q 47 505 47 337 q 113 789 47 673 q 288 965 178 905 q 534 1024 399 1024 q 759 979 661 1024 q 919 849 858 935 q 993 642 981 764 l 715 642 q 663 746 707 706 q 543 785 619 785 q 385 711 439 785 q 330 505 330 637 q 385 295 330 366 q 541 225 441 225 q 661 265 616 225 q 716 369 706 304 l 994 369 q 959 237 989 304 q 870 113 928 170 q 729 21 813 56 q 534 -14 646 -14 m 432 -279 l 432 -191 l 524 -191 q 578 -151 578 -191 q 524 -113 578 -113 l 456 -113 l 484 31 l 574 31 l 574 4 l 567 -57 q 668 -78 629 -49 q 706 -160 706 -107 q 667 -252 706 -225 q 539 -279 627 -279 l 432 -279 z "},"Ć":{"ha":1038,"x_min":47,"x_max":994,"o":"m 534 -14 q 286 46 396 -14 q 112 221 176 106 q 47 505 47 337 q 113 789 47 673 q 288 965 178 905 q 534 1024 399 1024 q 759 979 661 1024 q 919 849 858 935 q 993 642 981 764 l 715 642 q 663 746 707 706 q 543 785 619 785 q 385 711 439 785 q 330 505 330 637 q 385 295 330 366 q 541 225 441 225 q 661 265 616 225 q 716 369 706 304 l 994 369 q 959 237 989 304 q 870 113 928 170 q 729 21 813 56 q 534 -14 646 -14 m 444 1104 l 537 1325 l 770 1325 l 623 1104 l 444 1104 z "},"Ĉ":{"ha":1038,"x_min":47,"x_max":994,"o":"m 534 -14 q 286 46 396 -14 q 112 221 176 106 q 47 505 47 337 q 113 789 47 673 q 288 965 178 905 q 534 1024 399 1024 q 759 979 661 1024 q 919 849 858 935 q 993 642 981 764 l 715 642 q 663 746 707 706 q 543 785 619 785 q 385 711 439 785 q 330 505 330 637 q 385 295 330 366 q 541 225 441 225 q 661 265 616 225 q 716 369 706 304 l 994 369 q 959 237 989 304 q 870 113 928 170 q 729 21 813 56 q 534 -14 646 -14 m 438 1104 l 213 1104 l 213 1108 l 439 1325 l 629 1325 l 856 1108 l 856 1104 l 631 1104 l 534 1217 l 438 1104 z "},"Ċ":{"ha":1038,"x_min":47,"x_max":994,"o":"m 534 -14 q 286 46 396 -14 q 112 221 176 106 q 47 505 47 337 q 113 789 47 673 q 288 965 178 905 q 534 1024 399 1024 q 759 979 661 1024 q 919 849 858 935 q 993 642 981 764 l 715 642 q 663 746 707 706 q 543 785 619 785 q 385 711 439 785 q 330 505 330 637 q 385 295 330 366 q 541 225 441 225 q 661 265 616 225 q 716 369 706 304 l 994 369 q 959 237 989 304 q 870 113 928 170 q 729 21 813 56 q 534 -14 646 -14 m 534 1088 q 439 1124 479 1088 q 400 1213 400 1161 q 439 1301 400 1265 q 534 1337 479 1337 q 629 1301 590 1337 q 669 1213 669 1265 q 629 1124 669 1161 q 534 1088 590 1088 z "},"Č":{"ha":1038,"x_min":47,"x_max":994,"o":"m 534 -14 q 286 46 396 -14 q 112 221 176 106 q 47 505 47 337 q 113 789 47 673 q 288 965 178 905 q 534 1024 399 1024 q 759 979 661 1024 q 919 849 858 935 q 993 642 981 764 l 715 642 q 663 746 707 706 q 543 785 619 785 q 385 711 439 785 q 330 505 330 637 q 385 295 330 366 q 541 225 441 225 q 661 265 616 225 q 716 369 706 304 l 994 369 q 959 237 989 304 q 870 113 928 170 q 729 21 813 56 q 534 -14 646 -14 m 438 1325 l 534 1213 l 631 1325 l 856 1325 l 856 1321 l 629 1104 l 439 1104 l 213 1321 l 213 1325 l 438 1325 z "},"Ḉ":{"ha":1038,"x_min":47,"x_max":994,"o":"m 534 -14 q 286 46 396 -14 q 112 221 176 106 q 47 505 47 337 q 113 789 47 673 q 288 965 178 905 q 534 1024 399 1024 q 759 979 661 1024 q 919 849 858 935 q 993 642 981 764 l 715 642 q 663 746 707 706 q 543 785 619 785 q 385 711 439 785 q 330 505 330 637 q 385 295 330 366 q 541 225 441 225 q 661 265 616 225 q 716 369 706 304 l 994 369 q 959 237 989 304 q 870 113 928 170 q 729 21 813 56 q 534 -14 646 -14 m 432 -279 l 432 -191 l 524 -191 q 578 -151 578 -191 q 524 -113 578 -113 l 456 -113 l 484 31 l 574 31 l 574 4 l 567 -57 q 668 -78 629 -49 q 706 -160 706 -107 q 667 -252 706 -225 q 539 -279 627 -279 l 432 -279 m 444 1104 l 537 1325 l 770 1325 l 623 1104 l 444 1104 z "},"Ȼ":{"ha":1038,"x_min":47,"x_max":994,"o":"m 274 -129 l 321 28 q 123 202 198 82 q 47 505 47 323 q 113 789 47 673 q 288 965 178 905 q 534 1024 399 1024 q 621 1019 578 1024 l 656 1138 l 798 1138 l 751 983 q 916 853 852 940 q 993 642 980 766 l 715 642 q 675 734 708 697 l 521 226 q 541 225 531 225 q 661 265 616 225 q 716 369 706 304 l 994 369 q 959 237 989 304 q 870 113 928 170 q 729 21 813 56 q 534 -14 646 -14 q 450 -7 491 -14 l 414 -129 l 274 -129 m 397 281 l 550 785 q 543 785 547 785 q 385 711 439 785 q 330 505 330 637 q 397 281 330 352 z "},"Ɔ":{"ha":1038,"x_min":44,"x_max":991,"o":"m 504 1024 q 753 964 643 1024 q 927 789 863 905 q 991 506 991 674 q 926 221 991 337 q 750 46 861 106 q 504 -14 640 -14 q 279 31 378 -14 q 119 161 180 76 q 45 369 58 247 l 323 369 q 376 265 332 304 q 496 225 420 225 q 654 299 599 225 q 709 506 709 374 q 653 715 709 645 q 497 785 598 785 q 377 746 422 785 q 322 642 332 706 l 44 642 q 80 773 50 706 q 168 897 111 840 q 309 989 225 954 q 504 1024 393 1024 z "},"Ϲ":{"ha":1038,"x_min":47,"x_max":994,"o":"m 534 -14 q 286 46 396 -14 q 112 221 176 106 q 47 505 47 337 q 113 789 47 673 q 288 965 178 905 q 534 1024 399 1024 q 759 979 661 1024 q 919 849 858 935 q 993 642 981 764 l 715 642 q 663 746 707 706 q 543 785 619 785 q 385 711 439 785 q 330 505 330 637 q 385 295 330 366 q 541 225 441 225 q 661 265 616 225 q 716 369 706 304 l 994 369 q 959 237 989 304 q 870 113 928 170 q 729 21 813 56 q 534 -14 646 -14 z "},"D":{"ha":1004,"x_min":65,"x_max":956,"o":"m 454 0 l 65 0 l 65 1010 l 450 1010 q 720 950 606 1010 q 895 776 833 889 q 956 505 956 663 q 895 234 956 347 q 721 60 833 121 q 454 0 608 0 m 339 233 l 444 233 q 572 257 519 233 q 653 340 625 281 q 681 505 681 399 q 652 670 681 610 q 569 753 624 729 q 435 777 515 777 l 339 777 l 339 233 z "},"Ɗ":{"ha":1329,"x_min":28,"x_max":1282,"o":"m 28 694 l 28 743 q 112 947 28 883 q 376 1010 195 1010 l 776 1010 q 1045 950 932 1010 q 1220 776 1158 889 q 1282 505 1282 663 q 1220 234 1282 347 q 1046 60 1159 121 q 780 0 934 0 l 391 0 l 391 789 l 365 789 q 269 713 269 789 l 269 694 l 28 694 m 665 233 l 769 233 q 898 257 844 233 q 979 340 951 281 q 1006 505 1006 399 q 978 670 1006 610 q 895 753 950 729 q 761 777 840 777 l 665 777 l 665 233 z "},"Ď":{"ha":1004,"x_min":65,"x_max":956,"o":"m 454 0 l 65 0 l 65 1010 l 450 1010 q 720 950 606 1010 q 895 776 833 889 q 956 505 956 663 q 895 234 956 347 q 721 60 833 121 q 454 0 608 0 m 339 233 l 444 233 q 572 257 519 233 q 653 340 625 281 q 681 505 681 399 q 652 670 681 610 q 569 753 624 729 q 435 777 515 777 l 339 777 l 339 233 m 307 1325 l 403 1213 l 499 1325 l 724 1325 l 724 1321 l 498 1104 l 308 1104 l 81 1321 l 81 1325 l 307 1325 z "},"Ḋ":{"ha":1004,"x_min":65,"x_max":956,"o":"m 454 0 l 65 0 l 65 1010 l 450 1010 q 720 950 606 1010 q 895 776 833 889 q 956 505 956 663 q 895 234 956 347 q 721 60 833 121 q 454 0 608 0 m 339 233 l 444 233 q 572 257 519 233 q 653 340 625 281 q 681 505 681 399 q 652 670 681 610 q 569 753 624 729 q 435 777 515 777 l 339 777 l 339 233 m 403 1088 q 308 1124 347 1088 q 269 1213 269 1161 q 308 1301 269 1265 q 403 1337 347 1337 q 498 1301 458 1337 q 537 1213 537 1265 q 498 1124 537 1161 q 403 1088 458 1088 z "},"Ḍ":{"ha":1004,"x_min":65,"x_max":956,"o":"m 454 0 l 65 0 l 65 1010 l 450 1010 q 720 950 606 1010 q 895 776 833 889 q 956 505 956 663 q 895 234 956 347 q 721 60 833 121 q 454 0 608 0 m 339 233 l 444 233 q 572 257 519 233 q 653 340 625 281 q 681 505 681 399 q 652 670 681 610 q 569 753 624 729 q 435 777 515 777 l 339 777 l 339 233 m 457 -327 q 362 -290 401 -327 q 323 -202 323 -254 q 362 -114 323 -150 q 457 -77 401 -77 q 552 -114 513 -77 q 591 -202 591 -150 q 552 -290 591 -254 q 457 -327 513 -327 z "},"Ḏ":{"ha":1004,"x_min":65,"x_max":956,"o":"m 454 0 l 65 0 l 65 1010 l 450 1010 q 720 950 606 1010 q 895 776 833 889 q 956 505 956 663 q 895 234 956 347 q 721 60 833 121 q 454 0 608 0 m 339 233 l 444 233 q 572 257 519 233 q 653 340 625 281 q 681 505 681 399 q 652 670 681 610 q 569 753 624 729 q 435 777 515 777 l 339 777 l 339 233 m 661 -123 l 661 -281 l 254 -281 l 254 -123 l 661 -123 z "},"Ḑ":{"ha":1004,"x_min":65,"x_max":956,"o":"m 454 0 l 65 0 l 65 1010 l 450 1010 q 720 950 606 1010 q 895 776 833 889 q 956 505 956 663 q 895 234 956 347 q 721 60 833 121 q 454 0 608 0 m 339 233 l 444 233 q 572 257 519 233 q 653 340 625 281 q 681 505 681 399 q 652 670 681 610 q 569 753 624 729 q 435 777 515 777 l 339 777 l 339 233 m 273 -316 l 338 -80 l 582 -80 l 457 -316 l 273 -316 z "},"Ḓ":{"ha":1004,"x_min":65,"x_max":956,"o":"m 454 0 l 65 0 l 65 1010 l 450 1010 q 720 950 606 1010 q 895 776 833 889 q 956 505 956 663 q 895 234 956 347 q 721 60 833 121 q 454 0 608 0 m 339 233 l 444 233 q 572 257 519 233 q 653 340 625 281 q 681 505 681 399 q 652 670 681 610 q 569 753 624 729 q 435 777 515 777 l 339 777 l 339 233 m 361 -313 l 136 -313 l 136 -309 l 362 -92 l 552 -92 l 779 -309 l 779 -313 l 553 -313 l 457 -200 l 361 -313 z "},"Ɖ":{"ha":1085,"x_min":14,"x_max":1038,"o":"m 536 0 l 146 0 l 146 1010 l 532 1010 q 801 950 688 1010 q 976 776 914 889 q 1038 505 1038 663 q 976 234 1038 347 q 802 60 915 121 q 536 0 690 0 m 420 233 l 525 233 q 653 257 600 233 q 734 340 707 281 q 762 505 762 399 q 734 670 762 610 q 651 753 705 729 q 517 777 596 777 l 420 777 l 420 233 m 14 421 l 14 589 l 589 589 l 589 421 l 14 421 z "},"ǲ":{"ha":1823,"x_min":65,"x_max":1746,"o":"m 454 0 l 65 0 l 65 1010 l 450 1010 q 720 950 606 1010 q 895 776 833 889 q 956 505 956 663 q 895 234 956 347 q 721 60 833 121 q 454 0 608 0 m 339 233 l 444 233 q 572 257 519 233 q 653 340 625 281 q 681 505 681 399 q 652 670 681 610 q 569 753 624 729 q 435 777 515 777 l 339 777 l 339 233 m 1081 0 l 1081 151 l 1412 547 l 1412 551 l 1092 551 l 1092 758 l 1733 758 l 1733 591 l 1432 212 l 1432 208 l 1746 208 l 1746 0 l 1081 0 z "},"ǅ":{"ha":1823,"x_min":65,"x_max":1746,"o":"m 454 0 l 65 0 l 65 1010 l 450 1010 q 720 950 606 1010 q 895 776 833 889 q 956 505 956 663 q 895 234 956 347 q 721 60 833 121 q 454 0 608 0 m 339 233 l 444 233 q 572 257 519 233 q 653 340 625 281 q 681 505 681 399 q 652 670 681 610 q 569 753 624 729 q 435 777 515 777 l 339 777 l 339 233 m 1081 0 l 1081 151 l 1412 547 l 1412 551 l 1092 551 l 1092 758 l 1733 758 l 1733 591 l 1432 212 l 1432 208 l 1746 208 l 1746 0 l 1081 0 m 1318 1073 l 1415 960 l 1511 1073 l 1736 1073 l 1736 1069 l 1510 852 l 1320 852 l 1093 1069 l 1093 1073 l 1318 1073 z "},"E":{"ha":851,"x_min":65,"x_max":793,"o":"m 65 0 l 65 1010 l 793 1010 l 793 789 l 339 789 l 339 618 l 755 618 l 755 403 l 339 403 l 339 221 l 791 221 l 791 0 l 65 0 z "},"È":{"ha":851,"x_min":65,"x_max":793,"o":"m 65 0 l 65 1010 l 793 1010 l 793 789 l 339 789 l 339 618 l 755 618 l 755 403 l 339 403 l 339 221 l 791 221 l 791 0 l 65 0 m 341 1104 l 193 1325 l 427 1325 l 520 1104 l 341 1104 z "},"É":{"ha":851,"x_min":65,"x_max":793,"o":"m 65 0 l 65 1010 l 793 1010 l 793 789 l 339 789 l 339 618 l 755 618 l 755 403 l 339 403 l 339 221 l 791 221 l 791 0 l 65 0 m 338 1104 l 432 1325 l 665 1325 l 517 1104 l 338 1104 z "},"Ê":{"ha":851,"x_min":65,"x_max":793,"o":"m 65 0 l 65 1010 l 793 1010 l 793 789 l 339 789 l 339 618 l 755 618 l 755 403 l 339 403 l 339 221 l 791 221 l 791 0 l 65 0 m 333 1104 l 108 1104 l 108 1108 l 334 1325 l 524 1325 l 751 1108 l 751 1104 l 526 1104 l 429 1217 l 333 1104 z "},"Ë":{"ha":851,"x_min":65,"x_max":793,"o":"m 65 0 l 65 1010 l 793 1010 l 793 789 l 339 789 l 339 618 l 755 618 l 755 403 l 339 403 l 339 221 l 791 221 l 791 0 l 65 0 m 273 1098 q 188 1132 223 1098 q 153 1213 153 1165 q 188 1294 153 1260 q 273 1327 223 1327 q 357 1294 322 1327 q 392 1213 392 1260 q 357 1132 392 1165 q 273 1098 322 1098 m 586 1098 q 502 1132 536 1098 q 467 1213 467 1165 q 502 1294 467 1260 q 586 1327 536 1327 q 670 1294 635 1327 q 705 1213 705 1260 q 670 1132 705 1165 q 586 1098 635 1098 z "},"Ē":{"ha":851,"x_min":65,"x_max":793,"o":"m 65 0 l 65 1010 l 793 1010 l 793 789 l 339 789 l 339 618 l 755 618 l 755 403 l 339 403 l 339 221 l 791 221 l 791 0 l 65 0 m 633 1291 l 633 1134 l 226 1134 l 226 1291 l 633 1291 z "},"Ĕ":{"ha":851,"x_min":65,"x_max":793,"o":"m 65 0 l 65 1010 l 793 1010 l 793 789 l 339 789 l 339 618 l 755 618 l 755 403 l 339 403 l 339 221 l 791 221 l 791 0 l 65 0 m 429 1093 q 293 1123 353 1093 q 198 1205 233 1154 q 163 1320 163 1257 l 307 1320 q 342 1253 307 1280 q 429 1225 378 1225 q 515 1253 480 1225 q 550 1320 550 1280 l 695 1320 q 660 1205 695 1257 q 565 1123 625 1154 q 429 1093 505 1093 z "},"Ė":{"ha":851,"x_min":65,"x_max":793,"o":"m 65 0 l 65 1010 l 793 1010 l 793 789 l 339 789 l 339 618 l 755 618 l 755 403 l 339 403 l 339 221 l 791 221 l 791 0 l 65 0 m 429 1088 q 334 1124 374 1088 q 295 1213 295 1161 q 334 1301 295 1265 q 429 1337 374 1337 q 524 1301 485 1337 q 564 1213 564 1265 q 524 1124 564 1161 q 429 1088 485 1088 z "},"Ę":{"ha":851,"x_min":65,"x_max":815,"o":"m 65 0 l 65 1010 l 793 1010 l 793 789 l 339 789 l 339 618 l 755 618 l 755 403 l 339 403 l 339 221 l 791 221 l 791 0 l 65 0 m 654 -289 q 512 -248 564 -289 q 459 -136 459 -208 q 481 -47 459 -88 q 536 18 503 -7 l 791 0 q 706 -44 729 -19 q 682 -98 682 -68 q 725 -145 682 -145 q 768 -132 747 -145 l 815 -254 q 741 -280 786 -271 q 654 -289 696 -289 z "},"Ě":{"ha":851,"x_min":65,"x_max":793,"o":"m 65 0 l 65 1010 l 793 1010 l 793 789 l 339 789 l 339 618 l 755 618 l 755 403 l 339 403 l 339 221 l 791 221 l 791 0 l 65 0 m 333 1325 l 429 1213 l 526 1325 l 751 1325 l 751 1321 l 524 1104 l 334 1104 l 108 1321 l 108 1325 l 333 1325 z "},"Ȅ":{"ha":851,"x_min":39,"x_max":793,"o":"m 65 0 l 65 1010 l 793 1010 l 793 789 l 339 789 l 339 618 l 755 618 l 755 403 l 339 403 l 339 221 l 791 221 l 791 0 l 65 0 m 214 1104 l 39 1325 l 283 1325 l 398 1104 l 214 1104 m 465 1104 l 356 1325 l 577 1325 l 644 1104 l 465 1104 z "},"Ȇ":{"ha":851,"x_min":65,"x_max":793,"o":"m 65 0 l 65 1010 l 793 1010 l 793 789 l 339 789 l 339 618 l 755 618 l 755 403 l 339 403 l 339 221 l 791 221 l 791 0 l 65 0 m 429 1331 q 565 1300 505 1331 q 660 1219 625 1270 q 695 1104 695 1168 l 550 1104 q 515 1171 550 1144 q 429 1198 480 1198 q 342 1171 378 1198 q 307 1104 307 1144 l 163 1104 q 198 1219 163 1168 q 293 1300 233 1270 q 429 1331 353 1331 z "},"Ȩ":{"ha":851,"x_min":65,"x_max":793,"o":"m 65 0 l 65 1010 l 793 1010 l 793 789 l 339 789 l 339 618 l 755 618 l 755 403 l 339 403 l 339 221 l 791 221 l 791 0 l 65 0 m 334 -283 l 334 -195 l 425 -195 q 479 -155 479 -195 q 425 -117 479 -117 l 357 -117 l 386 27 l 476 27 l 476 0 l 469 -61 q 569 -82 531 -53 q 608 -164 608 -111 q 568 -256 608 -229 q 441 -283 529 -283 l 334 -283 z "},"Ḕ":{"ha":851,"x_min":65,"x_max":793,"o":"m 65 0 l 65 1010 l 793 1010 l 793 789 l 339 789 l 339 618 l 755 618 l 755 403 l 339 403 l 339 221 l 791 221 l 791 0 l 65 0 m 633 1275 l 633 1118 l 226 1118 l 226 1275 l 633 1275 m 369 1359 l 251 1536 l 437 1536 l 513 1359 l 369 1359 z "},"Ḗ":{"ha":851,"x_min":65,"x_max":793,"o":"m 65 0 l 65 1010 l 793 1010 l 793 789 l 339 789 l 339 618 l 755 618 l 755 403 l 339 403 l 339 221 l 791 221 l 791 0 l 65 0 m 633 1275 l 633 1118 l 226 1118 l 226 1275 l 633 1275 m 358 1359 l 433 1536 l 620 1536 l 501 1359 l 358 1359 z "},"Ḙ":{"ha":851,"x_min":65,"x_max":793,"o":"m 65 0 l 65 1010 l 793 1010 l 793 789 l 339 789 l 339 618 l 755 618 l 755 403 l 339 403 l 339 221 l 791 221 l 791 0 l 65 0 m 333 -313 l 108 -313 l 108 -309 l 334 -92 l 524 -92 l 751 -309 l 751 -313 l 526 -313 l 429 -200 l 333 -313 z "},"Ḛ":{"ha":851,"x_min":65,"x_max":793,"o":"m 65 0 l 65 1010 l 793 1010 l 793 789 l 339 789 l 339 618 l 755 618 l 755 403 l 339 403 l 339 221 l 791 221 l 791 0 l 65 0 m 530 -311 q 464 -298 491 -311 q 418 -270 437 -286 q 382 -241 399 -254 q 347 -229 366 -229 q 295 -305 298 -229 l 161 -305 q 211 -146 163 -198 q 329 -94 259 -94 q 412 -114 380 -94 q 466 -153 444 -134 q 512 -173 489 -173 q 552 -153 541 -173 q 565 -98 564 -133 l 698 -98 q 648 -256 696 -202 q 530 -311 599 -311 z "},"Ḝ":{"ha":851,"x_min":65,"x_max":793,"o":"m 65 0 l 65 1010 l 793 1010 l 793 789 l 339 789 l 339 618 l 755 618 l 755 403 l 339 403 l 339 221 l 791 221 l 791 0 l 65 0 m 334 -283 l 334 -195 l 425 -195 q 479 -155 479 -195 q 425 -117 479 -117 l 357 -117 l 386 27 l 476 27 l 476 0 l 469 -61 q 569 -82 531 -53 q 608 -164 608 -111 q 568 -256 608 -229 q 441 -283 529 -283 l 334 -283 m 429 1093 q 293 1123 353 1093 q 198 1205 233 1154 q 163 1320 163 1257 l 307 1320 q 342 1253 307 1280 q 429 1225 378 1225 q 515 1253 480 1225 q 550 1320 550 1280 l 695 1320 q 660 1205 695 1257 q 565 1123 625 1154 q 429 1093 505 1093 z "},"Ẹ":{"ha":851,"x_min":65,"x_max":793,"o":"m 65 0 l 65 1010 l 793 1010 l 793 789 l 339 789 l 339 618 l 755 618 l 755 403 l 339 403 l 339 221 l 791 221 l 791 0 l 65 0 m 429 -327 q 334 -290 374 -327 q 295 -202 295 -254 q 334 -114 295 -150 q 429 -77 374 -77 q 524 -114 485 -77 q 564 -202 564 -150 q 524 -290 564 -254 q 429 -327 485 -327 z "},"Ẻ":{"ha":851,"x_min":65,"x_max":793,"o":"m 65 0 l 65 1010 l 793 1010 l 793 789 l 339 789 l 339 618 l 755 618 l 755 403 l 339 403 l 339 221 l 791 221 l 791 0 l 65 0 m 496 1104 l 351 1104 l 407 1196 q 404 1201 410 1201 l 284 1201 l 284 1325 l 404 1325 q 512 1307 474 1325 q 562 1261 550 1289 q 566 1203 574 1234 q 536 1147 558 1173 l 496 1104 z "},"Ẽ":{"ha":851,"x_min":65,"x_max":793,"o":"m 65 0 l 65 1010 l 793 1010 l 793 789 l 339 789 l 339 618 l 755 618 l 755 403 l 339 403 l 339 221 l 791 221 l 791 0 l 65 0 m 530 1104 q 464 1116 491 1104 q 418 1145 437 1128 q 382 1173 399 1161 q 347 1185 366 1185 q 295 1109 298 1185 l 161 1109 q 211 1269 163 1217 q 329 1321 259 1321 q 412 1301 380 1321 q 466 1261 444 1281 q 512 1242 489 1242 q 552 1262 541 1242 q 565 1317 564 1282 l 698 1317 q 648 1158 696 1213 q 530 1104 599 1104 z "},"Ế":{"ha":851,"x_min":65,"x_max":804,"o":"m 65 0 l 65 1010 l 793 1010 l 793 789 l 339 789 l 339 618 l 755 618 l 755 403 l 339 403 l 339 221 l 791 221 l 791 0 l 65 0 m 333 1086 l 108 1086 l 108 1090 l 334 1307 l 524 1307 l 751 1090 l 751 1086 l 526 1086 l 429 1198 l 333 1086 m 542 1359 l 616 1536 l 804 1536 l 685 1359 l 542 1359 z "},"Ề":{"ha":851,"x_min":65,"x_max":793,"o":"m 65 0 l 65 1010 l 793 1010 l 793 789 l 339 789 l 339 618 l 755 618 l 755 403 l 339 403 l 339 221 l 791 221 l 791 0 l 65 0 m 333 1086 l 108 1086 l 108 1090 l 334 1307 l 524 1307 l 751 1090 l 751 1086 l 526 1086 l 429 1198 l 333 1086 m 624 1359 l 506 1536 l 692 1536 l 768 1359 l 624 1359 z "},"Ể":{"ha":851,"x_min":65,"x_max":793,"o":"m 65 0 l 65 1010 l 793 1010 l 793 789 l 339 789 l 339 618 l 755 618 l 755 403 l 339 403 l 339 221 l 791 221 l 791 0 l 65 0 m 333 1086 l 108 1086 l 108 1090 l 334 1307 l 524 1307 l 751 1090 l 751 1086 l 526 1086 l 429 1198 l 333 1086 m 659 1359 l 543 1359 l 588 1433 q 586 1436 590 1436 l 490 1436 l 490 1536 l 586 1536 q 690 1511 661 1536 q 718 1453 720 1487 q 691 1394 715 1420 l 659 1359 z "},"Ễ":{"ha":851,"x_min":65,"x_max":793,"o":"m 65 0 l 65 1010 l 793 1010 l 793 789 l 339 789 l 339 618 l 755 618 l 755 403 l 339 403 l 339 221 l 791 221 l 791 0 l 65 0 m 333 1086 l 108 1086 l 108 1090 l 334 1307 l 524 1307 l 751 1090 l 751 1086 l 526 1086 l 429 1198 l 333 1086 m 530 1354 q 447 1371 478 1354 q 394 1404 416 1388 q 347 1421 372 1421 q 295 1358 298 1421 l 161 1358 q 211 1491 163 1447 q 329 1534 259 1534 q 412 1518 380 1534 q 466 1485 444 1501 q 512 1468 489 1468 q 552 1485 541 1468 q 565 1531 564 1501 l 698 1531 q 648 1399 696 1444 q 530 1354 599 1354 z "},"Ệ":{"ha":851,"x_min":65,"x_max":793,"o":"m 65 0 l 65 1010 l 793 1010 l 793 789 l 339 789 l 339 618 l 755 618 l 755 403 l 339 403 l 339 221 l 791 221 l 791 0 l 65 0 m 333 1104 l 108 1104 l 108 1108 l 334 1325 l 524 1325 l 751 1108 l 751 1104 l 526 1104 l 429 1217 l 333 1104 m 429 -327 q 334 -290 374 -327 q 295 -202 295 -254 q 334 -114 295 -150 q 429 -77 374 -77 q 524 -114 485 -77 q 564 -202 564 -150 q 524 -290 564 -254 q 429 -327 485 -327 z "},"Ɇ":{"ha":851,"x_min":65,"x_max":793,"o":"m 218 -129 l 256 0 l 65 0 l 65 1010 l 548 1010 l 585 1138 l 696 1138 l 659 1010 l 793 1010 l 793 789 l 595 789 l 546 618 l 755 618 l 755 403 l 484 403 l 432 221 l 791 221 l 791 0 l 368 0 l 331 -129 l 218 -129 m 435 618 l 484 789 l 339 789 l 339 618 l 435 618 m 339 289 l 372 403 l 339 403 l 339 289 z "},"Ǝ":{"ha":851,"x_min":58,"x_max":786,"o":"m 786 1010 l 786 0 l 58 0 l 58 221 l 512 221 l 512 392 l 96 392 l 96 608 l 512 608 l 512 789 l 60 789 l 60 1010 l 786 1010 z "},"Ε":{"ha":851,"x_min":65,"x_max":793,"o":"m 65 0 l 65 1010 l 793 1010 l 793 789 l 339 789 l 339 618 l 755 618 l 755 403 l 339 403 l 339 221 l 791 221 l 791 0 l 65 0 z "},"Έ":{"ha":1171,"x_min":38,"x_max":1114,"o":"m 385 0 l 385 1010 l 1114 1010 l 1114 789 l 659 789 l 659 618 l 1076 618 l 1076 403 l 659 403 l 659 221 l 1111 221 l 1111 0 l 385 0 m 38 789 l 60 1010 l 288 1010 l 190 789 l 38 789 z "},"Ἐ":{"ha":1135,"x_min":38,"x_max":1078,"o":"m 349 0 l 349 1010 l 1078 1010 l 1078 789 l 623 789 l 623 618 l 1040 618 l 1040 403 l 623 403 l 623 221 l 1075 221 l 1075 0 l 349 0 m 73 780 l 64 780 l 64 841 l 73 841 q 147 880 147 841 q 82 916 147 916 l 38 916 l 38 1026 l 73 1026 q 217 993 167 1026 q 267 901 267 960 q 216 810 267 841 q 73 780 165 780 z "},"Ἑ":{"ha":1157,"x_min":38,"x_max":1099,"o":"m 371 0 l 371 1010 l 1099 1010 l 1099 789 l 645 789 l 645 618 l 1061 618 l 1061 403 l 645 403 l 645 221 l 1097 221 l 1097 0 l 371 0 m 233 769 q 89 800 140 769 q 38 890 38 830 q 88 982 38 949 q 233 1015 138 1015 l 267 1015 l 267 905 l 223 905 q 158 869 158 905 q 233 830 158 830 l 241 830 l 241 769 l 233 769 z "},"Ἒ":{"ha":1434,"x_min":38,"x_max":1376,"o":"m 648 0 l 648 1010 l 1376 1010 l 1376 789 l 922 789 l 922 618 l 1338 618 l 1338 403 l 922 403 l 922 221 l 1373 221 l 1373 0 l 648 0 m 73 769 l 64 769 l 64 830 l 73 830 q 147 869 147 830 q 82 905 147 905 l 38 905 l 38 1015 l 73 1015 q 217 982 167 1015 q 267 890 267 949 q 216 800 267 830 q 73 769 165 769 m 509 781 l 377 781 l 293 1010 l 490 1010 l 509 781 z "},"Ἓ":{"ha":1466,"x_min":38,"x_max":1409,"o":"m 680 0 l 680 1010 l 1409 1010 l 1409 789 l 954 789 l 954 618 l 1371 618 l 1371 403 l 954 403 l 954 221 l 1406 221 l 1406 0 l 680 0 m 233 769 q 89 800 140 769 q 38 890 38 830 q 88 982 38 949 q 233 1015 138 1015 l 267 1015 l 267 905 l 223 905 q 158 869 158 905 q 233 830 158 830 l 241 830 l 241 769 l 233 769 m 531 781 l 399 781 l 315 1010 l 512 1010 l 531 781 z "},"Ἔ":{"ha":1444,"x_min":38,"x_max":1387,"o":"m 659 0 l 659 1010 l 1387 1010 l 1387 789 l 932 789 l 932 618 l 1349 618 l 1349 403 l 932 403 l 932 221 l 1384 221 l 1384 0 l 659 0 m 73 769 l 64 769 l 64 830 l 73 830 q 147 869 147 830 q 82 905 147 905 l 38 905 l 38 1015 l 73 1015 q 217 982 167 1015 q 267 890 267 949 q 216 800 267 830 q 73 769 165 769 m 355 781 l 373 1010 l 570 1010 l 486 781 l 355 781 z "},"Ἕ":{"ha":1477,"x_min":38,"x_max":1419,"o":"m 691 0 l 691 1010 l 1419 1010 l 1419 789 l 965 789 l 965 618 l 1381 618 l 1381 403 l 965 403 l 965 221 l 1417 221 l 1417 0 l 691 0 m 233 769 q 89 800 140 769 q 38 890 38 830 q 88 982 38 949 q 233 1015 138 1015 l 267 1015 l 267 905 l 223 905 q 158 869 158 905 q 233 830 158 830 l 241 830 l 241 769 l 233 769 m 376 781 l 395 1010 l 592 1010 l 507 781 l 376 781 z "},"Ὲ":{"ha":1156,"x_min":-57,"x_max":1099,"o":"m 370 0 l 370 1010 l 1099 1010 l 1099 789 l 644 789 l 644 618 l 1061 618 l 1061 403 l 644 403 l 644 221 l 1096 221 l 1096 0 l 370 0 m 193 840 l 41 840 l -57 1061 l 171 1061 l 193 840 z "},"Έ":{"ha":1171,"x_min":38,"x_max":1114,"o":"m 385 0 l 385 1010 l 1114 1010 l 1114 789 l 659 789 l 659 618 l 1076 618 l 1076 403 l 659 403 l 659 221 l 1111 221 l 1111 0 l 385 0 m 38 789 l 60 1010 l 288 1010 l 190 789 l 38 789 z "},"Е":{"ha":851,"x_min":65,"x_max":793,"o":"m 65 0 l 65 1010 l 793 1010 l 793 789 l 339 789 l 339 618 l 755 618 l 755 403 l 339 403 l 339 221 l 791 221 l 791 0 l 65 0 z "},"Ѐ":{"ha":851,"x_min":65,"x_max":793,"o":"m 65 0 l 65 1010 l 793 1010 l 793 789 l 339 789 l 339 618 l 755 618 l 755 403 l 339 403 l 339 221 l 791 221 l 791 0 l 65 0 m 341 1104 l 193 1325 l 427 1325 l 520 1104 l 341 1104 z "},"Ё":{"ha":851,"x_min":65,"x_max":793,"o":"m 65 0 l 65 1010 l 793 1010 l 793 789 l 339 789 l 339 618 l 755 618 l 755 403 l 339 403 l 339 221 l 791 221 l 791 0 l 65 0 m 273 1098 q 188 1132 223 1098 q 153 1213 153 1165 q 188 1294 153 1260 q 273 1327 223 1327 q 357 1294 322 1327 q 392 1213 392 1260 q 357 1132 392 1165 q 273 1098 322 1098 m 586 1098 q 502 1132 536 1098 q 467 1213 467 1165 q 502 1294 467 1260 q 586 1327 536 1327 q 670 1294 635 1327 q 705 1213 705 1260 q 670 1132 705 1165 q 586 1098 635 1098 z "},"Ӗ":{"ha":851,"x_min":65,"x_max":793,"o":"m 65 0 l 65 1010 l 793 1010 l 793 789 l 339 789 l 339 618 l 755 618 l 755 403 l 339 403 l 339 221 l 791 221 l 791 0 l 65 0 m 429 1093 q 293 1123 353 1093 q 198 1205 233 1154 q 163 1320 163 1257 l 307 1320 q 342 1253 307 1280 q 429 1225 378 1225 q 515 1253 480 1225 q 550 1320 550 1280 l 695 1320 q 660 1205 695 1257 q 565 1123 625 1154 q 429 1093 505 1093 z "},"F":{"ha":811,"x_min":65,"x_max":776,"o":"m 65 0 l 65 1010 l 776 1010 l 776 789 l 339 789 l 339 562 l 732 562 l 732 346 l 339 346 l 339 0 l 65 0 z "},"Ƒ":{"ha":811,"x_min":-83,"x_max":776,"o":"m -83 -283 l -83 -81 q -43 -86 -62 -84 q -5 -87 -24 -87 q 50 -76 35 -87 q 65 -33 65 -64 l 65 1010 l 776 1010 l 776 789 l 339 789 l 339 562 l 732 562 l 732 346 l 339 346 l 339 -50 q 52 -299 339 -299 q -83 -283 -22 -299 z "},"Ḟ":{"ha":811,"x_min":65,"x_max":776,"o":"m 65 0 l 65 1010 l 776 1010 l 776 789 l 339 789 l 339 562 l 732 562 l 732 346 l 339 346 l 339 0 l 65 0 m 422 1088 q 327 1124 366 1088 q 288 1213 288 1161 q 327 1301 288 1265 q 422 1337 366 1337 q 517 1301 477 1337 q 556 1213 556 1265 q 517 1124 556 1161 q 422 1088 477 1088 z "},"Ⅎ":{"ha":811,"x_min":35,"x_max":746,"o":"m 746 1010 l 746 0 l 35 0 l 35 221 l 472 221 l 472 449 l 79 449 l 79 665 l 472 665 l 472 1010 l 746 1010 z "},"G":{"ha":1048,"x_min":47,"x_max":997,"o":"m 543 -14 q 284 49 395 -14 q 110 228 172 112 q 47 503 47 344 q 114 786 47 670 q 293 963 181 903 q 541 1024 405 1024 q 757 980 661 1024 q 914 857 853 935 q 985 677 975 779 l 708 677 q 653 757 695 729 q 547 785 611 785 q 387 712 444 785 q 330 507 330 639 q 384 300 330 374 q 545 225 439 225 q 684 264 637 225 q 732 369 730 302 l 549 369 l 549 564 l 997 564 l 997 425 q 939 188 997 286 q 778 38 880 90 q 543 -14 675 -14 z "},"Ǥ":{"ha":1048,"x_min":47,"x_max":1080,"o":"m 543 -14 q 284 49 395 -14 q 110 228 172 112 q 47 503 47 344 q 114 786 47 670 q 293 963 181 903 q 541 1024 405 1024 q 757 980 661 1024 q 914 857 853 935 q 985 677 975 779 l 708 677 q 653 757 695 729 q 547 785 611 785 q 387 712 444 785 q 330 507 330 639 q 384 300 330 374 q 545 225 439 225 q 684 264 637 225 q 732 369 730 302 l 549 369 l 549 564 l 997 564 l 997 425 q 939 188 997 286 q 778 38 880 90 q 543 -14 675 -14 m 549 262 l 549 327 l 1080 327 l 1080 262 l 549 262 z "},"Ɠ":{"ha":1048,"x_min":47,"x_max":1135,"o":"m 543 -14 q 284 49 395 -14 q 110 228 172 112 q 47 503 47 344 q 114 786 47 670 q 293 963 181 903 q 541 1024 405 1024 q 729 991 642 1024 q 1001 1142 779 1142 q 1135 1126 1076 1142 l 1135 941 q 1096 945 1115 943 q 1057 947 1077 947 q 1001 935 1018 947 q 985 892 985 922 l 985 677 l 708 677 q 653 757 695 729 q 547 785 611 785 q 387 712 444 785 q 330 507 330 639 q 384 300 330 374 q 545 225 439 225 q 684 264 637 225 q 732 369 730 302 l 549 369 l 549 564 l 997 564 l 997 425 q 939 188 997 286 q 778 38 880 90 q 543 -14 675 -14 z "},"Ĝ":{"ha":1048,"x_min":47,"x_max":997,"o":"m 543 -14 q 284 49 395 -14 q 110 228 172 112 q 47 503 47 344 q 114 786 47 670 q 293 963 181 903 q 541 1024 405 1024 q 757 980 661 1024 q 914 857 853 935 q 985 677 975 779 l 708 677 q 653 757 695 729 q 547 785 611 785 q 387 712 444 785 q 330 507 330 639 q 384 300 330 374 q 545 225 439 225 q 684 264 637 225 q 732 369 730 302 l 549 369 l 549 564 l 997 564 l 997 425 q 939 188 997 286 q 778 38 880 90 q 543 -14 675 -14 m 437 1104 l 212 1104 l 212 1108 l 438 1325 l 628 1325 l 854 1108 l 854 1104 l 629 1104 l 533 1217 l 437 1104 z "},"Ğ":{"ha":1048,"x_min":47,"x_max":997,"o":"m 543 -14 q 284 49 395 -14 q 110 228 172 112 q 47 503 47 344 q 114 786 47 670 q 293 963 181 903 q 541 1024 405 1024 q 757 980 661 1024 q 914 857 853 935 q 985 677 975 779 l 708 677 q 653 757 695 729 q 547 785 611 785 q 387 712 444 785 q 330 507 330 639 q 384 300 330 374 q 545 225 439 225 q 684 264 637 225 q 732 369 730 302 l 549 369 l 549 564 l 997 564 l 997 425 q 939 188 997 286 q 778 38 880 90 q 543 -14 675 -14 m 533 1093 q 397 1123 457 1093 q 302 1205 337 1154 q 267 1320 267 1257 l 411 1320 q 446 1253 411 1280 q 533 1225 481 1225 q 619 1253 584 1225 q 654 1320 654 1280 l 799 1320 q 764 1205 799 1257 q 669 1123 729 1154 q 533 1093 609 1093 z "},"Ġ":{"ha":1048,"x_min":47,"x_max":997,"o":"m 543 -14 q 284 49 395 -14 q 110 228 172 112 q 47 503 47 344 q 114 786 47 670 q 293 963 181 903 q 541 1024 405 1024 q 757 980 661 1024 q 914 857 853 935 q 985 677 975 779 l 708 677 q 653 757 695 729 q 547 785 611 785 q 387 712 444 785 q 330 507 330 639 q 384 300 330 374 q 545 225 439 225 q 684 264 637 225 q 732 369 730 302 l 549 369 l 549 564 l 997 564 l 997 425 q 939 188 997 286 q 778 38 880 90 q 543 -14 675 -14 m 533 1088 q 438 1124 477 1088 q 399 1213 399 1161 q 438 1301 399 1265 q 533 1337 477 1337 q 628 1301 589 1337 q 667 1213 667 1265 q 628 1124 667 1161 q 533 1088 589 1088 z "},"Ģ":{"ha":1048,"x_min":47,"x_max":997,"o":"m 543 -14 q 284 49 395 -14 q 110 228 172 112 q 47 503 47 344 q 114 786 47 670 q 293 963 181 903 q 541 1024 405 1024 q 757 980 661 1024 q 914 857 853 935 q 985 677 975 779 l 708 677 q 653 757 695 729 q 547 785 611 785 q 387 712 444 785 q 330 507 330 639 q 384 300 330 374 q 545 225 439 225 q 684 264 637 225 q 732 369 730 302 l 549 369 l 549 564 l 997 564 l 997 425 q 939 188 997 286 q 778 38 880 90 q 543 -14 675 -14 m 346 -316 l 411 -80 l 655 -80 l 530 -316 l 346 -316 z "},"Ǧ":{"ha":1048,"x_min":47,"x_max":997,"o":"m 543 -14 q 284 49 395 -14 q 110 228 172 112 q 47 503 47 344 q 114 786 47 670 q 293 963 181 903 q 541 1024 405 1024 q 757 980 661 1024 q 914 857 853 935 q 985 677 975 779 l 708 677 q 653 757 695 729 q 547 785 611 785 q 387 712 444 785 q 330 507 330 639 q 384 300 330 374 q 545 225 439 225 q 684 264 637 225 q 732 369 730 302 l 549 369 l 549 564 l 997 564 l 997 425 q 939 188 997 286 q 778 38 880 90 q 543 -14 675 -14 m 437 1325 l 533 1213 l 629 1325 l 854 1325 l 854 1321 l 628 1104 l 438 1104 l 212 1321 l 212 1325 l 437 1325 z "},"Ǵ":{"ha":1048,"x_min":47,"x_max":997,"o":"m 543 -14 q 284 49 395 -14 q 110 228 172 112 q 47 503 47 344 q 114 786 47 670 q 293 963 181 903 q 541 1024 405 1024 q 757 980 661 1024 q 914 857 853 935 q 985 677 975 779 l 708 677 q 653 757 695 729 q 547 785 611 785 q 387 712 444 785 q 330 507 330 639 q 384 300 330 374 q 545 225 439 225 q 684 264 637 225 q 732 369 730 302 l 549 369 l 549 564 l 997 564 l 997 425 q 939 188 997 286 q 778 38 880 90 q 543 -14 675 -14 m 442 1104 l 536 1325 l 769 1325 l 621 1104 l 442 1104 z "},"Ḡ":{"ha":1048,"x_min":47,"x_max":997,"o":"m 543 -14 q 284 49 395 -14 q 110 228 172 112 q 47 503 47 344 q 114 786 47 670 q 293 963 181 903 q 541 1024 405 1024 q 757 980 661 1024 q 914 857 853 935 q 985 677 975 779 l 708 677 q 653 757 695 729 q 547 785 611 785 q 387 712 444 785 q 330 507 330 639 q 384 300 330 374 q 545 225 439 225 q 684 264 637 225 q 732 369 730 302 l 549 369 l 549 564 l 997 564 l 997 425 q 939 188 997 286 q 778 38 880 90 q 543 -14 675 -14 m 736 1291 l 736 1134 l 330 1134 l 330 1291 l 736 1291 z "},"":{"ha":1059,"x_min":47,"x_max":997,"o":"m 510 -14 q 277 49 382 -14 q 110 228 172 112 q 47 503 47 344 q 114 786 47 670 q 293 963 181 903 q 541 1024 405 1024 q 757 980 661 1024 q 914 857 853 935 q 985 677 975 779 l 708 677 q 653 757 695 729 q 547 785 611 785 q 387 712 444 785 q 330 507 330 639 q 385 300 330 374 q 551 225 440 225 q 683 264 635 225 q 732 369 730 302 l 549 369 l 549 564 l 997 564 l 997 0 l 828 0 l 796 226 q 712 52 781 118 q 510 -14 644 -14 z "},"":{"ha":1059,"x_min":47,"x_max":1080,"o":"m 510 -14 q 277 49 382 -14 q 110 228 172 112 q 47 503 47 344 q 114 786 47 670 q 293 963 181 903 q 541 1024 405 1024 q 757 980 661 1024 q 914 857 853 935 q 985 677 975 779 l 708 677 q 653 757 695 729 q 547 785 611 785 q 387 712 444 785 q 330 507 330 639 q 385 300 330 374 q 551 225 440 225 q 683 264 635 225 q 732 369 730 302 l 549 369 l 549 564 l 997 564 l 997 0 l 828 0 l 796 226 q 712 52 781 118 q 510 -14 644 -14 m 549 262 l 549 327 l 1080 327 l 1080 262 l 549 262 z "},"":{"ha":1059,"x_min":47,"x_max":1135,"o":"m 510 -14 q 277 49 382 -14 q 110 228 172 112 q 47 503 47 344 q 114 786 47 670 q 293 963 181 903 q 541 1024 405 1024 q 729 991 642 1024 q 1001 1142 779 1142 q 1135 1126 1076 1142 l 1135 941 q 1096 945 1115 943 q 1057 947 1077 947 q 1001 935 1018 947 q 985 892 985 922 l 985 677 l 708 677 q 653 757 695 729 q 547 785 611 785 q 387 712 444 785 q 330 507 330 639 q 385 300 330 374 q 551 225 440 225 q 683 264 635 225 q 732 369 730 302 l 549 369 l 549 564 l 997 564 l 997 0 l 828 0 l 796 226 q 712 52 781 118 q 510 -14 644 -14 z "},"":{"ha":1059,"x_min":47,"x_max":997,"o":"m 510 -14 q 277 49 382 -14 q 110 228 172 112 q 47 503 47 344 q 114 786 47 670 q 293 963 181 903 q 541 1024 405 1024 q 757 980 661 1024 q 914 857 853 935 q 985 677 975 779 l 708 677 q 653 757 695 729 q 547 785 611 785 q 387 712 444 785 q 330 507 330 639 q 385 300 330 374 q 551 225 440 225 q 683 264 635 225 q 732 369 730 302 l 549 369 l 549 564 l 997 564 l 997 0 l 828 0 l 796 226 q 712 52 781 118 q 510 -14 644 -14 m 437 1104 l 212 1104 l 212 1108 l 438 1325 l 628 1325 l 854 1108 l 854 1104 l 629 1104 l 533 1217 l 437 1104 z "},"":{"ha":1059,"x_min":47,"x_max":997,"o":"m 510 -14 q 277 49 382 -14 q 110 228 172 112 q 47 503 47 344 q 114 786 47 670 q 293 963 181 903 q 541 1024 405 1024 q 757 980 661 1024 q 914 857 853 935 q 985 677 975 779 l 708 677 q 653 757 695 729 q 547 785 611 785 q 387 712 444 785 q 330 507 330 639 q 385 300 330 374 q 551 225 440 225 q 683 264 635 225 q 732 369 730 302 l 549 369 l 549 564 l 997 564 l 997 0 l 828 0 l 796 226 q 712 52 781 118 q 510 -14 644 -14 m 533 1093 q 397 1123 457 1093 q 302 1205 337 1154 q 267 1320 267 1257 l 411 1320 q 446 1253 411 1280 q 533 1225 481 1225 q 619 1253 584 1225 q 654 1320 654 1280 l 799 1320 q 764 1205 799 1257 q 669 1123 729 1154 q 533 1093 609 1093 z "},"":{"ha":1059,"x_min":47,"x_max":997,"o":"m 510 -14 q 277 49 382 -14 q 110 228 172 112 q 47 503 47 344 q 114 786 47 670 q 293 963 181 903 q 541 1024 405 1024 q 757 980 661 1024 q 914 857 853 935 q 985 677 975 779 l 708 677 q 653 757 695 729 q 547 785 611 785 q 387 712 444 785 q 330 507 330 639 q 385 300 330 374 q 551 225 440 225 q 683 264 635 225 q 732 369 730 302 l 549 369 l 549 564 l 997 564 l 997 0 l 828 0 l 796 226 q 712 52 781 118 q 510 -14 644 -14 m 533 1088 q 438 1124 477 1088 q 399 1213 399 1161 q 438 1301 399 1265 q 533 1337 477 1337 q 628 1301 589 1337 q 667 1213 667 1265 q 628 1124 667 1161 q 533 1088 589 1088 z "},"":{"ha":1059,"x_min":47,"x_max":997,"o":"m 510 -14 q 277 49 382 -14 q 110 228 172 112 q 47 503 47 344 q 114 786 47 670 q 293 963 181 903 q 541 1024 405 1024 q 757 980 661 1024 q 914 857 853 935 q 985 677 975 779 l 708 677 q 653 757 695 729 q 547 785 611 785 q 387 712 444 785 q 330 507 330 639 q 385 300 330 374 q 551 225 440 225 q 683 264 635 225 q 732 369 730 302 l 549 369 l 549 564 l 997 564 l 997 0 l 828 0 l 796 226 q 712 52 781 118 q 510 -14 644 -14 m 346 -316 l 411 -80 l 655 -80 l 530 -316 l 346 -316 z "},"":{"ha":1059,"x_min":47,"x_max":997,"o":"m 510 -14 q 277 49 382 -14 q 110 228 172 112 q 47 503 47 344 q 114 786 47 670 q 293 963 181 903 q 541 1024 405 1024 q 757 980 661 1024 q 914 857 853 935 q 985 677 975 779 l 708 677 q 653 757 695 729 q 547 785 611 785 q 387 712 444 785 q 330 507 330 639 q 385 300 330 374 q 551 225 440 225 q 683 264 635 225 q 732 369 730 302 l 549 369 l 549 564 l 997 564 l 997 0 l 828 0 l 796 226 q 712 52 781 118 q 510 -14 644 -14 m 437 1325 l 533 1213 l 629 1325 l 854 1325 l 854 1321 l 628 1104 l 438 1104 l 212 1321 l 212 1325 l 437 1325 z "},"":{"ha":1059,"x_min":47,"x_max":997,"o":"m 510 -14 q 277 49 382 -14 q 110 228 172 112 q 47 503 47 344 q 114 786 47 670 q 293 963 181 903 q 541 1024 405 1024 q 757 980 661 1024 q 914 857 853 935 q 985 677 975 779 l 708 677 q 653 757 695 729 q 547 785 611 785 q 387 712 444 785 q 330 507 330 639 q 385 300 330 374 q 551 225 440 225 q 683 264 635 225 q 732 369 730 302 l 549 369 l 549 564 l 997 564 l 997 0 l 828 0 l 796 226 q 712 52 781 118 q 510 -14 644 -14 m 442 1104 l 536 1325 l 769 1325 l 621 1104 l 442 1104 z "},"":{"ha":1059,"x_min":47,"x_max":997,"o":"m 510 -14 q 277 49 382 -14 q 110 228 172 112 q 47 503 47 344 q 114 786 47 670 q 293 963 181 903 q 541 1024 405 1024 q 757 980 661 1024 q 914 857 853 935 q 985 677 975 779 l 708 677 q 653 757 695 729 q 547 785 611 785 q 387 712 444 785 q 330 507 330 639 q 385 300 330 374 q 551 225 440 225 q 683 264 635 225 q 732 369 730 302 l 549 369 l 549 564 l 997 564 l 997 0 l 828 0 l 796 226 q 712 52 781 118 q 510 -14 644 -14 m 736 1291 l 736 1134 l 330 1134 l 330 1291 l 736 1291 z "},"H":{"ha":1042,"x_min":65,"x_max":977,"o":"m 65 0 l 65 1010 l 339 1010 l 339 627 l 703 627 l 703 1010 l 977 1010 l 977 0 l 703 0 l 703 406 l 339 406 l 339 0 l 65 0 z "},"Ḩ":{"ha":1042,"x_min":65,"x_max":977,"o":"m 65 0 l 65 1010 l 339 1010 l 339 627 l 703 627 l 703 1010 l 977 1010 l 977 0 l 703 0 l 703 406 l 339 406 l 339 0 l 65 0 m 104 -283 l 104 -195 l 195 -195 q 250 -155 250 -195 q 195 -117 250 -117 l 127 -117 l 156 27 l 246 27 l 246 0 l 239 -61 q 339 -82 301 -53 q 378 -164 378 -111 q 338 -256 378 -229 q 211 -283 299 -283 l 104 -283 z "},"Ĥ":{"ha":1042,"x_min":65,"x_max":977,"o":"m 65 0 l 65 1010 l 339 1010 l 339 627 l 703 627 l 703 1010 l 977 1010 l 977 0 l 703 0 l 703 406 l 339 406 l 339 0 l 65 0 m 425 1104 l 199 1104 l 199 1108 l 426 1325 l 616 1325 l 842 1108 l 842 1104 l 617 1104 l 521 1217 l 425 1104 z "},"Ȟ":{"ha":1042,"x_min":65,"x_max":977,"o":"m 65 0 l 65 1010 l 339 1010 l 339 627 l 703 627 l 703 1010 l 977 1010 l 977 0 l 703 0 l 703 406 l 339 406 l 339 0 l 65 0 m 425 1325 l 521 1213 l 617 1325 l 842 1325 l 842 1321 l 616 1104 l 426 1104 l 199 1321 l 199 1325 l 425 1325 z "},"Ḣ":{"ha":1042,"x_min":65,"x_max":977,"o":"m 65 0 l 65 1010 l 339 1010 l 339 627 l 703 627 l 703 1010 l 977 1010 l 977 0 l 703 0 l 703 406 l 339 406 l 339 0 l 65 0 m 521 1088 q 426 1124 465 1088 q 387 1213 387 1161 q 426 1301 387 1265 q 521 1337 465 1337 q 616 1301 576 1337 q 655 1213 655 1265 q 616 1124 655 1161 q 521 1088 576 1088 z "},"Ḥ":{"ha":1042,"x_min":65,"x_max":977,"o":"m 65 0 l 65 1010 l 339 1010 l 339 627 l 703 627 l 703 1010 l 977 1010 l 977 0 l 703 0 l 703 406 l 339 406 l 339 0 l 65 0 m 521 -327 q 426 -290 465 -327 q 387 -202 387 -254 q 426 -114 387 -150 q 521 -77 465 -77 q 616 -114 576 -77 q 655 -202 655 -150 q 616 -290 655 -254 q 521 -327 576 -327 z "},"Ḧ":{"ha":1042,"x_min":65,"x_max":977,"o":"m 65 0 l 65 1010 l 339 1010 l 339 627 l 703 627 l 703 1010 l 977 1010 l 977 0 l 703 0 l 703 406 l 339 406 l 339 0 l 65 0 m 364 1098 q 280 1132 315 1098 q 245 1213 245 1165 q 280 1294 245 1260 q 364 1327 315 1327 q 449 1294 414 1327 q 484 1213 484 1260 q 449 1132 484 1165 q 364 1098 414 1098 m 677 1098 q 593 1132 628 1098 q 558 1213 558 1165 q 593 1294 558 1260 q 677 1327 628 1327 q 762 1294 727 1327 q 797 1213 797 1260 q 762 1132 797 1165 q 677 1098 727 1098 z "},"Ḫ":{"ha":1042,"x_min":65,"x_max":977,"o":"m 65 0 l 65 1010 l 339 1010 l 339 627 l 703 627 l 703 1010 l 977 1010 l 977 0 l 703 0 l 703 406 l 339 406 l 339 0 l 65 0 m 521 -326 q 385 -296 445 -326 q 290 -214 325 -266 q 255 -100 255 -163 l 399 -100 q 434 -166 399 -139 q 521 -194 469 -194 q 607 -166 572 -194 q 642 -100 642 -139 l 787 -100 q 752 -214 787 -163 q 657 -296 717 -266 q 521 -326 597 -326 z "},"Ħ":{"ha":1157,"x_min":38,"x_max":1119,"o":"m 1119 860 l 1119 730 l 1034 730 l 1034 0 l 760 0 l 760 406 l 396 406 l 396 0 l 122 0 l 122 730 l 38 730 l 38 860 l 122 860 l 122 1010 l 396 1010 l 396 860 l 760 860 l 760 1010 l 1034 1010 l 1034 860 l 1119 860 m 760 730 l 396 730 l 396 627 l 760 627 l 760 730 z "},"Ӈ":{"ha":1042,"x_min":65,"x_max":977,"o":"m 555 -283 l 555 -81 q 594 -86 575 -84 q 633 -87 613 -87 q 688 -76 673 -87 q 703 -33 703 -64 l 703 406 l 339 406 l 339 0 l 65 0 l 65 1010 l 339 1010 l 339 627 l 703 627 l 703 1010 l 977 1010 l 977 -50 q 689 -299 977 -299 q 555 -283 615 -299 z "},"Ң":{"ha":1096,"x_min":65,"x_max":1092,"o":"m 65 0 l 65 1010 l 339 1010 l 339 627 l 703 627 l 703 1010 l 977 1010 l 977 0 l 703 0 l 703 406 l 339 406 l 339 0 l 65 0 m 814 -217 l 814 0 l 749 0 l 749 203 l 1092 203 l 1076 -217 l 814 -217 z "},"Ӊ":{"ha":1042,"x_min":65,"x_max":1103,"o":"m 65 0 l 65 1010 l 339 1010 l 339 627 l 703 627 l 703 1010 l 977 1010 l 977 0 l 703 0 l 703 406 l 339 406 l 339 0 l 65 0 m 722 -217 l 792 0 l 727 0 l 727 203 l 1103 203 l 967 -217 l 722 -217 z "},"Ҥ":{"ha":1417,"x_min":65,"x_max":1379,"o":"m 1379 1010 l 1379 789 l 977 789 l 977 0 l 703 0 l 703 406 l 339 406 l 339 0 l 65 0 l 65 1010 l 339 1010 l 339 627 l 703 627 l 703 1010 l 1379 1010 z "},"Ƕ":{"ha":1568,"x_min":65,"x_max":1499,"o":"m 1101 -14 q 888 31 978 -14 q 751 157 799 75 q 703 353 703 239 l 703 395 l 339 395 l 339 0 l 65 0 l 65 1010 l 339 1010 l 339 616 l 703 616 l 703 1010 l 977 1010 l 977 353 q 1010 249 977 287 q 1101 212 1044 212 q 1192 249 1159 212 q 1225 353 1225 287 l 1225 724 l 1499 724 l 1499 353 q 1394 85 1499 183 q 1101 -14 1288 -14 z "},"Η":{"ha":1042,"x_min":65,"x_max":977,"o":"m 65 0 l 65 1010 l 339 1010 l 339 627 l 703 627 l 703 1010 l 977 1010 l 977 0 l 703 0 l 703 406 l 339 406 l 339 0 l 65 0 z "},"Ή":{"ha":1362,"x_min":38,"x_max":1297,"o":"m 385 0 l 385 1010 l 659 1010 l 659 627 l 1023 627 l 1023 1010 l 1297 1010 l 1297 0 l 1023 0 l 1023 406 l 659 406 l 659 0 l 385 0 m 38 789 l 60 1010 l 288 1010 l 190 789 l 38 789 z "},"Ἠ":{"ha":1326,"x_min":38,"x_max":1261,"o":"m 349 0 l 349 1010 l 623 1010 l 623 627 l 987 627 l 987 1010 l 1261 1010 l 1261 0 l 987 0 l 987 406 l 623 406 l 623 0 l 349 0 m 73 780 l 64 780 l 64 841 l 73 841 q 147 880 147 841 q 82 916 147 916 l 38 916 l 38 1026 l 73 1026 q 217 993 167 1026 q 267 901 267 960 q 216 810 267 841 q 73 780 165 780 z "},"Ἡ":{"ha":1348,"x_min":38,"x_max":1282,"o":"m 371 0 l 371 1010 l 645 1010 l 645 627 l 1008 627 l 1008 1010 l 1282 1010 l 1282 0 l 1008 0 l 1008 406 l 645 406 l 645 0 l 371 0 m 233 769 q 89 800 140 769 q 38 890 38 830 q 88 982 38 949 q 233 1015 138 1015 l 267 1015 l 267 905 l 223 905 q 158 869 158 905 q 233 830 158 830 l 241 830 l 241 769 l 233 769 z "},"Ἢ":{"ha":1624,"x_min":38,"x_max":1559,"o":"m 648 0 l 648 1010 l 922 1010 l 922 627 l 1285 627 l 1285 1010 l 1559 1010 l 1559 0 l 1285 0 l 1285 406 l 922 406 l 922 0 l 648 0 m 73 769 l 64 769 l 64 830 l 73 830 q 147 869 147 830 q 82 905 147 905 l 38 905 l 38 1015 l 73 1015 q 217 982 167 1015 q 267 890 267 949 q 216 800 267 830 q 73 769 165 769 m 509 781 l 377 781 l 293 1010 l 490 1010 l 509 781 z "},"Ἣ":{"ha":1657,"x_min":38,"x_max":1592,"o":"m 680 0 l 680 1010 l 954 1010 l 954 627 l 1318 627 l 1318 1010 l 1592 1010 l 1592 0 l 1318 0 l 1318 406 l 954 406 l 954 0 l 680 0 m 233 769 q 89 800 140 769 q 38 890 38 830 q 88 982 38 949 q 233 1015 138 1015 l 267 1015 l 267 905 l 223 905 q 158 869 158 905 q 233 830 158 830 l 241 830 l 241 769 l 233 769 m 531 781 l 399 781 l 315 1010 l 512 1010 l 531 781 z "},"Ἤ":{"ha":1635,"x_min":38,"x_max":1570,"o":"m 659 0 l 659 1010 l 932 1010 l 932 627 l 1296 627 l 1296 1010 l 1570 1010 l 1570 0 l 1296 0 l 1296 406 l 932 406 l 932 0 l 659 0 m 73 769 l 64 769 l 64 830 l 73 830 q 147 869 147 830 q 82 905 147 905 l 38 905 l 38 1015 l 73 1015 q 217 982 167 1015 q 267 890 267 949 q 216 800 267 830 q 73 769 165 769 m 355 781 l 373 1010 l 570 1010 l 486 781 l 355 781 z "},"Ἥ":{"ha":1668,"x_min":38,"x_max":1603,"o":"m 691 0 l 691 1010 l 965 1010 l 965 627 l 1329 627 l 1329 1010 l 1603 1010 l 1603 0 l 1329 0 l 1329 406 l 965 406 l 965 0 l 691 0 m 233 769 q 89 800 140 769 q 38 890 38 830 q 88 982 38 949 q 233 1015 138 1015 l 267 1015 l 267 905 l 223 905 q 158 869 158 905 q 233 830 158 830 l 241 830 l 241 769 l 233 769 m 376 781 l 395 1010 l 592 1010 l 507 781 l 376 781 z "},"Ἦ":{"ha":1482,"x_min":38,"x_max":1417,"o":"m 505 0 l 505 1010 l 779 1010 l 779 627 l 1143 627 l 1143 1010 l 1417 1010 l 1417 0 l 1143 0 l 1143 406 l 779 406 l 779 0 l 505 0 m 407 1089 q 324 1107 355 1089 q 271 1144 293 1126 q 224 1162 249 1162 q 172 1095 176 1162 l 38 1095 q 88 1237 40 1190 q 206 1284 136 1284 q 289 1267 257 1284 q 343 1231 321 1249 q 389 1213 366 1213 q 430 1231 418 1213 q 442 1281 441 1249 l 575 1281 q 525 1138 574 1187 q 407 1089 476 1089 m 227 786 l 218 786 l 218 847 l 227 847 q 301 886 301 847 q 236 922 301 922 l 192 922 l 192 1032 l 227 1032 q 371 999 321 1032 q 421 907 421 966 q 370 817 421 847 q 227 786 319 786 z "},"Ἧ":{"ha":1512,"x_min":38,"x_max":1447,"o":"m 535 0 l 535 1010 l 809 1010 l 809 627 l 1173 627 l 1173 1010 l 1447 1010 l 1447 0 l 1173 0 l 1173 406 l 809 406 l 809 0 l 535 0 m 407 1067 q 324 1086 355 1067 q 271 1122 293 1104 q 224 1141 249 1141 q 172 1073 176 1141 l 38 1073 q 88 1216 40 1168 q 206 1263 136 1263 q 289 1245 257 1263 q 343 1210 321 1227 q 389 1192 366 1192 q 430 1210 418 1192 q 442 1259 441 1227 l 575 1259 q 525 1116 574 1165 q 407 1067 476 1067 m 387 764 q 243 795 294 764 q 192 885 192 825 q 242 977 192 944 q 387 1010 292 1010 l 421 1010 l 421 901 l 377 901 q 312 864 312 901 q 387 825 312 825 l 395 825 l 395 764 l 387 764 z "},"Ὴ":{"ha":1347,"x_min":-57,"x_max":1282,"o":"m 370 0 l 370 1010 l 644 1010 l 644 627 l 1008 627 l 1008 1010 l 1282 1010 l 1282 0 l 1008 0 l 1008 406 l 644 406 l 644 0 l 370 0 m 193 840 l 41 840 l -57 1061 l 171 1061 l 193 840 z "},"Ή":{"ha":1362,"x_min":38,"x_max":1297,"o":"m 385 0 l 385 1010 l 659 1010 l 659 627 l 1023 627 l 1023 1010 l 1297 1010 l 1297 0 l 1023 0 l 1023 406 l 659 406 l 659 0 l 385 0 m 38 789 l 60 1010 l 288 1010 l 190 789 l 38 789 z "},"Н":{"ha":1042,"x_min":65,"x_max":977,"o":"m 65 0 l 65 1010 l 339 1010 l 339 627 l 703 627 l 703 1010 l 977 1010 l 977 0 l 703 0 l 703 406 l 339 406 l 339 0 l 65 0 z "},"ᾘ":{"ha":1326,"x_min":38,"x_max":1261,"o":"m 349 0 l 349 1010 l 623 1010 l 623 627 l 987 627 l 987 1010 l 1261 1010 l 1261 0 l 987 0 l 987 406 l 623 406 l 623 0 l 349 0 m 851 -335 q 744 -301 776 -335 q 713 -208 713 -267 l 713 -80 l 897 -80 l 897 -197 q 903 -221 897 -214 q 937 -228 908 -228 q 945 -228 937 -228 q 968 -227 953 -227 l 968 -326 q 911 -332 947 -329 q 851 -335 876 -335 m 73 780 l 64 780 l 64 841 l 73 841 q 147 880 147 841 q 82 916 147 916 l 38 916 l 38 1026 l 73 1026 q 217 993 167 1026 q 267 901 267 960 q 216 810 267 841 q 73 780 165 780 z "},"ᾙ":{"ha":1348,"x_min":38,"x_max":1282,"o":"m 371 0 l 371 1010 l 645 1010 l 645 627 l 1008 627 l 1008 1010 l 1282 1010 l 1282 0 l 1008 0 l 1008 406 l 645 406 l 645 0 l 371 0 m 873 -335 q 766 -301 798 -335 q 734 -208 734 -267 l 734 -80 l 919 -80 l 919 -197 q 924 -221 919 -214 q 958 -228 930 -228 q 966 -228 958 -228 q 989 -227 975 -227 l 989 -326 q 933 -332 968 -329 q 873 -335 898 -335 m 233 769 q 89 800 140 769 q 38 890 38 830 q 88 982 38 949 q 233 1015 138 1015 l 267 1015 l 267 905 l 223 905 q 158 869 158 905 q 233 830 158 830 l 241 830 l 241 769 l 233 769 z "},"ᾚ":{"ha":1624,"x_min":38,"x_max":1559,"o":"m 648 0 l 648 1010 l 922 1010 l 922 627 l 1285 627 l 1285 1010 l 1559 1010 l 1559 0 l 1285 0 l 1285 406 l 922 406 l 922 0 l 648 0 m 1149 -335 q 1043 -301 1074 -335 q 1011 -208 1011 -267 l 1011 -80 l 1196 -80 l 1196 -197 q 1201 -221 1196 -214 q 1235 -228 1206 -228 q 1243 -228 1235 -228 q 1266 -227 1251 -227 l 1266 -326 q 1210 -332 1245 -329 q 1149 -335 1175 -335 m 73 769 l 64 769 l 64 830 l 73 830 q 147 869 147 830 q 82 905 147 905 l 38 905 l 38 1015 l 73 1015 q 217 982 167 1015 q 267 890 267 949 q 216 800 267 830 q 73 769 165 769 m 509 781 l 377 781 l 293 1010 l 490 1010 l 509 781 z "},"ᾛ":{"ha":1657,"x_min":38,"x_max":1592,"o":"m 680 0 l 680 1010 l 954 1010 l 954 627 l 1318 627 l 1318 1010 l 1592 1010 l 1592 0 l 1318 0 l 1318 406 l 954 406 l 954 0 l 680 0 m 1182 -335 q 1075 -301 1107 -335 q 1044 -208 1044 -267 l 1044 -80 l 1228 -80 l 1228 -197 q 1234 -221 1228 -214 q 1267 -228 1239 -228 q 1276 -228 1267 -228 q 1299 -227 1284 -227 l 1299 -326 q 1242 -332 1278 -329 q 1182 -335 1207 -335 m 233 769 q 89 800 140 769 q 38 890 38 830 q 88 982 38 949 q 233 1015 138 1015 l 267 1015 l 267 905 l 223 905 q 158 869 158 905 q 233 830 158 830 l 241 830 l 241 769 l 233 769 m 531 781 l 399 781 l 315 1010 l 512 1010 l 531 781 z "},"ᾜ":{"ha":1635,"x_min":38,"x_max":1570,"o":"m 659 0 l 659 1010 l 932 1010 l 932 627 l 1296 627 l 1296 1010 l 1570 1010 l 1570 0 l 1296 0 l 1296 406 l 932 406 l 932 0 l 659 0 m 1160 -335 q 1054 -301 1085 -335 q 1022 -208 1022 -267 l 1022 -80 l 1206 -80 l 1206 -197 q 1212 -221 1206 -214 q 1246 -228 1217 -228 q 1254 -228 1246 -228 q 1277 -227 1262 -227 l 1277 -326 q 1221 -332 1256 -329 q 1160 -335 1185 -335 m 73 769 l 64 769 l 64 830 l 73 830 q 147 869 147 830 q 82 905 147 905 l 38 905 l 38 1015 l 73 1015 q 217 982 167 1015 q 267 890 267 949 q 216 800 267 830 q 73 769 165 769 m 355 781 l 373 1010 l 570 1010 l 486 781 l 355 781 z "},"ᾝ":{"ha":1668,"x_min":38,"x_max":1603,"o":"m 691 0 l 691 1010 l 965 1010 l 965 627 l 1329 627 l 1329 1010 l 1603 1010 l 1603 0 l 1329 0 l 1329 406 l 965 406 l 965 0 l 691 0 m 1193 -335 q 1086 -301 1118 -335 q 1055 -208 1055 -267 l 1055 -80 l 1239 -80 l 1239 -197 q 1244 -221 1239 -214 q 1278 -228 1250 -228 q 1286 -228 1278 -228 q 1310 -227 1295 -227 l 1310 -326 q 1253 -332 1289 -329 q 1193 -335 1218 -335 m 233 769 q 89 800 140 769 q 38 890 38 830 q 88 982 38 949 q 233 1015 138 1015 l 267 1015 l 267 905 l 223 905 q 158 869 158 905 q 233 830 158 830 l 241 830 l 241 769 l 233 769 m 376 781 l 395 1010 l 592 1010 l 507 781 l 376 781 z "},"ᾞ":{"ha":1482,"x_min":38,"x_max":1417,"o":"m 505 0 l 505 1010 l 779 1010 l 779 627 l 1143 627 l 1143 1010 l 1417 1010 l 1417 0 l 1143 0 l 1143 406 l 779 406 l 779 0 l 505 0 m 1007 -335 q 900 -301 932 -335 q 869 -208 869 -267 l 869 -80 l 1053 -80 l 1053 -197 q 1059 -221 1053 -214 q 1093 -228 1064 -228 q 1101 -228 1093 -228 q 1124 -227 1109 -227 l 1124 -326 q 1067 -332 1103 -329 q 1007 -335 1032 -335 m 407 1089 q 324 1107 355 1089 q 271 1144 293 1126 q 224 1162 249 1162 q 172 1095 176 1162 l 38 1095 q 88 1237 40 1190 q 206 1284 136 1284 q 289 1267 257 1284 q 343 1231 321 1249 q 389 1213 366 1213 q 430 1231 418 1213 q 442 1281 441 1249 l 575 1281 q 525 1138 574 1187 q 407 1089 476 1089 m 227 786 l 218 786 l 218 847 l 227 847 q 301 886 301 847 q 236 922 301 922 l 192 922 l 192 1032 l 227 1032 q 371 999 321 1032 q 421 907 421 966 q 370 817 421 847 q 227 786 319 786 z "},"ᾟ":{"ha":1512,"x_min":38,"x_max":1447,"o":"m 535 0 l 535 1010 l 809 1010 l 809 627 l 1173 627 l 1173 1010 l 1447 1010 l 1447 0 l 1173 0 l 1173 406 l 809 406 l 809 0 l 535 0 m 1037 -335 q 930 -301 962 -335 q 899 -208 899 -267 l 899 -80 l 1083 -80 l 1083 -197 q 1088 -221 1083 -214 q 1122 -228 1094 -228 q 1131 -228 1122 -228 q 1154 -227 1139 -227 l 1154 -326 q 1097 -332 1133 -329 q 1037 -335 1062 -335 m 407 1067 q 324 1086 355 1067 q 271 1122 293 1104 q 224 1141 249 1141 q 172 1073 176 1141 l 38 1073 q 88 1216 40 1168 q 206 1263 136 1263 q 289 1245 257 1263 q 343 1210 321 1227 q 389 1192 366 1192 q 430 1210 418 1192 q 442 1259 441 1227 l 575 1259 q 525 1116 574 1165 q 407 1067 476 1067 m 387 764 q 243 795 294 764 q 192 885 192 825 q 242 977 192 944 q 387 1010 292 1010 l 421 1010 l 421 901 l 377 901 q 312 864 312 901 q 387 825 312 825 l 395 825 l 395 764 l 387 764 z "},"ῌ":{"ha":1042,"x_min":65,"x_max":977,"o":"m 65 0 l 65 1010 l 339 1010 l 339 627 l 703 627 l 703 1010 l 977 1010 l 977 0 l 703 0 l 703 406 l 339 406 l 339 0 l 65 0 m 567 -335 q 460 -301 492 -335 q 429 -208 429 -267 l 429 -80 l 613 -80 l 613 -197 q 618 -221 613 -214 q 652 -228 624 -228 q 661 -228 652 -228 q 684 -227 669 -227 l 684 -326 q 627 -332 663 -329 q 567 -335 592 -335 z "},"I":{"ha":404,"x_min":65,"x_max":339,"o":"m 339 1010 l 339 0 l 65 0 l 65 1010 l 339 1010 z "},"":{"ha":808,"x_min":65,"x_max":743,"o":"m 339 1010 l 339 0 l 65 0 l 65 1010 l 339 1010 m 743 1010 l 743 0 l 469 0 l 469 1010 l 743 1010 z "},"Ï":{"ha":404,"x_min":-73,"x_max":479,"o":"m 339 1010 l 339 0 l 65 0 l 65 1010 l 339 1010 m 47 1098 q -38 1132 -3 1098 q -73 1213 -73 1165 q -38 1294 -73 1260 q 47 1327 -3 1327 q 131 1294 96 1327 q 166 1213 166 1260 q 131 1132 166 1165 q 47 1098 96 1098 m 360 1098 q 276 1132 311 1098 q 241 1213 241 1165 q 276 1294 241 1260 q 360 1327 311 1327 q 445 1294 410 1327 q 479 1213 479 1260 q 445 1132 479 1165 q 360 1098 410 1098 z "},"Ḯ":{"ha":404,"x_min":-73,"x_max":479,"o":"m 339 1010 l 339 0 l 65 0 l 65 1010 l 339 1010 m 47 1082 q -38 1115 -3 1082 q -73 1196 -73 1149 q -38 1277 -73 1244 q 47 1311 -3 1311 q 131 1277 96 1311 q 166 1196 166 1244 q 131 1115 166 1149 q 47 1082 96 1082 m 360 1082 q 276 1115 311 1082 q 241 1196 241 1149 q 276 1277 241 1244 q 360 1311 311 1311 q 445 1277 410 1311 q 479 1196 479 1244 q 445 1115 479 1149 q 360 1082 410 1082 m 127 1359 l 201 1536 l 389 1536 l 270 1359 l 127 1359 z "},"Ɨ":{"ha":540,"x_min":3,"x_max":534,"o":"m 407 1010 l 407 0 l 133 0 l 133 1010 l 407 1010 m 3 496 l 3 572 l 534 572 l 534 496 l 3 496 z "},"Ḭ":{"ha":404,"x_min":-68,"x_max":469,"o":"m 339 1010 l 339 0 l 65 0 l 65 1010 l 339 1010 m 301 -311 q 236 -298 262 -311 q 190 -270 209 -286 q 154 -241 170 -254 q 118 -229 137 -229 q 66 -305 70 -229 l -68 -305 q -18 -146 -66 -198 q 100 -94 31 -94 q 183 -114 151 -94 q 238 -153 215 -134 q 283 -173 260 -173 q 324 -153 312 -173 q 336 -98 336 -133 l 469 -98 q 419 -256 468 -202 q 301 -311 370 -311 z "},"Ì":{"ha":404,"x_min":-33,"x_max":339,"o":"m 339 1010 l 339 0 l 65 0 l 65 1010 l 339 1010 m 115 1104 l -33 1325 l 201 1325 l 294 1104 l 115 1104 z "},"Í":{"ha":404,"x_min":65,"x_max":439,"o":"m 339 1010 l 339 0 l 65 0 l 65 1010 l 339 1010 m 113 1104 l 206 1325 l 439 1325 l 292 1104 l 113 1104 z "},"Î":{"ha":404,"x_min":-118,"x_max":525,"o":"m 339 1010 l 339 0 l 65 0 l 65 1010 l 339 1010 m 107 1104 l -118 1104 l -118 1108 l 109 1325 l 298 1325 l 525 1108 l 525 1104 l 300 1104 l 203 1217 l 107 1104 z "},"Ĩ":{"ha":404,"x_min":-65,"x_max":472,"o":"m 339 1010 l 339 0 l 65 0 l 65 1010 l 339 1010 m 304 1104 q 238 1116 265 1104 q 192 1145 212 1128 q 156 1173 173 1161 q 121 1185 140 1185 q 69 1109 73 1185 l -65 1109 q -15 1269 -63 1217 q 103 1321 33 1321 q 186 1301 154 1321 q 240 1261 218 1281 q 286 1242 263 1242 q 327 1262 315 1242 q 339 1317 338 1282 l 472 1317 q 422 1158 471 1213 q 304 1104 373 1104 z "},"Ī":{"ha":404,"x_min":0,"x_max":407,"o":"m 339 1010 l 339 0 l 65 0 l 65 1010 l 339 1010 m 407 1291 l 407 1134 l 0 1134 l 0 1291 l 407 1291 z "},"Ĭ":{"ha":404,"x_min":-62,"x_max":469,"o":"m 339 1010 l 339 0 l 65 0 l 65 1010 l 339 1010 m 203 1093 q 67 1123 127 1093 q -27 1205 7 1154 q -62 1320 -62 1257 l 81 1320 q 117 1253 81 1280 q 203 1225 152 1225 q 289 1253 254 1225 q 324 1320 324 1280 l 469 1320 q 434 1205 469 1257 q 339 1123 399 1154 q 203 1093 279 1093 z "},"Į":{"ha":404,"x_min":7,"x_max":363,"o":"m 339 1010 l 339 0 l 65 0 l 65 1010 l 339 1010 m 203 -289 q 60 -248 113 -289 q 7 -136 7 -208 q 29 -47 7 -88 q 84 18 51 -7 l 339 0 q 254 -44 277 -19 q 231 -98 231 -68 q 273 -145 231 -145 q 317 -132 295 -145 l 363 -254 q 290 -280 334 -271 q 203 -289 245 -289 z "},"İ":{"ha":404,"x_min":65,"x_max":339,"o":"m 339 1010 l 339 0 l 65 0 l 65 1010 l 339 1010 m 203 1088 q 109 1124 148 1088 q 69 1213 69 1161 q 109 1301 69 1265 q 203 1337 148 1337 q 298 1301 259 1337 q 338 1213 338 1265 q 298 1124 338 1161 q 203 1088 259 1088 z "},"Ǐ":{"ha":404,"x_min":-118,"x_max":525,"o":"m 339 1010 l 339 0 l 65 0 l 65 1010 l 339 1010 m 107 1325 l 203 1213 l 300 1325 l 525 1325 l 525 1321 l 298 1104 l 109 1104 l -118 1321 l -118 1325 l 107 1325 z "},"Ȉ":{"ha":404,"x_min":-187,"x_max":418,"o":"m 339 1010 l 339 0 l 65 0 l 65 1010 l 339 1010 m -12 1104 l -187 1325 l 57 1325 l 172 1104 l -12 1104 m 239 1104 l 130 1325 l 351 1325 l 418 1104 l 239 1104 z "},"Ȋ":{"ha":404,"x_min":-62,"x_max":469,"o":"m 339 1010 l 339 0 l 65 0 l 65 1010 l 339 1010 m 203 1331 q 339 1300 279 1331 q 434 1219 399 1270 q 469 1104 469 1168 l 324 1104 q 289 1171 324 1144 q 203 1198 254 1198 q 117 1171 152 1198 q 81 1104 81 1144 l -62 1104 q -27 1219 -62 1168 q 67 1300 7 1270 q 203 1331 127 1331 z "},"Ỉ":{"ha":404,"x_min":58,"x_max":349,"o":"m 339 1010 l 339 0 l 65 0 l 65 1010 l 339 1010 m 271 1104 l 125 1104 l 181 1196 q 178 1201 184 1201 l 58 1201 l 58 1325 l 178 1325 q 286 1307 248 1325 q 336 1261 324 1289 q 340 1203 349 1234 q 310 1147 332 1173 l 271 1104 z "},"Ị":{"ha":404,"x_min":65,"x_max":339,"o":"m 339 1010 l 339 0 l 65 0 l 65 1010 l 339 1010 m 201 -327 q 106 -290 145 -327 q 66 -202 66 -254 q 106 -114 66 -150 q 201 -77 145 -77 q 296 -114 256 -77 q 335 -202 335 -150 q 296 -290 335 -254 q 201 -327 256 -327 z "},"Ɩ":{"ha":469,"x_min":69,"x_max":465,"o":"m 342 -4 q 134 50 199 -4 q 69 221 69 104 l 69 1010 l 342 1010 l 342 247 q 392 199 342 199 q 426 203 417 199 l 465 16 q 417 3 449 10 q 342 -4 386 -4 z "},"Ι":{"ha":404,"x_min":65,"x_max":339,"o":"m 339 1010 l 339 0 l 65 0 l 65 1010 l 339 1010 z "},"Ί":{"ha":724,"x_min":38,"x_max":659,"o":"m 659 1010 l 659 0 l 385 0 l 385 1010 l 659 1010 m 38 789 l 60 1010 l 288 1010 l 190 789 l 38 789 z "},"Ϊ":{"ha":404,"x_min":-73,"x_max":479,"o":"m 339 1010 l 339 0 l 65 0 l 65 1010 l 339 1010 m 47 1098 q -38 1132 -3 1098 q -73 1213 -73 1165 q -38 1294 -73 1260 q 47 1327 -3 1327 q 131 1294 96 1327 q 166 1213 166 1260 q 131 1132 166 1165 q 47 1098 96 1098 m 360 1098 q 276 1132 311 1098 q 241 1213 241 1165 q 276 1294 241 1260 q 360 1327 311 1327 q 445 1294 410 1327 q 479 1213 479 1260 q 445 1132 479 1165 q 360 1098 410 1098 z "},"Ἰ":{"ha":688,"x_min":38,"x_max":623,"o":"m 623 1010 l 623 0 l 349 0 l 349 1010 l 623 1010 m 73 780 l 64 780 l 64 841 l 73 841 q 147 880 147 841 q 82 916 147 916 l 38 916 l 38 1026 l 73 1026 q 217 993 167 1026 q 267 901 267 960 q 216 810 267 841 q 73 780 165 780 z "},"Ἱ":{"ha":710,"x_min":38,"x_max":645,"o":"m 645 1010 l 645 0 l 371 0 l 371 1010 l 645 1010 m 233 769 q 89 800 140 769 q 38 890 38 830 q 88 982 38 949 q 233 1015 138 1015 l 267 1015 l 267 905 l 223 905 q 158 869 158 905 q 233 830 158 830 l 241 830 l 241 769 l 233 769 z "},"Ἲ":{"ha":987,"x_min":38,"x_max":922,"o":"m 922 1010 l 922 0 l 648 0 l 648 1010 l 922 1010 m 73 769 l 64 769 l 64 830 l 73 830 q 147 869 147 830 q 82 905 147 905 l 38 905 l 38 1015 l 73 1015 q 217 982 167 1015 q 267 890 267 949 q 216 800 267 830 q 73 769 165 769 m 509 781 l 377 781 l 293 1010 l 490 1010 l 509 781 z "},"Ἳ":{"ha":1019,"x_min":38,"x_max":954,"o":"m 954 1010 l 954 0 l 680 0 l 680 1010 l 954 1010 m 233 769 q 89 800 140 769 q 38 890 38 830 q 88 982 38 949 q 233 1015 138 1015 l 267 1015 l 267 905 l 223 905 q 158 869 158 905 q 233 830 158 830 l 241 830 l 241 769 l 233 769 m 531 781 l 399 781 l 315 1010 l 512 1010 l 531 781 z "},"Ἴ":{"ha":998,"x_min":38,"x_max":932,"o":"m 932 1010 l 932 0 l 659 0 l 659 1010 l 932 1010 m 73 769 l 64 769 l 64 830 l 73 830 q 147 869 147 830 q 82 905 147 905 l 38 905 l 38 1015 l 73 1015 q 217 982 167 1015 q 267 890 267 949 q 216 800 267 830 q 73 769 165 769 m 355 781 l 373 1010 l 570 1010 l 486 781 l 355 781 z "},"Ἵ":{"ha":1030,"x_min":38,"x_max":965,"o":"m 965 1010 l 965 0 l 691 0 l 691 1010 l 965 1010 m 233 769 q 89 800 140 769 q 38 890 38 830 q 88 982 38 949 q 233 1015 138 1015 l 267 1015 l 267 905 l 223 905 q 158 869 158 905 q 233 830 158 830 l 241 830 l 241 769 l 233 769 m 376 781 l 395 1010 l 592 1010 l 507 781 l 376 781 z "},"Ἶ":{"ha":844,"x_min":38,"x_max":779,"o":"m 779 1010 l 779 0 l 505 0 l 505 1010 l 779 1010 m 407 1089 q 324 1107 355 1089 q 271 1144 293 1126 q 224 1162 249 1162 q 172 1095 176 1162 l 38 1095 q 88 1237 40 1190 q 206 1284 136 1284 q 289 1267 257 1284 q 343 1231 321 1249 q 389 1213 366 1213 q 430 1231 418 1213 q 442 1281 441 1249 l 575 1281 q 525 1138 574 1187 q 407 1089 476 1089 m 227 786 l 218 786 l 218 847 l 227 847 q 301 886 301 847 q 236 922 301 922 l 192 922 l 192 1032 l 227 1032 q 371 999 321 1032 q 421 907 421 966 q 370 817 421 847 q 227 786 319 786 z "},"Ἷ":{"ha":874,"x_min":38,"x_max":809,"o":"m 809 1010 l 809 0 l 535 0 l 535 1010 l 809 1010 m 407 1067 q 324 1086 355 1067 q 271 1122 293 1104 q 224 1141 249 1141 q 172 1073 176 1141 l 38 1073 q 88 1216 40 1168 q 206 1263 136 1263 q 289 1245 257 1263 q 343 1210 321 1227 q 389 1192 366 1192 q 430 1210 418 1192 q 442 1259 441 1227 l 575 1259 q 525 1116 574 1165 q 407 1067 476 1067 m 387 764 q 243 795 294 764 q 192 885 192 825 q 242 977 192 944 q 387 1010 292 1010 l 421 1010 l 421 901 l 377 901 q 312 864 312 901 q 387 825 312 825 l 395 825 l 395 764 l 387 764 z "},"Ῐ":{"ha":404,"x_min":-62,"x_max":469,"o":"m 339 1010 l 339 0 l 65 0 l 65 1010 l 339 1010 m 203 1093 q 67 1123 127 1093 q -27 1205 7 1154 q -62 1320 -62 1257 l 81 1320 q 117 1253 81 1280 q 203 1225 152 1225 q 289 1253 254 1225 q 324 1320 324 1280 l 469 1320 q 434 1205 469 1257 q 339 1123 399 1154 q 203 1093 279 1093 z "},"Ῑ":{"ha":404,"x_min":0,"x_max":407,"o":"m 339 1010 l 339 0 l 65 0 l 65 1010 l 339 1010 m 407 1291 l 407 1134 l 0 1134 l 0 1291 l 407 1291 z "},"Ὶ":{"ha":709,"x_min":-57,"x_max":644,"o":"m 644 1010 l 644 0 l 370 0 l 370 1010 l 644 1010 m 193 840 l 41 840 l -57 1061 l 171 1061 l 193 840 z "},"Ί":{"ha":724,"x_min":38,"x_max":659,"o":"m 659 1010 l 659 0 l 385 0 l 385 1010 l 659 1010 m 38 789 l 60 1010 l 288 1010 l 190 789 l 38 789 z "},"І":{"ha":404,"x_min":65,"x_max":339,"o":"m 339 1010 l 339 0 l 65 0 l 65 1010 l 339 1010 z "},"Ї":{"ha":404,"x_min":-73,"x_max":479,"o":"m 339 1010 l 339 0 l 65 0 l 65 1010 l 339 1010 m 47 1098 q -38 1132 -3 1098 q -73 1213 -73 1165 q -38 1294 -73 1260 q 47 1327 -3 1327 q 131 1294 96 1327 q 166 1213 166 1260 q 131 1132 166 1165 q 47 1098 96 1098 m 360 1098 q 276 1132 311 1098 q 241 1213 241 1165 q 276 1294 241 1260 q 360 1327 311 1327 q 445 1294 410 1327 q 479 1213 479 1260 q 445 1132 479 1165 q 360 1098 410 1098 z "},"":{"ha":704,"x_min":39,"x_max":665,"o":"m 39 0 l 39 221 l 215 221 l 215 789 l 39 789 l 39 1010 l 665 1010 l 665 789 l 489 789 l 489 221 l 665 221 l 665 0 l 39 0 z "},"":{"ha":704,"x_min":39,"x_max":665,"o":"m 39 0 l 39 221 l 215 221 l 215 789 l 39 789 l 39 1010 l 665 1010 l 665 789 l 489 789 l 489 221 l 665 221 l 665 0 l 39 0 m 195 1098 q 111 1132 146 1098 q 76 1213 76 1165 q 111 1294 76 1260 q 195 1327 146 1327 q 280 1294 245 1327 q 315 1213 315 1260 q 280 1132 315 1165 q 195 1098 245 1098 m 509 1098 q 424 1132 459 1098 q 389 1213 389 1165 q 424 1294 389 1260 q 509 1327 459 1327 q 593 1294 558 1327 q 628 1213 628 1260 q 593 1132 628 1165 q 509 1098 558 1098 z "},"":{"ha":704,"x_min":39,"x_max":665,"o":"m 39 0 l 39 221 l 215 221 l 215 789 l 39 789 l 39 1010 l 665 1010 l 665 789 l 489 789 l 489 221 l 665 221 l 665 0 l 39 0 m 195 1082 q 111 1115 146 1082 q 76 1196 76 1149 q 111 1277 76 1244 q 195 1311 146 1311 q 280 1277 245 1311 q 315 1196 315 1244 q 280 1115 315 1149 q 195 1082 245 1082 m 509 1082 q 424 1115 459 1082 q 389 1196 389 1149 q 424 1277 389 1244 q 509 1311 459 1311 q 593 1277 558 1311 q 628 1196 628 1244 q 593 1115 628 1149 q 509 1082 558 1082 m 275 1359 l 350 1536 l 537 1536 l 418 1359 l 275 1359 z "},"":{"ha":704,"x_min":39,"x_max":665,"o":"m 39 0 l 39 221 l 215 221 l 215 789 l 39 789 l 39 1010 l 665 1010 l 665 789 l 489 789 l 489 221 l 665 221 l 665 0 l 39 0 m 85 496 l 85 572 l 616 572 l 616 496 l 85 496 z "},"":{"ha":704,"x_min":39,"x_max":665,"o":"m 39 0 l 39 221 l 215 221 l 215 789 l 39 789 l 39 1010 l 665 1010 l 665 789 l 489 789 l 489 221 l 665 221 l 665 0 l 39 0 m 452 -311 q 387 -298 414 -311 q 341 -270 360 -286 q 305 -241 321 -254 q 269 -229 288 -229 q 218 -305 221 -229 l 83 -305 q 134 -146 85 -198 q 252 -94 182 -94 q 334 -114 302 -94 q 389 -153 366 -134 q 435 -173 412 -173 q 475 -153 463 -173 q 488 -98 487 -133 l 621 -98 q 570 -256 619 -202 q 452 -311 522 -311 z "},"":{"ha":704,"x_min":39,"x_max":665,"o":"m 39 0 l 39 221 l 215 221 l 215 789 l 39 789 l 39 1010 l 665 1010 l 665 789 l 489 789 l 489 221 l 665 221 l 665 0 l 39 0 m 264 1104 l 116 1325 l 349 1325 l 443 1104 l 264 1104 z "},"":{"ha":704,"x_min":39,"x_max":665,"o":"m 39 0 l 39 221 l 215 221 l 215 789 l 39 789 l 39 1010 l 665 1010 l 665 789 l 489 789 l 489 221 l 665 221 l 665 0 l 39 0 m 261 1104 l 355 1325 l 588 1325 l 440 1104 l 261 1104 z "},"":{"ha":704,"x_min":31,"x_max":673,"o":"m 39 0 l 39 221 l 215 221 l 215 789 l 39 789 l 39 1010 l 665 1010 l 665 789 l 489 789 l 489 221 l 665 221 l 665 0 l 39 0 m 256 1104 l 31 1104 l 31 1108 l 257 1325 l 447 1325 l 673 1108 l 673 1104 l 448 1104 l 352 1217 l 256 1104 z "},"":{"ha":704,"x_min":39,"x_max":665,"o":"m 39 0 l 39 221 l 215 221 l 215 789 l 39 789 l 39 1010 l 665 1010 l 665 789 l 489 789 l 489 221 l 665 221 l 665 0 l 39 0 m 452 1104 q 387 1116 414 1104 q 341 1145 360 1128 q 305 1173 321 1161 q 269 1185 288 1185 q 218 1109 221 1185 l 83 1109 q 134 1269 85 1217 q 252 1321 182 1321 q 334 1301 302 1321 q 389 1261 366 1281 q 435 1242 412 1242 q 475 1262 463 1242 q 488 1317 487 1282 l 621 1317 q 570 1158 619 1213 q 452 1104 522 1104 z "},"":{"ha":704,"x_min":39,"x_max":665,"o":"m 39 0 l 39 221 l 215 221 l 215 789 l 39 789 l 39 1010 l 665 1010 l 665 789 l 489 789 l 489 221 l 665 221 l 665 0 l 39 0 m 555 1291 l 555 1134 l 149 1134 l 149 1291 l 555 1291 z "},"":{"ha":704,"x_min":39,"x_max":665,"o":"m 39 0 l 39 221 l 215 221 l 215 789 l 39 789 l 39 1010 l 665 1010 l 665 789 l 489 789 l 489 221 l 665 221 l 665 0 l 39 0 m 352 1093 q 216 1123 276 1093 q 121 1205 156 1154 q 86 1320 86 1257 l 230 1320 q 265 1253 230 1280 q 352 1225 300 1225 q 438 1253 403 1225 q 473 1320 473 1280 l 618 1320 q 583 1205 618 1257 q 488 1123 548 1154 q 352 1093 428 1093 z "},"":{"ha":704,"x_min":39,"x_max":689,"o":"m 39 0 l 39 221 l 215 221 l 215 789 l 39 789 l 39 1010 l 665 1010 l 665 789 l 489 789 l 489 221 l 665 221 l 665 0 l 39 0 m 528 -289 q 386 -248 438 -289 q 333 -136 333 -208 q 355 -47 333 -88 q 410 18 376 -7 l 665 0 q 579 -44 603 -19 q 556 -98 556 -68 q 599 -145 556 -145 q 642 -132 621 -145 l 689 -254 q 615 -280 660 -271 q 528 -289 570 -289 z "},"":{"ha":704,"x_min":39,"x_max":665,"o":"m 39 0 l 39 221 l 215 221 l 215 789 l 39 789 l 39 1010 l 665 1010 l 665 789 l 489 789 l 489 221 l 665 221 l 665 0 l 39 0 m 352 1088 q 257 1124 296 1088 q 218 1213 218 1161 q 257 1301 218 1265 q 352 1337 296 1337 q 447 1301 408 1337 q 486 1213 486 1265 q 447 1124 486 1161 q 352 1088 408 1088 z "},"":{"ha":704,"x_min":31,"x_max":673,"o":"m 39 0 l 39 221 l 215 221 l 215 789 l 39 789 l 39 1010 l 665 1010 l 665 789 l 489 789 l 489 221 l 665 221 l 665 0 l 39 0 m 256 1325 l 352 1213 l 448 1325 l 673 1325 l 673 1321 l 447 1104 l 257 1104 l 31 1321 l 31 1325 l 256 1325 z "},"":{"ha":704,"x_min":-39,"x_max":665,"o":"m 39 0 l 39 221 l 215 221 l 215 789 l 39 789 l 39 1010 l 665 1010 l 665 789 l 489 789 l 489 221 l 665 221 l 665 0 l 39 0 m 136 1104 l -39 1325 l 205 1325 l 321 1104 l 136 1104 m 387 1104 l 279 1325 l 500 1325 l 566 1104 l 387 1104 z "},"":{"ha":704,"x_min":39,"x_max":665,"o":"m 39 0 l 39 221 l 215 221 l 215 789 l 39 789 l 39 1010 l 665 1010 l 665 789 l 489 789 l 489 221 l 665 221 l 665 0 l 39 0 m 352 1331 q 488 1300 428 1331 q 583 1219 548 1270 q 618 1104 618 1168 l 473 1104 q 438 1171 473 1144 q 352 1198 403 1198 q 265 1171 300 1198 q 230 1104 230 1144 l 86 1104 q 121 1219 86 1168 q 216 1300 156 1270 q 352 1331 276 1331 z "},"":{"ha":704,"x_min":39,"x_max":665,"o":"m 39 0 l 39 221 l 215 221 l 215 789 l 39 789 l 39 1010 l 665 1010 l 665 789 l 489 789 l 489 221 l 665 221 l 665 0 l 39 0 m 419 1104 l 274 1104 l 330 1196 q 327 1201 332 1201 l 207 1201 l 207 1325 l 327 1325 q 435 1307 397 1325 q 485 1261 473 1289 q 489 1203 497 1234 q 458 1147 481 1173 l 419 1104 z "},"":{"ha":704,"x_min":39,"x_max":665,"o":"m 39 0 l 39 221 l 215 221 l 215 789 l 39 789 l 39 1010 l 665 1010 l 665 789 l 489 789 l 489 221 l 665 221 l 665 0 l 39 0 m 352 -327 q 257 -290 296 -327 q 218 -202 218 -254 q 257 -114 218 -150 q 352 -77 296 -77 q 447 -114 408 -77 q 486 -202 486 -150 q 447 -290 486 -254 q 352 -327 408 -327 z "},"":{"ha":1014,"x_min":38,"x_max":975,"o":"m 349 0 l 349 221 l 525 221 l 525 789 l 349 789 l 349 1010 l 975 1010 l 975 789 l 799 789 l 799 221 l 975 221 l 975 0 l 349 0 m 73 780 l 64 780 l 64 841 l 73 841 q 147 880 147 841 q 82 916 147 916 l 38 916 l 38 1026 l 73 1026 q 217 993 167 1026 q 267 901 267 960 q 216 810 267 841 q 73 780 165 780 z "},"":{"ha":1036,"x_min":38,"x_max":996,"o":"m 371 0 l 371 221 l 547 221 l 547 789 l 371 789 l 371 1010 l 996 1010 l 996 789 l 821 789 l 821 221 l 996 221 l 996 0 l 371 0 m 233 769 q 89 800 140 769 q 38 890 38 830 q 88 982 38 949 q 233 1015 138 1015 l 267 1015 l 267 905 l 223 905 q 158 869 158 905 q 233 830 158 830 l 241 830 l 241 769 l 233 769 z "},"":{"ha":1312,"x_min":38,"x_max":1273,"o":"m 648 0 l 648 221 l 823 221 l 823 789 l 648 789 l 648 1010 l 1273 1010 l 1273 789 l 1097 789 l 1097 221 l 1273 221 l 1273 0 l 648 0 m 73 769 l 64 769 l 64 830 l 73 830 q 147 869 147 830 q 82 905 147 905 l 38 905 l 38 1015 l 73 1015 q 217 982 167 1015 q 267 890 267 949 q 216 800 267 830 q 73 769 165 769 m 509 781 l 377 781 l 293 1010 l 490 1010 l 509 781 z "},"":{"ha":1345,"x_min":38,"x_max":1305,"o":"m 680 0 l 680 221 l 856 221 l 856 789 l 680 789 l 680 1010 l 1305 1010 l 1305 789 l 1130 789 l 1130 221 l 1305 221 l 1305 0 l 680 0 m 233 769 q 89 800 140 769 q 38 890 38 830 q 88 982 38 949 q 233 1015 138 1015 l 267 1015 l 267 905 l 223 905 q 158 869 158 905 q 233 830 158 830 l 241 830 l 241 769 l 233 769 m 531 781 l 399 781 l 315 1010 l 512 1010 l 531 781 z "},"":{"ha":1323,"x_min":38,"x_max":1284,"o":"m 659 0 l 659 221 l 834 221 l 834 789 l 659 789 l 659 1010 l 1284 1010 l 1284 789 l 1108 789 l 1108 221 l 1284 221 l 1284 0 l 659 0 m 73 769 l 64 769 l 64 830 l 73 830 q 147 869 147 830 q 82 905 147 905 l 38 905 l 38 1015 l 73 1015 q 217 982 167 1015 q 267 890 267 949 q 216 800 267 830 q 73 769 165 769 m 355 781 l 373 1010 l 570 1010 l 486 781 l 355 781 z "},"":{"ha":1356,"x_min":38,"x_max":1316,"o":"m 691 0 l 691 221 l 867 221 l 867 789 l 691 789 l 691 1010 l 1316 1010 l 1316 789 l 1141 789 l 1141 221 l 1316 221 l 1316 0 l 691 0 m 233 769 q 89 800 140 769 q 38 890 38 830 q 88 982 38 949 q 233 1015 138 1015 l 267 1015 l 267 905 l 223 905 q 158 869 158 905 q 233 830 158 830 l 241 830 l 241 769 l 233 769 m 376 781 l 395 1010 l 592 1010 l 507 781 l 376 781 z "},"":{"ha":1170,"x_min":38,"x_max":1131,"o":"m 505 0 l 505 221 l 681 221 l 681 789 l 505 789 l 505 1010 l 1131 1010 l 1131 789 l 955 789 l 955 221 l 1131 221 l 1131 0 l 505 0 m 407 1089 q 324 1107 355 1089 q 271 1144 293 1126 q 224 1162 249 1162 q 172 1095 176 1162 l 38 1095 q 88 1237 40 1190 q 206 1284 136 1284 q 289 1267 257 1284 q 343 1231 321 1249 q 389 1213 366 1213 q 430 1231 418 1213 q 442 1281 441 1249 l 575 1281 q 525 1138 574 1187 q 407 1089 476 1089 m 227 786 l 218 786 l 218 847 l 227 847 q 301 886 301 847 q 236 922 301 922 l 192 922 l 192 1032 l 227 1032 q 371 999 321 1032 q 421 907 421 966 q 370 817 421 847 q 227 786 319 786 z "},"":{"ha":1200,"x_min":38,"x_max":1160,"o":"m 535 0 l 535 221 l 711 221 l 711 789 l 535 789 l 535 1010 l 1160 1010 l 1160 789 l 985 789 l 985 221 l 1160 221 l 1160 0 l 535 0 m 407 1067 q 324 1086 355 1067 q 271 1122 293 1104 q 224 1141 249 1141 q 172 1073 176 1141 l 38 1073 q 88 1216 40 1168 q 206 1263 136 1263 q 289 1245 257 1263 q 343 1210 321 1227 q 389 1192 366 1192 q 430 1210 418 1192 q 442 1259 441 1227 l 575 1259 q 525 1116 574 1165 q 407 1067 476 1067 m 387 764 q 243 795 294 764 q 192 885 192 825 q 242 977 192 944 q 387 1010 292 1010 l 421 1010 l 421 901 l 377 901 q 312 864 312 901 q 387 825 312 825 l 395 825 l 395 764 l 387 764 z "},"":{"ha":704,"x_min":39,"x_max":665,"o":"m 39 0 l 39 221 l 215 221 l 215 789 l 39 789 l 39 1010 l 665 1010 l 665 789 l 489 789 l 489 221 l 665 221 l 665 0 l 39 0 m 352 1093 q 216 1123 276 1093 q 121 1205 156 1154 q 86 1320 86 1257 l 230 1320 q 265 1253 230 1280 q 352 1225 300 1225 q 438 1253 403 1225 q 473 1320 473 1280 l 618 1320 q 583 1205 618 1257 q 488 1123 548 1154 q 352 1093 428 1093 z "},"":{"ha":704,"x_min":39,"x_max":665,"o":"m 39 0 l 39 221 l 215 221 l 215 789 l 39 789 l 39 1010 l 665 1010 l 665 789 l 489 789 l 489 221 l 665 221 l 665 0 l 39 0 m 555 1291 l 555 1134 l 149 1134 l 149 1291 l 555 1291 z "},"":{"ha":1009,"x_min":-83,"x_max":970,"o":"m 345 0 l 345 221 l 520 221 l 520 789 l 345 789 l 345 1010 l 970 1010 l 970 789 l 794 789 l 794 221 l 970 221 l 970 0 l 345 0 m 167 840 l 15 840 l -83 1061 l 145 1061 l 167 840 z "},"":{"ha":1050,"x_min":38,"x_max":1010,"o":"m 385 0 l 385 221 l 561 221 l 561 789 l 385 789 l 385 1010 l 1010 1010 l 1010 789 l 835 789 l 835 221 l 1010 221 l 1010 0 l 385 0 m 38 789 l 60 1010 l 288 1010 l 190 789 l 38 789 z "},"":{"ha":704,"x_min":39,"x_max":665,"o":"m 39 0 l 39 221 l 215 221 l 215 789 l 39 789 l 39 1010 l 665 1010 l 665 789 l 489 789 l 489 221 l 665 221 l 665 0 l 39 0 z "},"":{"ha":704,"x_min":39,"x_max":665,"o":"m 39 0 l 39 221 l 215 221 l 215 789 l 39 789 l 39 1010 l 665 1010 l 665 789 l 489 789 l 489 221 l 665 221 l 665 0 l 39 0 m 195 1098 q 111 1132 146 1098 q 76 1213 76 1165 q 111 1294 76 1260 q 195 1327 146 1327 q 280 1294 245 1327 q 315 1213 315 1260 q 280 1132 315 1165 q 195 1098 245 1098 m 509 1098 q 424 1132 459 1098 q 389 1213 389 1165 q 424 1294 389 1260 q 509 1327 459 1327 q 593 1294 558 1327 q 628 1213 628 1260 q 593 1132 628 1165 q 509 1098 558 1098 z "},"J":{"ha":827,"x_min":27,"x_max":762,"o":"m 397 -14 q 123 72 220 -14 q 27 316 27 157 l 27 379 l 301 379 l 301 311 q 397 199 301 199 q 492 312 492 199 l 492 1010 l 762 1010 l 762 317 q 668 72 762 158 q 397 -14 573 -14 z "},"Ĵ":{"ha":827,"x_min":27,"x_max":948,"o":"m 397 -14 q 123 72 220 -14 q 27 316 27 157 l 27 379 l 301 379 l 301 311 q 397 199 301 199 q 492 312 492 199 l 492 1010 l 762 1010 l 762 317 q 668 72 762 158 q 397 -14 573 -14 m 530 1104 l 305 1104 l 305 1108 l 532 1325 l 722 1325 l 948 1108 l 948 1104 l 723 1104 l 627 1217 l 530 1104 z "},"Ɉ":{"ha":895,"x_min":27,"x_max":889,"o":"m 397 -14 q 123 72 220 -14 q 27 316 27 157 l 27 379 l 301 379 l 301 311 q 397 199 301 199 q 492 312 492 199 l 492 1010 l 762 1010 l 762 317 q 668 72 762 158 q 397 -14 573 -14 m 359 562 l 359 637 l 889 637 l 889 562 l 359 562 z "},"Ϳ":{"ha":827,"x_min":27,"x_max":762,"o":"m 397 -14 q 123 72 220 -14 q 27 316 27 157 l 27 379 l 301 379 l 301 311 q 397 199 301 199 q 492 312 492 199 l 492 1010 l 762 1010 l 762 317 q 668 72 762 158 q 397 -14 573 -14 z "},"Ј":{"ha":827,"x_min":27,"x_max":762,"o":"m 397 -14 q 123 72 220 -14 q 27 316 27 157 l 27 379 l 301 379 l 301 311 q 397 199 301 199 q 492 312 492 199 l 492 1010 l 762 1010 l 762 317 q 668 72 762 158 q 397 -14 573 -14 z "},"K":{"ha":1055,"x_min":65,"x_max":1023,"o":"m 65 0 l 65 1010 l 339 1010 l 339 793 l 334 536 q 394 635 361 585 q 479 751 428 685 l 680 1010 l 1004 1010 l 651 576 l 1023 0 l 701 0 l 464 395 l 339 252 l 339 0 l 65 0 z "},"Ķ":{"ha":1055,"x_min":65,"x_max":1023,"o":"m 65 0 l 65 1010 l 339 1010 l 339 793 l 334 536 q 394 635 361 585 q 479 751 428 685 l 680 1010 l 1004 1010 l 651 576 l 1023 0 l 701 0 l 464 395 l 339 252 l 339 0 l 65 0 m 324 -316 l 389 -80 l 633 -80 l 509 -316 l 324 -316 z "},"Ǩ":{"ha":1055,"x_min":65,"x_max":1023,"o":"m 65 0 l 65 1010 l 339 1010 l 339 793 l 334 536 q 394 635 361 585 q 479 751 428 685 l 680 1010 l 1004 1010 l 651 576 l 1023 0 l 701 0 l 464 395 l 339 252 l 339 0 l 65 0 m 412 1325 l 509 1213 l 605 1325 l 830 1325 l 830 1321 l 604 1104 l 414 1104 l 187 1321 l 187 1325 l 412 1325 z "},"Ḱ":{"ha":1055,"x_min":65,"x_max":1023,"o":"m 65 0 l 65 1010 l 339 1010 l 339 793 l 334 536 q 394 635 361 585 q 479 751 428 685 l 680 1010 l 1004 1010 l 651 576 l 1023 0 l 701 0 l 464 395 l 339 252 l 339 0 l 65 0 m 418 1104 l 511 1325 l 745 1325 l 597 1104 l 418 1104 z "},"Ḳ":{"ha":1055,"x_min":65,"x_max":1023,"o":"m 65 0 l 65 1010 l 339 1010 l 339 793 l 334 536 q 394 635 361 585 q 479 751 428 685 l 680 1010 l 1004 1010 l 651 576 l 1023 0 l 701 0 l 464 395 l 339 252 l 339 0 l 65 0 m 509 -327 q 414 -290 453 -327 q 374 -202 374 -254 q 414 -114 374 -150 q 509 -77 453 -77 q 604 -114 564 -77 q 643 -202 643 -150 q 604 -290 643 -254 q 509 -327 564 -327 z "},"Ḵ":{"ha":1055,"x_min":65,"x_max":1023,"o":"m 65 0 l 65 1010 l 339 1010 l 339 793 l 334 536 q 394 635 361 585 q 479 751 428 685 l 680 1010 l 1004 1010 l 651 576 l 1023 0 l 701 0 l 464 395 l 339 252 l 339 0 l 65 0 m 712 -123 l 712 -281 l 305 -281 l 305 -123 l 712 -123 z "},"Ҡ":{"ha":1287,"x_min":38,"x_max":1256,"o":"m 298 0 l 298 789 l 38 789 l 38 1010 l 572 1010 l 572 625 l 667 625 l 917 1010 l 1238 1010 l 894 517 l 1256 0 l 935 0 l 661 408 l 572 408 l 572 0 l 298 0 z "},"Қ":{"ha":1122,"x_min":65,"x_max":1082,"o":"m 65 0 l 65 1010 l 339 1010 l 339 625 l 434 625 l 684 1010 l 1006 1010 l 661 517 l 1023 0 l 702 0 l 429 408 l 339 408 l 339 0 l 65 0 m 804 -217 l 804 0 l 739 0 l 739 203 l 1082 203 l 1065 -217 l 804 -217 z "},"Ƙ":{"ha":1065,"x_min":65,"x_max":1058,"o":"m 65 0 l 65 1010 l 339 1010 l 339 620 l 353 620 l 639 910 q 834 1019 730 1001 q 1058 972 939 1038 l 977 781 q 902 789 929 804 q 842 743 874 775 l 637 537 l 1050 0 l 722 0 l 461 342 l 339 216 l 339 0 l 65 0 z "},"Κ":{"ha":1055,"x_min":65,"x_max":1023,"o":"m 65 0 l 65 1010 l 339 1010 l 339 793 l 334 536 q 394 635 361 585 q 479 751 428 685 l 680 1010 l 1004 1010 l 651 576 l 1023 0 l 701 0 l 464 395 l 339 252 l 339 0 l 65 0 z "},"L":{"ha":785,"x_min":65,"x_max":747,"o":"m 65 0 l 65 1010 l 339 1010 l 339 221 l 747 221 l 747 0 l 65 0 z "},"Ĺ":{"ha":785,"x_min":65,"x_max":747,"o":"m 65 0 l 65 1010 l 339 1010 l 339 221 l 747 221 l 747 0 l 65 0 m 109 1104 l 202 1325 l 435 1325 l 288 1104 l 109 1104 z "},"Ļ":{"ha":785,"x_min":65,"x_max":747,"o":"m 65 0 l 65 1010 l 339 1010 l 339 221 l 747 221 l 747 0 l 65 0 m 222 -316 l 288 -80 l 532 -80 l 407 -316 l 222 -316 z "},"Ľ":{"ha":785,"x_min":65,"x_max":747,"o":"m 65 0 l 65 1010 l 339 1010 l 339 221 l 747 221 l 747 0 l 65 0 m 477 802 l 477 1065 l 662 1065 l 625 802 l 477 802 z "},"Ḷ":{"ha":785,"x_min":65,"x_max":747,"o":"m 65 0 l 65 1010 l 339 1010 l 339 221 l 747 221 l 747 0 l 65 0 m 407 -327 q 312 -290 351 -327 q 273 -202 273 -254 q 312 -114 273 -150 q 407 -77 351 -77 q 502 -114 463 -77 q 541 -202 541 -150 q 502 -290 541 -254 q 407 -327 463 -327 z "},"Ḹ":{"ha":785,"x_min":-4,"x_max":747,"o":"m 65 0 l 65 1010 l 339 1010 l 339 221 l 747 221 l 747 0 l 65 0 m 407 -327 q 312 -290 351 -327 q 273 -202 273 -254 q 312 -114 273 -150 q 407 -77 351 -77 q 502 -114 463 -77 q 541 -202 541 -150 q 502 -290 541 -254 q 407 -327 463 -327 m 403 1291 l 403 1134 l -4 1134 l -4 1291 l 403 1291 z "},"Ḻ":{"ha":785,"x_min":65,"x_max":747,"o":"m 65 0 l 65 1010 l 339 1010 l 339 221 l 747 221 l 747 0 l 65 0 m 610 -123 l 610 -281 l 203 -281 l 203 -123 l 610 -123 z "},"Ḽ":{"ha":785,"x_min":65,"x_max":747,"o":"m 65 0 l 65 1010 l 339 1010 l 339 221 l 747 221 l 747 0 l 65 0 m 311 -313 l 85 -313 l 85 -309 l 312 -92 l 502 -92 l 728 -309 l 728 -313 l 503 -313 l 407 -200 l 311 -313 z "},"Ł":{"ha":853,"x_min":0,"x_max":815,"o":"m 133 0 l 133 1010 l 407 1010 l 407 221 l 815 221 l 815 0 l 133 0 m 0 229 l 0 450 l 635 817 l 635 595 l 0 229 z "},"Ƚ":{"ha":867,"x_min":14,"x_max":829,"o":"m 146 0 l 146 1010 l 420 1010 l 420 221 l 829 221 l 829 0 l 146 0 m 14 421 l 14 589 l 589 589 l 589 421 l 14 421 z "},"ǈ":{"ha":1196,"x_min":65,"x_max":1127,"o":"m 65 0 l 65 1010 l 339 1010 l 339 221 l 747 221 l 747 0 l 65 0 m 854 758 l 1127 758 l 1127 -26 q 1085 -181 1127 -125 q 968 -260 1044 -237 q 793 -283 893 -283 l 738 -283 l 738 -83 l 769 -83 q 837 -68 819 -83 q 854 -20 854 -53 l 854 758 m 991 836 q 896 872 935 836 q 857 960 857 909 q 896 1049 857 1013 q 991 1085 935 1085 q 1086 1049 1046 1085 q 1125 960 1125 1013 q 1086 872 1125 909 q 991 836 1046 836 z "},"M":{"ha":1328,"x_min":65,"x_max":1263,"o":"m 65 0 l 65 1010 l 498 1010 l 589 694 q 613 597 600 657 q 640 469 626 538 q 665 333 653 399 q 690 469 676 399 q 716 597 703 538 q 740 694 730 657 l 829 1010 l 1263 1010 l 1263 0 l 986 0 l 986 391 q 988 496 986 429 q 992 641 990 563 q 996 793 995 720 q 961 640 980 717 q 925 497 943 562 q 896 391 908 432 l 779 0 l 551 0 l 431 391 q 402 492 419 430 q 367 628 385 555 q 332 777 349 702 q 336 630 334 705 q 340 491 338 555 q 342 391 342 428 l 342 0 l 65 0 z "},"Ḿ":{"ha":1328,"x_min":65,"x_max":1263,"o":"m 65 0 l 65 1010 l 498 1010 l 589 694 q 613 597 600 657 q 640 469 626 538 q 665 333 653 399 q 690 469 676 399 q 716 597 703 538 q 740 694 730 657 l 829 1010 l 1263 1010 l 1263 0 l 986 0 l 986 391 q 988 496 986 429 q 992 641 990 563 q 996 793 995 720 q 961 640 980 717 q 925 497 943 562 q 896 391 908 432 l 779 0 l 551 0 l 431 391 q 402 492 419 430 q 367 628 385 555 q 332 777 349 702 q 336 630 334 705 q 340 491 338 555 q 342 391 342 428 l 342 0 l 65 0 m 573 1104 l 667 1325 l 900 1325 l 752 1104 l 573 1104 z "},"Ṁ":{"ha":1328,"x_min":65,"x_max":1263,"o":"m 65 0 l 65 1010 l 498 1010 l 589 694 q 613 597 600 657 q 640 469 626 538 q 665 333 653 399 q 690 469 676 399 q 716 597 703 538 q 740 694 730 657 l 829 1010 l 1263 1010 l 1263 0 l 986 0 l 986 391 q 988 496 986 429 q 992 641 990 563 q 996 793 995 720 q 961 640 980 717 q 925 497 943 562 q 896 391 908 432 l 779 0 l 551 0 l 431 391 q 402 492 419 430 q 367 628 385 555 q 332 777 349 702 q 336 630 334 705 q 340 491 338 555 q 342 391 342 428 l 342 0 l 65 0 m 664 1088 q 569 1124 608 1088 q 530 1213 530 1161 q 569 1301 530 1265 q 664 1337 608 1337 q 759 1301 720 1337 q 798 1213 798 1265 q 759 1124 798 1161 q 664 1088 720 1088 z "},"Ṃ":{"ha":1328,"x_min":65,"x_max":1263,"o":"m 65 0 l 65 1010 l 498 1010 l 589 694 q 613 597 600 657 q 640 469 626 538 q 665 333 653 399 q 690 469 676 399 q 716 597 703 538 q 740 694 730 657 l 829 1010 l 1263 1010 l 1263 0 l 986 0 l 986 391 q 988 496 986 429 q 992 641 990 563 q 996 793 995 720 q 961 640 980 717 q 925 497 943 562 q 896 391 908 432 l 779 0 l 551 0 l 431 391 q 402 492 419 430 q 367 628 385 555 q 332 777 349 702 q 336 630 334 705 q 340 491 338 555 q 342 391 342 428 l 342 0 l 65 0 m 664 -327 q 569 -290 608 -327 q 530 -202 530 -254 q 569 -114 530 -150 q 664 -77 608 -77 q 759 -114 720 -77 q 798 -202 798 -150 q 759 -290 798 -254 q 664 -327 720 -327 z "},"Ӎ":{"ha":1328,"x_min":65,"x_max":1389,"o":"m 65 0 l 65 1010 l 498 1010 l 589 694 q 613 597 600 657 q 640 469 626 538 q 665 333 653 399 q 690 469 676 399 q 716 597 703 538 q 740 694 730 657 l 829 1010 l 1263 1010 l 1263 0 l 986 0 l 986 391 q 988 496 986 429 q 992 641 990 563 q 996 793 995 720 q 961 640 980 717 q 925 497 943 562 q 896 391 908 432 l 779 0 l 551 0 l 431 391 q 402 492 419 430 q 367 628 385 555 q 332 777 349 702 q 336 630 334 705 q 340 491 338 555 q 342 391 342 428 l 342 0 l 65 0 m 1008 -217 l 1078 0 l 1013 0 l 1013 203 l 1389 203 l 1253 -217 l 1008 -217 z "},"Μ":{"ha":1328,"x_min":65,"x_max":1263,"o":"m 65 0 l 65 1010 l 498 1010 l 589 694 q 613 597 600 657 q 640 469 626 538 q 665 333 653 399 q 690 469 676 399 q 716 597 703 538 q 740 694 730 657 l 829 1010 l 1263 1010 l 1263 0 l 986 0 l 986 391 q 988 496 986 429 q 992 641 990 563 q 996 793 995 720 q 961 640 980 717 q 925 497 943 562 q 896 391 908 432 l 779 0 l 551 0 l 431 391 q 402 492 419 430 q 367 628 385 555 q 332 777 349 702 q 336 630 334 705 q 340 491 338 555 q 342 391 342 428 l 342 0 l 65 0 z "},"Ϻ":{"ha":1328,"x_min":65,"x_max":1263,"o":"m 65 0 l 65 1010 l 498 1010 l 589 694 q 613 597 600 657 q 640 469 626 538 q 665 333 653 399 q 690 469 676 399 q 716 597 703 538 q 740 694 730 657 l 829 1010 l 1263 1010 l 1263 0 l 986 0 l 986 391 q 988 496 986 429 q 992 641 990 563 q 996 793 995 720 q 961 640 980 717 q 925 497 943 562 q 896 391 908 432 l 779 0 l 551 0 l 431 391 q 402 492 419 430 q 367 628 385 555 q 332 777 349 702 q 336 630 334 705 q 340 491 338 555 q 342 391 342 428 l 342 0 l 65 0 z "},"М":{"ha":1328,"x_min":65,"x_max":1263,"o":"m 65 0 l 65 1010 l 498 1010 l 589 694 q 613 597 600 657 q 640 469 626 538 q 665 333 653 399 q 690 469 676 399 q 716 597 703 538 q 740 694 730 657 l 829 1010 l 1263 1010 l 1263 0 l 986 0 l 986 391 q 988 496 986 429 q 992 641 990 563 q 996 793 995 720 q 961 640 980 717 q 925 497 943 562 q 896 391 908 432 l 779 0 l 551 0 l 431 391 q 402 492 419 430 q 367 628 385 555 q 332 777 349 702 q 336 630 334 705 q 340 491 338 555 q 342 391 342 428 l 342 0 l 65 0 z "},"N":{"ha":1069,"x_min":65,"x_max":1004,"o":"m 65 0 l 65 1010 l 363 1010 l 604 614 q 674 488 642 551 q 737 339 706 425 q 727 500 732 416 q 722 640 722 585 l 722 1010 l 1004 1010 l 1004 0 l 705 0 l 481 369 q 401 512 434 446 q 332 663 368 578 q 342 497 338 576 q 347 369 347 419 l 347 0 l 65 0 z "},"Ñ":{"ha":1069,"x_min":65,"x_max":1004,"o":"m 65 0 l 65 1010 l 363 1010 l 604 614 q 674 488 642 551 q 737 339 706 425 q 727 500 732 416 q 722 640 722 585 l 722 1010 l 1004 1010 l 1004 0 l 705 0 l 481 369 q 401 512 434 446 q 332 663 368 578 q 342 497 338 576 q 347 369 347 419 l 347 0 l 65 0 m 635 1104 q 569 1116 596 1104 q 523 1145 543 1128 q 487 1173 504 1161 q 452 1185 471 1185 q 400 1109 404 1185 l 266 1109 q 316 1269 268 1217 q 434 1321 364 1321 q 517 1301 485 1321 q 571 1261 549 1281 q 617 1242 594 1242 q 657 1262 646 1242 q 670 1317 669 1282 l 803 1317 q 753 1158 802 1213 q 635 1104 704 1104 z "},"Ń":{"ha":1069,"x_min":65,"x_max":1004,"o":"m 65 0 l 65 1010 l 363 1010 l 604 614 q 674 488 642 551 q 737 339 706 425 q 727 500 732 416 q 722 640 722 585 l 722 1010 l 1004 1010 l 1004 0 l 705 0 l 481 369 q 401 512 434 446 q 332 663 368 578 q 342 497 338 576 q 347 369 347 419 l 347 0 l 65 0 m 444 1104 l 537 1325 l 770 1325 l 623 1104 l 444 1104 z "},"Ņ":{"ha":1069,"x_min":65,"x_max":1004,"o":"m 65 0 l 65 1010 l 363 1010 l 604 614 q 674 488 642 551 q 737 339 706 425 q 727 500 732 416 q 722 640 722 585 l 722 1010 l 1004 1010 l 1004 0 l 705 0 l 481 369 q 401 512 434 446 q 332 663 368 578 q 342 497 338 576 q 347 369 347 419 l 347 0 l 65 0 m 350 -316 l 415 -80 l 659 -80 l 534 -316 l 350 -316 z "},"Ň":{"ha":1069,"x_min":65,"x_max":1004,"o":"m 65 0 l 65 1010 l 363 1010 l 604 614 q 674 488 642 551 q 737 339 706 425 q 727 500 732 416 q 722 640 722 585 l 722 1010 l 1004 1010 l 1004 0 l 705 0 l 481 369 q 401 512 434 446 q 332 663 368 578 q 342 497 338 576 q 347 369 347 419 l 347 0 l 65 0 m 438 1325 l 534 1213 l 631 1325 l 856 1325 l 856 1321 l 629 1104 l 439 1104 l 213 1321 l 213 1325 l 438 1325 z "},"Ǹ":{"ha":1069,"x_min":65,"x_max":1004,"o":"m 65 0 l 65 1010 l 363 1010 l 604 614 q 674 488 642 551 q 737 339 706 425 q 727 500 732 416 q 722 640 722 585 l 722 1010 l 1004 1010 l 1004 0 l 705 0 l 481 369 q 401 512 434 446 q 332 663 368 578 q 342 497 338 576 q 347 369 347 419 l 347 0 l 65 0 m 446 1104 l 298 1325 l 532 1325 l 625 1104 l 446 1104 z "},"Ṅ":{"ha":1069,"x_min":65,"x_max":1004,"o":"m 65 0 l 65 1010 l 363 1010 l 604 614 q 674 488 642 551 q 737 339 706 425 q 727 500 732 416 q 722 640 722 585 l 722 1010 l 1004 1010 l 1004 0 l 705 0 l 481 369 q 401 512 434 446 q 332 663 368 578 q 342 497 338 576 q 347 369 347 419 l 347 0 l 65 0 m 534 1088 q 439 1124 479 1088 q 400 1213 400 1161 q 439 1301 400 1265 q 534 1337 479 1337 q 629 1301 590 1337 q 669 1213 669 1265 q 629 1124 669 1161 q 534 1088 590 1088 z "},"Ṇ":{"ha":1069,"x_min":65,"x_max":1004,"o":"m 65 0 l 65 1010 l 363 1010 l 604 614 q 674 488 642 551 q 737 339 706 425 q 727 500 732 416 q 722 640 722 585 l 722 1010 l 1004 1010 l 1004 0 l 705 0 l 481 369 q 401 512 434 446 q 332 663 368 578 q 342 497 338 576 q 347 369 347 419 l 347 0 l 65 0 m 534 -327 q 439 -290 479 -327 q 400 -202 400 -254 q 439 -114 400 -150 q 534 -77 479 -77 q 629 -114 590 -77 q 669 -202 669 -150 q 629 -290 669 -254 q 534 -327 590 -327 z "},"Ṉ":{"ha":1069,"x_min":65,"x_max":1004,"o":"m 65 0 l 65 1010 l 363 1010 l 604 614 q 674 488 642 551 q 737 339 706 425 q 727 500 732 416 q 722 640 722 585 l 722 1010 l 1004 1010 l 1004 0 l 705 0 l 481 369 q 401 512 434 446 q 332 663 368 578 q 342 497 338 576 q 347 369 347 419 l 347 0 l 65 0 m 738 -123 l 738 -281 l 331 -281 l 331 -123 l 738 -123 z "},"Ṋ":{"ha":1069,"x_min":65,"x_max":1004,"o":"m 65 0 l 65 1010 l 363 1010 l 604 614 q 674 488 642 551 q 737 339 706 425 q 727 500 732 416 q 722 640 722 585 l 722 1010 l 1004 1010 l 1004 0 l 705 0 l 481 369 q 401 512 434 446 q 332 663 368 578 q 342 497 338 576 q 347 369 347 419 l 347 0 l 65 0 m 438 -313 l 213 -313 l 213 -309 l 439 -92 l 629 -92 l 856 -309 l 856 -313 l 631 -313 l 534 -200 l 438 -313 z "},"Ɲ":{"ha":1069,"x_min":-83,"x_max":1004,"o":"m -83 -283 l -83 -81 q -43 -86 -62 -84 q -5 -87 -24 -87 q 50 -76 35 -87 q 65 -33 65 -64 l 65 1010 l 363 1010 l 604 614 q 674 488 642 551 q 737 339 706 425 q 727 500 732 416 q 722 640 722 585 l 722 1010 l 1004 1010 l 1004 0 l 705 0 l 481 369 q 401 512 434 446 q 332 663 368 578 q 342 497 338 576 q 347 369 347 419 l 347 0 l 339 0 l 339 -50 q 52 -299 339 -299 q -83 -283 -22 -299 z "},"Ŋ":{"ha":1069,"x_min":65,"x_max":1004,"o":"m 582 -283 l 582 -81 q 621 -86 602 -84 q 660 -87 640 -87 q 715 -76 700 -87 q 730 -33 730 -64 l 730 0 l 705 0 l 481 369 q 401 512 434 446 q 332 663 368 578 q 342 497 338 576 q 347 369 347 419 l 347 0 l 65 0 l 65 1010 l 363 1010 l 604 614 q 674 488 642 551 q 737 339 706 425 q 727 500 732 416 q 722 640 722 585 l 722 1010 l 1004 1010 l 1004 -50 q 716 -299 1004 -299 q 582 -283 642 -299 z "},"И":{"ha":1069,"x_min":65,"x_max":1004,"o":"m 1004 0 l 722 0 l 722 369 q 726 497 722 419 q 737 663 731 576 q 668 512 701 578 q 588 369 635 446 l 363 0 l 65 0 l 65 1010 l 347 1010 l 347 640 q 342 500 347 585 q 332 339 336 416 q 395 488 363 425 q 465 614 427 551 l 705 1010 l 1004 1010 l 1004 0 z "},"Ѝ":{"ha":1069,"x_min":65,"x_max":1004,"o":"m 1004 0 l 722 0 l 722 369 q 726 497 722 419 q 737 663 731 576 q 668 512 701 578 q 588 369 635 446 l 363 0 l 65 0 l 65 1010 l 347 1010 l 347 640 q 342 500 347 585 q 332 339 336 416 q 395 488 363 425 q 465 614 427 551 l 705 1010 l 1004 1010 l 1004 0 m 414 1104 l 266 1325 l 499 1325 l 593 1104 l 414 1104 z "},"Й":{"ha":1069,"x_min":65,"x_max":1004,"o":"m 1004 0 l 722 0 l 722 369 q 726 497 722 419 q 737 663 731 576 q 668 512 701 578 q 588 369 635 446 l 363 0 l 65 0 l 65 1010 l 347 1010 l 347 640 q 342 500 347 585 q 332 339 336 416 q 395 488 363 425 q 465 614 427 551 l 705 1010 l 1004 1010 l 1004 0 m 502 1093 q 366 1123 426 1093 q 271 1205 306 1154 q 236 1320 236 1257 l 380 1320 q 415 1253 380 1280 q 502 1225 450 1225 q 588 1253 553 1225 q 623 1320 623 1280 l 768 1320 q 733 1205 768 1257 q 638 1123 698 1154 q 502 1093 578 1093 z "},"Ӣ":{"ha":1069,"x_min":65,"x_max":1004,"o":"m 1004 0 l 722 0 l 722 369 q 726 497 722 419 q 737 663 731 576 q 668 512 701 578 q 588 369 635 446 l 363 0 l 65 0 l 65 1010 l 347 1010 l 347 640 q 342 500 347 585 q 332 339 336 416 q 395 488 363 425 q 465 614 427 551 l 705 1010 l 1004 1010 l 1004 0 m 705 1291 l 705 1134 l 298 1134 l 298 1291 l 705 1291 z "},"Ӥ":{"ha":1069,"x_min":65,"x_max":1004,"o":"m 1004 0 l 722 0 l 722 369 q 726 497 722 419 q 737 663 731 576 q 668 512 701 578 q 588 369 635 446 l 363 0 l 65 0 l 65 1010 l 347 1010 l 347 640 q 342 500 347 585 q 332 339 336 416 q 395 488 363 425 q 465 614 427 551 l 705 1010 l 1004 1010 l 1004 0 m 345 1098 q 261 1132 296 1098 q 226 1213 226 1165 q 261 1294 226 1260 q 345 1327 296 1327 q 430 1294 395 1327 q 465 1213 465 1260 q 430 1132 465 1165 q 345 1098 395 1098 m 659 1098 q 574 1132 609 1098 q 539 1213 539 1165 q 574 1294 539 1260 q 659 1327 609 1327 q 743 1294 708 1327 q 778 1213 778 1260 q 743 1132 778 1165 q 659 1098 708 1098 z "},"Ҋ":{"ha":1069,"x_min":65,"x_max":1065,"o":"m 1004 0 l 722 0 l 722 369 q 726 497 722 419 q 737 663 731 576 q 668 512 701 578 q 588 369 635 446 l 363 0 l 65 0 l 65 1010 l 347 1010 l 347 640 q 342 500 347 585 q 332 339 336 416 q 395 488 363 425 q 465 614 427 551 l 705 1010 l 1004 1010 l 1004 0 m 502 1093 q 366 1123 426 1093 q 271 1205 306 1154 q 236 1320 236 1257 l 380 1320 q 415 1253 380 1280 q 502 1225 450 1225 q 588 1253 553 1225 q 623 1320 623 1280 l 768 1320 q 733 1205 768 1257 q 638 1123 698 1154 q 502 1093 578 1093 m 684 -217 l 754 0 l 689 0 l 689 203 l 1065 203 l 929 -217 l 684 -217 z "},"Ͷ":{"ha":1069,"x_min":65,"x_max":1004,"o":"m 1004 0 l 722 0 l 722 369 q 726 497 722 419 q 737 663 731 576 q 668 512 701 578 q 588 369 635 446 l 363 0 l 65 0 l 65 1010 l 347 1010 l 347 640 q 342 500 347 585 q 332 339 336 416 q 395 488 363 425 q 465 614 427 551 l 705 1010 l 1004 1010 l 1004 0 z "},"Ν":{"ha":1069,"x_min":65,"x_max":1004,"o":"m 65 0 l 65 1010 l 363 1010 l 604 614 q 674 488 642 551 q 737 339 706 425 q 727 500 732 416 q 722 640 722 585 l 722 1010 l 1004 1010 l 1004 0 l 705 0 l 481 369 q 401 512 434 446 q 332 663 368 578 q 342 497 338 576 q 347 369 347 419 l 347 0 l 65 0 z "},"ǋ":{"ha":1480,"x_min":65,"x_max":1411,"o":"m 65 0 l 65 1010 l 363 1010 l 604 614 q 674 488 642 551 q 737 339 706 425 q 727 500 732 416 q 722 640 722 585 l 722 1010 l 1004 1010 l 1004 0 l 705 0 l 481 369 q 401 512 434 446 q 332 663 368 578 q 342 497 338 576 q 347 369 347 419 l 347 0 l 65 0 m 1138 758 l 1411 758 l 1411 -26 q 1369 -181 1411 -125 q 1252 -260 1327 -237 q 1077 -283 1177 -283 l 1021 -283 l 1021 -83 l 1053 -83 q 1120 -68 1102 -83 q 1138 -20 1138 -53 l 1138 758 m 1274 836 q 1179 872 1219 836 q 1140 960 1140 909 q 1179 1049 1140 1013 q 1274 1085 1219 1085 q 1369 1049 1330 1085 q 1409 960 1409 1013 q 1369 872 1409 909 q 1274 836 1330 836 z "},"O":{"ha":1077,"x_min":47,"x_max":1029,"o":"m 538 -14 q 289 46 401 -14 q 113 221 178 106 q 47 505 47 337 q 113 789 47 673 q 289 965 178 905 q 538 1024 401 1024 q 787 965 676 1024 q 964 789 899 905 q 1029 505 1029 673 q 964 221 1029 336 q 787 46 899 105 q 538 -14 676 -14 m 538 225 q 694 297 641 225 q 747 505 747 369 q 694 713 747 641 q 538 785 641 785 q 383 713 437 785 q 330 505 330 641 q 383 297 330 369 q 538 225 437 225 z "},"Ö":{"ha":1077,"x_min":47,"x_max":1029,"o":"m 538 -14 q 289 46 401 -14 q 113 221 178 106 q 47 505 47 337 q 113 789 47 673 q 289 965 178 905 q 538 1024 401 1024 q 787 965 676 1024 q 964 789 899 905 q 1029 505 1029 673 q 964 221 1029 336 q 787 46 899 105 q 538 -14 676 -14 m 538 225 q 694 297 641 225 q 747 505 747 369 q 694 713 747 641 q 538 785 641 785 q 383 713 437 785 q 330 505 330 641 q 383 297 330 369 q 538 225 437 225 m 382 1098 q 297 1132 332 1098 q 262 1213 262 1165 q 297 1294 262 1260 q 382 1327 332 1327 q 466 1294 431 1327 q 501 1213 501 1260 q 466 1132 501 1165 q 382 1098 431 1098 m 695 1098 q 611 1132 646 1098 q 576 1213 576 1165 q 611 1294 576 1260 q 695 1327 646 1327 q 780 1294 745 1327 q 814 1213 814 1260 q 780 1132 814 1165 q 695 1098 745 1098 z "},"Õ":{"ha":1077,"x_min":47,"x_max":1029,"o":"m 538 -14 q 289 46 401 -14 q 113 221 178 106 q 47 505 47 337 q 113 789 47 673 q 289 965 178 905 q 538 1024 401 1024 q 787 965 676 1024 q 964 789 899 905 q 1029 505 1029 673 q 964 221 1029 336 q 787 46 899 105 q 538 -14 676 -14 m 538 225 q 694 297 641 225 q 747 505 747 369 q 694 713 747 641 q 538 785 641 785 q 383 713 437 785 q 330 505 330 641 q 383 297 330 369 q 538 225 437 225 m 639 1104 q 573 1116 600 1104 q 527 1145 547 1128 q 491 1173 508 1161 q 456 1185 475 1185 q 404 1109 408 1185 l 270 1109 q 320 1269 272 1217 q 438 1321 368 1321 q 521 1301 489 1321 q 575 1261 553 1281 q 621 1242 598 1242 q 662 1262 650 1242 q 674 1317 673 1282 l 807 1317 q 757 1158 806 1213 q 639 1104 708 1104 z "},"Ø":{"ha":1077,"x_min":47,"x_max":1029,"o":"m 538 -14 q 289 46 401 -14 q 113 221 178 106 q 47 505 47 337 q 113 789 47 673 q 289 965 178 905 q 538 1024 401 1024 q 787 965 676 1024 q 964 789 899 905 q 1029 505 1029 673 q 964 221 1029 336 q 787 46 899 105 q 538 -14 676 -14 m 538 225 q 694 297 641 225 q 747 505 747 369 q 694 713 747 641 q 538 785 641 785 q 383 713 437 785 q 330 505 330 641 q 383 297 330 369 q 538 225 437 225 m 224 -53 l 115 22 l 852 1062 l 962 986 l 224 -53 z "},"Ơ":{"ha":1104,"x_min":47,"x_max":1043,"o":"m 538 -14 q 289 46 401 -14 q 113 221 178 106 q 47 505 47 337 q 113 789 47 673 q 289 965 178 905 q 538 1024 401 1024 q 552 1024 545 1024 l 552 1024 q 622 1021 591 1024 q 690 1014 653 1017 q 785 1010 728 1010 q 807 1032 807 1010 l 807 1152 l 1043 1152 l 1043 1010 q 1006 905 1043 940 q 913 862 970 870 q 999 707 968 797 q 1029 505 1029 618 q 964 221 1029 336 q 787 46 899 105 q 538 -14 676 -14 m 538 225 q 694 297 641 225 q 747 505 747 369 q 694 713 747 641 q 538 785 641 785 q 383 713 437 785 q 330 505 330 641 q 383 297 330 369 q 538 225 437 225 z "},"Ò":{"ha":1077,"x_min":47,"x_max":1029,"o":"m 538 -14 q 289 46 401 -14 q 113 221 178 106 q 47 505 47 337 q 113 789 47 673 q 289 965 178 905 q 538 1024 401 1024 q 787 965 676 1024 q 964 789 899 905 q 1029 505 1029 673 q 964 221 1029 336 q 787 46 899 105 q 538 -14 676 -14 m 538 225 q 694 297 641 225 q 747 505 747 369 q 694 713 747 641 q 538 785 641 785 q 383 713 437 785 q 330 505 330 641 q 383 297 330 369 q 538 225 437 225 m 450 1104 l 302 1325 l 536 1325 l 629 1104 l 450 1104 z "},"Ó":{"ha":1077,"x_min":47,"x_max":1029,"o":"m 538 -14 q 289 46 401 -14 q 113 221 178 106 q 47 505 47 337 q 113 789 47 673 q 289 965 178 905 q 538 1024 401 1024 q 787 965 676 1024 q 964 789 899 905 q 1029 505 1029 673 q 964 221 1029 336 q 787 46 899 105 q 538 -14 676 -14 m 538 225 q 694 297 641 225 q 747 505 747 369 q 694 713 747 641 q 538 785 641 785 q 383 713 437 785 q 330 505 330 641 q 383 297 330 369 q 538 225 437 225 m 448 1104 l 541 1325 l 774 1325 l 627 1104 l 448 1104 z "},"Ô":{"ha":1077,"x_min":47,"x_max":1029,"o":"m 538 -14 q 289 46 401 -14 q 113 221 178 106 q 47 505 47 337 q 113 789 47 673 q 289 965 178 905 q 538 1024 401 1024 q 787 965 676 1024 q 964 789 899 905 q 1029 505 1029 673 q 964 221 1029 336 q 787 46 899 105 q 538 -14 676 -14 m 538 225 q 694 297 641 225 q 747 505 747 369 q 694 713 747 641 q 538 785 641 785 q 383 713 437 785 q 330 505 330 641 q 383 297 330 369 q 538 225 437 225 m 442 1104 l 217 1104 l 217 1108 l 444 1325 l 633 1325 l 860 1108 l 860 1104 l 635 1104 l 538 1217 l 442 1104 z "},"Ō":{"ha":1077,"x_min":47,"x_max":1029,"o":"m 538 -14 q 289 46 401 -14 q 113 221 178 106 q 47 505 47 337 q 113 789 47 673 q 289 965 178 905 q 538 1024 401 1024 q 787 965 676 1024 q 964 789 899 905 q 1029 505 1029 673 q 964 221 1029 336 q 787 46 899 105 q 538 -14 676 -14 m 538 225 q 694 297 641 225 q 747 505 747 369 q 694 713 747 641 q 538 785 641 785 q 383 713 437 785 q 330 505 330 641 q 383 297 330 369 q 538 225 437 225 m 742 1291 l 742 1134 l 335 1134 l 335 1291 l 742 1291 z "},"Ŏ":{"ha":1077,"x_min":47,"x_max":1029,"o":"m 538 -14 q 289 46 401 -14 q 113 221 178 106 q 47 505 47 337 q 113 789 47 673 q 289 965 178 905 q 538 1024 401 1024 q 787 965 676 1024 q 964 789 899 905 q 1029 505 1029 673 q 964 221 1029 336 q 787 46 899 105 q 538 -14 676 -14 m 538 225 q 694 297 641 225 q 747 505 747 369 q 694 713 747 641 q 538 785 641 785 q 383 713 437 785 q 330 505 330 641 q 383 297 330 369 q 538 225 437 225 m 538 1093 q 402 1123 463 1093 q 308 1205 342 1154 q 273 1320 273 1257 l 416 1320 q 452 1253 416 1280 q 538 1225 487 1225 q 624 1253 589 1225 q 659 1320 659 1280 l 804 1320 q 769 1205 804 1257 q 674 1123 734 1154 q 538 1093 614 1093 z "},"Ő":{"ha":1077,"x_min":47,"x_max":1029,"o":"m 538 -14 q 289 46 401 -14 q 113 221 178 106 q 47 505 47 337 q 113 789 47 673 q 289 965 178 905 q 538 1024 401 1024 q 787 965 676 1024 q 964 789 899 905 q 1029 505 1029 673 q 964 221 1029 336 q 787 46 899 105 q 538 -14 676 -14 m 538 225 q 694 297 641 225 q 747 505 747 369 q 694 713 747 641 q 538 785 641 785 q 383 713 437 785 q 330 505 330 641 q 383 297 330 369 q 538 225 437 225 m 704 1104 l 519 1104 l 635 1325 l 879 1325 l 704 1104 m 453 1104 l 274 1104 l 340 1325 l 562 1325 l 453 1104 z "},"Ǒ":{"ha":1077,"x_min":47,"x_max":1029,"o":"m 538 -14 q 289 46 401 -14 q 113 221 178 106 q 47 505 47 337 q 113 789 47 673 q 289 965 178 905 q 538 1024 401 1024 q 787 965 676 1024 q 964 789 899 905 q 1029 505 1029 673 q 964 221 1029 336 q 787 46 899 105 q 538 -14 676 -14 m 538 225 q 694 297 641 225 q 747 505 747 369 q 694 713 747 641 q 538 785 641 785 q 383 713 437 785 q 330 505 330 641 q 383 297 330 369 q 538 225 437 225 m 442 1325 l 538 1213 l 635 1325 l 860 1325 l 860 1321 l 633 1104 l 444 1104 l 217 1321 l 217 1325 l 442 1325 z "},"Ǫ":{"ha":1077,"x_min":47,"x_max":1029,"o":"m 538 -14 q 289 46 401 -14 q 113 221 178 106 q 47 505 47 337 q 113 789 47 673 q 289 965 178 905 q 538 1024 401 1024 q 787 965 676 1024 q 964 789 899 905 q 1029 505 1029 673 q 964 221 1029 336 q 787 46 899 105 q 538 -14 676 -14 m 538 225 q 694 297 641 225 q 747 505 747 369 q 694 713 747 641 q 538 785 641 785 q 383 713 437 785 q 330 505 330 641 q 383 297 330 369 q 538 225 437 225 m 574 -289 q 431 -248 484 -289 q 378 -136 378 -208 q 410 -45 378 -81 q 494 19 442 -8 q 609 72 547 46 q 734 131 672 98 q 849 212 797 164 q 933 331 901 260 q 965 505 965 401 l 1029 505 q 999 290 1029 376 q 919 149 968 204 q 815 60 870 94 q 712 3 761 26 q 632 -43 663 -20 q 602 -98 602 -65 q 644 -145 602 -145 q 688 -132 664 -145 l 734 -254 q 661 -280 705 -271 q 574 -289 616 -289 z "},"Ǭ":{"ha":1077,"x_min":47,"x_max":1029,"o":"m 538 -14 q 289 46 401 -14 q 113 221 178 106 q 47 505 47 337 q 113 789 47 673 q 289 965 178 905 q 538 1024 401 1024 q 787 965 676 1024 q 964 789 899 905 q 1029 505 1029 673 q 964 221 1029 336 q 787 46 899 105 q 538 -14 676 -14 m 538 225 q 694 297 641 225 q 747 505 747 369 q 694 713 747 641 q 538 785 641 785 q 383 713 437 785 q 330 505 330 641 q 383 297 330 369 q 538 225 437 225 m 574 -289 q 431 -248 484 -289 q 378 -136 378 -208 q 410 -45 378 -81 q 494 19 442 -8 q 609 72 547 46 q 734 131 672 98 q 849 212 797 164 q 933 331 901 260 q 965 505 965 401 l 1029 505 q 999 290 1029 376 q 919 149 968 204 q 815 60 870 94 q 712 3 761 26 q 632 -43 663 -20 q 602 -98 602 -65 q 644 -145 602 -145 q 688 -132 664 -145 l 734 -254 q 661 -280 705 -271 q 574 -289 616 -289 m 742 1291 l 742 1134 l 335 1134 l 335 1291 l 742 1291 z "},"Ȍ":{"ha":1077,"x_min":47,"x_max":1029,"o":"m 538 -14 q 289 46 401 -14 q 113 221 178 106 q 47 505 47 337 q 113 789 47 673 q 289 965 178 905 q 538 1024 401 1024 q 787 965 676 1024 q 964 789 899 905 q 1029 505 1029 673 q 964 221 1029 336 q 787 46 899 105 q 538 -14 676 -14 m 538 225 q 694 297 641 225 q 747 505 747 369 q 694 713 747 641 q 538 785 641 785 q 383 713 437 785 q 330 505 330 641 q 383 297 330 369 q 538 225 437 225 m 323 1104 l 148 1325 l 392 1325 l 507 1104 l 323 1104 m 574 1104 l 465 1325 l 686 1325 l 753 1104 l 574 1104 z "},"Ȏ":{"ha":1077,"x_min":47,"x_max":1029,"o":"m 538 -14 q 289 46 401 -14 q 113 221 178 106 q 47 505 47 337 q 113 789 47 673 q 289 965 178 905 q 538 1024 401 1024 q 787 965 676 1024 q 964 789 899 905 q 1029 505 1029 673 q 964 221 1029 336 q 787 46 899 105 q 538 -14 676 -14 m 538 225 q 694 297 641 225 q 747 505 747 369 q 694 713 747 641 q 538 785 641 785 q 383 713 437 785 q 330 505 330 641 q 383 297 330 369 q 538 225 437 225 m 538 1331 q 674 1300 614 1331 q 769 1219 734 1270 q 804 1104 804 1168 l 659 1104 q 624 1171 659 1144 q 538 1198 589 1198 q 452 1171 487 1198 q 416 1104 416 1144 l 273 1104 q 308 1219 273 1168 q 402 1300 342 1270 q 538 1331 463 1331 z "},"Ȫ":{"ha":1077,"x_min":47,"x_max":1029,"o":"m 538 -14 q 289 46 401 -14 q 113 221 178 106 q 47 505 47 337 q 113 789 47 673 q 289 965 178 905 q 538 1024 401 1024 q 787 965 676 1024 q 964 789 899 905 q 1029 505 1029 673 q 964 221 1029 336 q 787 46 899 105 q 538 -14 676 -14 m 538 225 q 694 297 641 225 q 747 505 747 369 q 694 713 747 641 q 538 785 641 785 q 383 713 437 785 q 330 505 330 641 q 383 297 330 369 q 538 225 437 225 m 742 1512 l 742 1386 l 335 1386 l 335 1512 l 742 1512 m 382 1082 q 297 1115 332 1082 q 262 1196 262 1149 q 297 1277 262 1244 q 382 1311 332 1311 q 466 1277 431 1311 q 501 1196 501 1244 q 466 1115 501 1149 q 382 1082 431 1082 m 695 1082 q 611 1115 646 1082 q 576 1196 576 1149 q 611 1277 576 1244 q 695 1311 646 1311 q 780 1277 745 1311 q 814 1196 814 1244 q 780 1115 814 1149 q 695 1082 745 1082 z "},"Ȭ":{"ha":1077,"x_min":47,"x_max":1029,"o":"m 538 -14 q 289 46 401 -14 q 113 221 178 106 q 47 505 47 337 q 113 789 47 673 q 289 965 178 905 q 538 1024 401 1024 q 787 965 676 1024 q 964 789 899 905 q 1029 505 1029 673 q 964 221 1029 336 q 787 46 899 105 q 538 -14 676 -14 m 538 225 q 694 297 641 225 q 747 505 747 369 q 694 713 747 641 q 538 785 641 785 q 383 713 437 785 q 330 505 330 641 q 383 297 330 369 q 538 225 437 225 m 639 1088 q 573 1100 600 1088 q 527 1128 547 1112 q 491 1157 508 1145 q 456 1169 475 1169 q 404 1093 408 1169 l 270 1093 q 320 1253 272 1200 q 438 1305 368 1305 q 521 1285 489 1305 q 575 1245 553 1265 q 621 1225 598 1225 q 662 1245 650 1225 q 674 1301 673 1265 l 807 1301 q 757 1142 806 1196 q 639 1088 708 1088 m 743 1512 l 743 1386 l 336 1386 l 336 1512 l 743 1512 z "},"Ȯ":{"ha":1077,"x_min":47,"x_max":1029,"o":"m 538 -14 q 289 46 401 -14 q 113 221 178 106 q 47 505 47 337 q 113 789 47 673 q 289 965 178 905 q 538 1024 401 1024 q 787 965 676 1024 q 964 789 899 905 q 1029 505 1029 673 q 964 221 1029 336 q 787 46 899 105 q 538 -14 676 -14 m 538 225 q 694 297 641 225 q 747 505 747 369 q 694 713 747 641 q 538 785 641 785 q 383 713 437 785 q 330 505 330 641 q 383 297 330 369 q 538 225 437 225 m 538 1088 q 444 1124 483 1088 q 404 1213 404 1161 q 444 1301 404 1265 q 538 1337 483 1337 q 633 1301 594 1337 q 673 1213 673 1265 q 633 1124 673 1161 q 538 1088 594 1088 z "},"Ȱ":{"ha":1077,"x_min":47,"x_max":1029,"o":"m 538 -14 q 289 46 401 -14 q 113 221 178 106 q 47 505 47 337 q 113 789 47 673 q 289 965 178 905 q 538 1024 401 1024 q 787 965 676 1024 q 964 789 899 905 q 1029 505 1029 673 q 964 221 1029 336 q 787 46 899 105 q 538 -14 676 -14 m 538 225 q 694 297 641 225 q 747 505 747 369 q 694 713 747 641 q 538 785 641 785 q 383 713 437 785 q 330 505 330 641 q 383 297 330 369 q 538 225 437 225 m 538 1072 q 444 1108 483 1072 q 404 1196 404 1145 q 444 1285 404 1249 q 538 1321 483 1321 q 633 1285 594 1321 q 673 1196 673 1249 q 633 1108 673 1145 q 538 1072 594 1072 m 743 1512 l 743 1386 l 336 1386 l 336 1512 l 743 1512 z "},"Ṍ":{"ha":1077,"x_min":47,"x_max":1029,"o":"m 538 -14 q 289 46 401 -14 q 113 221 178 106 q 47 505 47 337 q 113 789 47 673 q 289 965 178 905 q 538 1024 401 1024 q 787 965 676 1024 q 964 789 899 905 q 1029 505 1029 673 q 964 221 1029 336 q 787 46 899 105 q 538 -14 676 -14 m 538 225 q 694 297 641 225 q 747 505 747 369 q 694 713 747 641 q 538 785 641 785 q 383 713 437 785 q 330 505 330 641 q 383 297 330 369 q 538 225 437 225 m 639 1088 q 573 1100 600 1088 q 527 1128 547 1112 q 491 1157 508 1145 q 456 1169 475 1169 q 404 1093 408 1169 l 270 1093 q 320 1253 272 1200 q 438 1305 368 1305 q 521 1285 489 1305 q 575 1245 553 1265 q 621 1225 598 1225 q 662 1245 650 1225 q 674 1301 673 1265 l 807 1301 q 757 1142 806 1196 q 639 1088 708 1088 m 460 1359 l 534 1536 l 722 1536 l 603 1359 l 460 1359 z "},"Ṏ":{"ha":1077,"x_min":47,"x_max":1029,"o":"m 538 -14 q 289 46 401 -14 q 113 221 178 106 q 47 505 47 337 q 113 789 47 673 q 289 965 178 905 q 538 1024 401 1024 q 787 965 676 1024 q 964 789 899 905 q 1029 505 1029 673 q 964 221 1029 336 q 787 46 899 105 q 538 -14 676 -14 m 538 225 q 694 297 641 225 q 747 505 747 369 q 694 713 747 641 q 538 785 641 785 q 383 713 437 785 q 330 505 330 641 q 383 297 330 369 q 538 225 437 225 m 639 1088 q 573 1100 600 1088 q 527 1128 547 1112 q 491 1157 508 1145 q 456 1169 475 1169 q 404 1093 408 1169 l 270 1093 q 320 1253 272 1200 q 438 1305 368 1305 q 521 1285 489 1305 q 575 1245 553 1265 q 621 1225 598 1225 q 662 1245 650 1225 q 674 1301 673 1265 l 807 1301 q 757 1142 806 1196 q 639 1088 708 1088 m 382 1357 q 297 1387 332 1357 q 262 1459 262 1417 q 297 1532 262 1502 q 382 1563 332 1563 q 466 1532 431 1563 q 501 1459 501 1502 q 466 1387 501 1417 q 382 1357 431 1357 m 695 1357 q 611 1387 646 1357 q 576 1459 576 1417 q 611 1532 576 1502 q 695 1563 646 1563 q 780 1532 745 1563 q 814 1459 814 1502 q 780 1387 814 1417 q 695 1357 745 1357 z "},"Ṑ":{"ha":1077,"x_min":47,"x_max":1029,"o":"m 538 -14 q 289 46 401 -14 q 113 221 178 106 q 47 505 47 337 q 113 789 47 673 q 289 965 178 905 q 538 1024 401 1024 q 787 965 676 1024 q 964 789 899 905 q 1029 505 1029 673 q 964 221 1029 336 q 787 46 899 105 q 538 -14 676 -14 m 538 225 q 694 297 641 225 q 747 505 747 369 q 694 713 747 641 q 538 785 641 785 q 383 713 437 785 q 330 505 330 641 q 383 297 330 369 q 538 225 437 225 m 742 1275 l 742 1118 l 335 1118 l 335 1275 l 742 1275 m 478 1359 l 360 1536 l 547 1536 l 622 1359 l 478 1359 z "},"Ṓ":{"ha":1077,"x_min":47,"x_max":1029,"o":"m 538 -14 q 289 46 401 -14 q 113 221 178 106 q 47 505 47 337 q 113 789 47 673 q 289 965 178 905 q 538 1024 401 1024 q 787 965 676 1024 q 964 789 899 905 q 1029 505 1029 673 q 964 221 1029 336 q 787 46 899 105 q 538 -14 676 -14 m 538 225 q 694 297 641 225 q 747 505 747 369 q 694 713 747 641 q 538 785 641 785 q 383 713 437 785 q 330 505 330 641 q 383 297 330 369 q 538 225 437 225 m 742 1275 l 742 1118 l 335 1118 l 335 1275 l 742 1275 m 467 1359 l 542 1536 l 729 1536 l 610 1359 l 467 1359 z "},"Ọ":{"ha":1077,"x_min":47,"x_max":1029,"o":"m 538 -14 q 289 46 401 -14 q 113 221 178 106 q 47 505 47 337 q 113 789 47 673 q 289 965 178 905 q 538 1024 401 1024 q 787 965 676 1024 q 964 789 899 905 q 1029 505 1029 673 q 964 221 1029 336 q 787 46 899 105 q 538 -14 676 -14 m 538 225 q 694 297 641 225 q 747 505 747 369 q 694 713 747 641 q 538 785 641 785 q 383 713 437 785 q 330 505 330 641 q 383 297 330 369 q 538 225 437 225 m 538 -327 q 444 -290 483 -327 q 404 -202 404 -254 q 444 -114 404 -150 q 538 -77 483 -77 q 633 -114 594 -77 q 673 -202 673 -150 q 633 -290 673 -254 q 538 -327 594 -327 z "},"Ỏ":{"ha":1077,"x_min":47,"x_max":1029,"o":"m 538 -14 q 289 46 401 -14 q 113 221 178 106 q 47 505 47 337 q 113 789 47 673 q 289 965 178 905 q 538 1024 401 1024 q 787 965 676 1024 q 964 789 899 905 q 1029 505 1029 673 q 964 221 1029 336 q 787 46 899 105 q 538 -14 676 -14 m 538 225 q 694 297 641 225 q 747 505 747 369 q 694 713 747 641 q 538 785 641 785 q 383 713 437 785 q 330 505 330 641 q 383 297 330 369 q 538 225 437 225 m 606 1104 l 460 1104 l 516 1196 q 513 1201 519 1201 l 393 1201 l 393 1325 l 513 1325 q 621 1307 583 1325 q 671 1261 659 1289 q 675 1203 684 1234 q 645 1147 667 1173 l 606 1104 z "},"Ố":{"ha":1077,"x_min":47,"x_max":1029,"o":"m 538 -14 q 289 46 401 -14 q 113 221 178 106 q 47 505 47 337 q 113 789 47 673 q 289 965 178 905 q 538 1024 401 1024 q 787 965 676 1024 q 964 789 899 905 q 1029 505 1029 673 q 964 221 1029 336 q 787 46 899 105 q 538 -14 676 -14 m 538 225 q 694 297 641 225 q 747 505 747 369 q 694 713 747 641 q 538 785 641 785 q 383 713 437 785 q 330 505 330 641 q 383 297 330 369 q 538 225 437 225 m 442 1086 l 217 1086 l 217 1090 l 444 1307 l 633 1307 l 860 1090 l 860 1086 l 635 1086 l 538 1198 l 442 1086 m 651 1359 l 726 1536 l 913 1536 l 794 1359 l 651 1359 z "},"Ồ":{"ha":1077,"x_min":47,"x_max":1029,"o":"m 538 -14 q 289 46 401 -14 q 113 221 178 106 q 47 505 47 337 q 113 789 47 673 q 289 965 178 905 q 538 1024 401 1024 q 787 965 676 1024 q 964 789 899 905 q 1029 505 1029 673 q 964 221 1029 336 q 787 46 899 105 q 538 -14 676 -14 m 538 225 q 694 297 641 225 q 747 505 747 369 q 694 713 747 641 q 538 785 641 785 q 383 713 437 785 q 330 505 330 641 q 383 297 330 369 q 538 225 437 225 m 442 1086 l 217 1086 l 217 1090 l 444 1307 l 633 1307 l 860 1090 l 860 1086 l 635 1086 l 538 1198 l 442 1086 m 733 1359 l 615 1536 l 802 1536 l 877 1359 l 733 1359 z "},"Ổ":{"ha":1077,"x_min":47,"x_max":1029,"o":"m 538 -14 q 289 46 401 -14 q 113 221 178 106 q 47 505 47 337 q 113 789 47 673 q 289 965 178 905 q 538 1024 401 1024 q 787 965 676 1024 q 964 789 899 905 q 1029 505 1029 673 q 964 221 1029 336 q 787 46 899 105 q 538 -14 676 -14 m 538 225 q 694 297 641 225 q 747 505 747 369 q 694 713 747 641 q 538 785 641 785 q 383 713 437 785 q 330 505 330 641 q 383 297 330 369 q 538 225 437 225 m 442 1086 l 217 1086 l 217 1090 l 444 1307 l 633 1307 l 860 1090 l 860 1086 l 635 1086 l 538 1198 l 442 1086 m 768 1359 l 652 1359 l 697 1433 q 695 1436 699 1436 l 599 1436 l 599 1536 l 695 1536 q 800 1511 770 1536 q 827 1453 829 1487 q 800 1394 824 1420 l 768 1359 z "},"Ỗ":{"ha":1077,"x_min":47,"x_max":1029,"o":"m 538 -14 q 289 46 401 -14 q 113 221 178 106 q 47 505 47 337 q 113 789 47 673 q 289 965 178 905 q 538 1024 401 1024 q 787 965 676 1024 q 964 789 899 905 q 1029 505 1029 673 q 964 221 1029 336 q 787 46 899 105 q 538 -14 676 -14 m 538 225 q 694 297 641 225 q 747 505 747 369 q 694 713 747 641 q 538 785 641 785 q 383 713 437 785 q 330 505 330 641 q 383 297 330 369 q 538 225 437 225 m 442 1086 l 217 1086 l 217 1090 l 444 1307 l 633 1307 l 860 1090 l 860 1086 l 635 1086 l 538 1198 l 442 1086 m 639 1354 q 556 1371 587 1354 q 503 1404 526 1388 q 456 1421 481 1421 q 404 1358 408 1421 l 270 1358 q 320 1491 272 1447 q 438 1534 368 1534 q 521 1518 489 1534 q 575 1485 553 1501 q 621 1468 598 1468 q 662 1485 650 1468 q 674 1531 673 1501 l 807 1531 q 757 1399 806 1444 q 639 1354 708 1354 z "},"Ộ":{"ha":1077,"x_min":47,"x_max":1029,"o":"m 538 -14 q 289 46 401 -14 q 113 221 178 106 q 47 505 47 337 q 113 789 47 673 q 289 965 178 905 q 538 1024 401 1024 q 787 965 676 1024 q 964 789 899 905 q 1029 505 1029 673 q 964 221 1029 336 q 787 46 899 105 q 538 -14 676 -14 m 538 225 q 694 297 641 225 q 747 505 747 369 q 694 713 747 641 q 538 785 641 785 q 383 713 437 785 q 330 505 330 641 q 383 297 330 369 q 538 225 437 225 m 442 1104 l 217 1104 l 217 1108 l 444 1325 l 633 1325 l 860 1108 l 860 1104 l 635 1104 l 538 1217 l 442 1104 m 538 -327 q 444 -290 483 -327 q 404 -202 404 -254 q 444 -114 404 -150 q 538 -77 483 -77 q 633 -114 594 -77 q 673 -202 673 -150 q 633 -290 673 -254 q 538 -327 594 -327 z "},"Ớ":{"ha":1104,"x_min":47,"x_max":1043,"o":"m 538 -14 q 289 46 401 -14 q 113 221 178 106 q 47 505 47 337 q 113 789 47 673 q 289 965 178 905 q 538 1024 401 1024 q 552 1024 545 1024 l 552 1024 q 622 1021 591 1024 q 690 1014 653 1017 q 785 1010 728 1010 q 807 1032 807 1010 l 807 1152 l 1043 1152 l 1043 1010 q 1006 905 1043 940 q 913 862 970 870 q 999 707 968 797 q 1029 505 1029 618 q 964 221 1029 336 q 787 46 899 105 q 538 -14 676 -14 m 538 225 q 694 297 641 225 q 747 505 747 369 q 694 713 747 641 q 538 785 641 785 q 383 713 437 785 q 330 505 330 641 q 383 297 330 369 q 538 225 437 225 m 448 1104 l 541 1325 l 774 1325 l 627 1104 l 448 1104 z "},"Ờ":{"ha":1104,"x_min":47,"x_max":1043,"o":"m 538 -14 q 289 46 401 -14 q 113 221 178 106 q 47 505 47 337 q 113 789 47 673 q 289 965 178 905 q 538 1024 401 1024 q 552 1024 545 1024 l 552 1024 q 622 1021 591 1024 q 690 1014 653 1017 q 785 1010 728 1010 q 807 1032 807 1010 l 807 1152 l 1043 1152 l 1043 1010 q 1006 905 1043 940 q 913 862 970 870 q 999 707 968 797 q 1029 505 1029 618 q 964 221 1029 336 q 787 46 899 105 q 538 -14 676 -14 m 538 225 q 694 297 641 225 q 747 505 747 369 q 694 713 747 641 q 538 785 641 785 q 383 713 437 785 q 330 505 330 641 q 383 297 330 369 q 538 225 437 225 m 450 1104 l 302 1325 l 536 1325 l 629 1104 l 450 1104 z "},"Ở":{"ha":1104,"x_min":47,"x_max":1043,"o":"m 538 -14 q 289 46 401 -14 q 113 221 178 106 q 47 505 47 337 q 113 789 47 673 q 289 965 178 905 q 538 1024 401 1024 q 552 1024 545 1024 l 552 1024 q 622 1021 591 1024 q 690 1014 653 1017 q 785 1010 728 1010 q 807 1032 807 1010 l 807 1152 l 1043 1152 l 1043 1010 q 1006 905 1043 940 q 913 862 970 870 q 999 707 968 797 q 1029 505 1029 618 q 964 221 1029 336 q 787 46 899 105 q 538 -14 676 -14 m 538 225 q 694 297 641 225 q 747 505 747 369 q 694 713 747 641 q 538 785 641 785 q 383 713 437 785 q 330 505 330 641 q 383 297 330 369 q 538 225 437 225 m 606 1104 l 460 1104 l 516 1196 q 513 1201 519 1201 l 393 1201 l 393 1325 l 513 1325 q 621 1307 583 1325 q 671 1261 659 1289 q 675 1203 684 1234 q 645 1147 667 1173 l 606 1104 z "},"Ỡ":{"ha":1104,"x_min":47,"x_max":1043,"o":"m 538 -14 q 289 46 401 -14 q 113 221 178 106 q 47 505 47 337 q 113 789 47 673 q 289 965 178 905 q 538 1024 401 1024 q 552 1024 545 1024 l 552 1024 q 622 1021 591 1024 q 690 1014 653 1017 q 785 1010 728 1010 q 807 1032 807 1010 l 807 1152 l 1043 1152 l 1043 1010 q 1006 905 1043 940 q 913 862 970 870 q 999 707 968 797 q 1029 505 1029 618 q 964 221 1029 336 q 787 46 899 105 q 538 -14 676 -14 m 538 225 q 694 297 641 225 q 747 505 747 369 q 694 713 747 641 q 538 785 641 785 q 383 713 437 785 q 330 505 330 641 q 383 297 330 369 q 538 225 437 225 m 639 1104 q 573 1116 600 1104 q 527 1145 547 1128 q 491 1173 508 1161 q 456 1185 475 1185 q 404 1109 408 1185 l 270 1109 q 320 1269 272 1217 q 438 1321 368 1321 q 521 1301 489 1321 q 575 1261 553 1281 q 621 1242 598 1242 q 662 1262 650 1242 q 674 1317 673 1282 l 807 1317 q 757 1158 806 1213 q 639 1104 708 1104 z "},"Ợ":{"ha":1104,"x_min":47,"x_max":1043,"o":"m 538 -14 q 289 46 401 -14 q 113 221 178 106 q 47 505 47 337 q 113 789 47 673 q 289 965 178 905 q 538 1024 401 1024 q 552 1024 545 1024 l 552 1024 q 622 1021 591 1024 q 690 1014 653 1017 q 785 1010 728 1010 q 807 1032 807 1010 l 807 1152 l 1043 1152 l 1043 1010 q 1006 905 1043 940 q 913 862 970 870 q 999 707 968 797 q 1029 505 1029 618 q 964 221 1029 336 q 787 46 899 105 q 538 -14 676 -14 m 538 225 q 694 297 641 225 q 747 505 747 369 q 694 713 747 641 q 538 785 641 785 q 383 713 437 785 q 330 505 330 641 q 383 297 330 369 q 538 225 437 225 m 538 -327 q 444 -290 483 -327 q 404 -202 404 -254 q 444 -114 404 -150 q 538 -77 483 -77 q 633 -114 594 -77 q 673 -202 673 -150 q 633 -290 673 -254 q 538 -327 594 -327 z "},"Ǿ":{"ha":1077,"x_min":47,"x_max":1029,"o":"m 538 -14 q 289 46 401 -14 q 113 221 178 106 q 47 505 47 337 q 113 789 47 673 q 289 965 178 905 q 538 1024 401 1024 q 787 965 676 1024 q 964 789 899 905 q 1029 505 1029 673 q 964 221 1029 336 q 787 46 899 105 q 538 -14 676 -14 m 538 225 q 694 297 641 225 q 747 505 747 369 q 694 713 747 641 q 538 785 641 785 q 383 713 437 785 q 330 505 330 641 q 383 297 330 369 q 538 225 437 225 m 224 -53 l 115 22 l 852 1062 l 962 986 l 224 -53 m 448 1104 l 541 1325 l 774 1325 l 627 1104 l 448 1104 z "},"Ο":{"ha":1077,"x_min":47,"x_max":1029,"o":"m 538 -14 q 289 46 401 -14 q 113 221 178 106 q 47 505 47 337 q 113 789 47 673 q 289 965 178 905 q 538 1024 401 1024 q 787 965 676 1024 q 964 789 899 905 q 1029 505 1029 673 q 964 221 1029 336 q 787 46 899 105 q 538 -14 676 -14 m 538 225 q 694 297 641 225 q 747 505 747 369 q 694 713 747 641 q 538 785 641 785 q 383 713 437 785 q 330 505 330 641 q 383 297 330 369 q 538 225 437 225 z "},"Ό":{"ha":1348,"x_min":38,"x_max":1274,"o":"m 783 -14 q 533 46 645 -14 q 357 221 422 106 q 292 505 292 337 q 357 789 292 673 q 533 965 422 905 q 783 1024 645 1024 q 1031 965 920 1024 q 1208 789 1143 905 q 1274 505 1274 673 q 1208 221 1274 336 q 1031 46 1143 105 q 783 -14 920 -14 m 783 225 q 938 297 885 225 q 991 505 991 369 q 938 713 991 641 q 783 785 885 785 q 627 713 681 785 q 574 505 574 641 q 627 297 574 369 q 783 225 681 225 m 38 789 l 60 1010 l 288 1010 l 190 789 l 38 789 z "},"Ὀ":{"ha":1312,"x_min":38,"x_max":1238,"o":"m 747 -14 q 497 46 609 -14 q 321 221 386 106 q 256 505 256 337 q 321 789 256 673 q 497 965 386 905 q 747 1024 609 1024 q 996 965 884 1024 q 1172 789 1107 905 q 1238 505 1238 673 q 1172 221 1238 336 q 996 46 1107 105 q 747 -14 884 -14 m 747 225 q 902 297 849 225 q 956 505 956 369 q 902 713 956 641 q 747 785 849 785 q 591 713 645 785 q 538 505 538 641 q 591 297 538 369 q 747 225 645 225 m 73 780 l 64 780 l 64 841 l 73 841 q 147 880 147 841 q 82 916 147 916 l 38 916 l 38 1026 l 73 1026 q 217 993 167 1026 q 267 901 267 960 q 216 810 267 841 q 73 780 165 780 z "},"Ὁ":{"ha":1334,"x_min":38,"x_max":1259,"o":"m 768 -14 q 519 46 631 -14 q 342 221 408 106 q 277 505 277 337 q 342 789 277 673 q 519 965 408 905 q 768 1024 631 1024 q 1017 965 906 1024 q 1194 789 1128 905 q 1259 505 1259 673 q 1194 221 1259 336 q 1017 46 1128 105 q 768 -14 906 -14 m 768 225 q 924 297 871 225 q 977 505 977 369 q 924 713 977 641 q 768 785 871 785 q 613 713 667 785 q 559 505 559 641 q 613 297 559 369 q 768 225 667 225 m 233 769 q 89 800 140 769 q 38 890 38 830 q 88 982 38 949 q 233 1015 138 1015 l 267 1015 l 267 905 l 223 905 q 158 869 158 905 q 233 830 158 830 l 241 830 l 241 769 l 233 769 z "},"Ὂ":{"ha":1611,"x_min":38,"x_max":1536,"o":"m 1045 -14 q 796 46 907 -14 q 619 221 684 106 q 554 505 554 337 q 619 789 554 673 q 796 965 684 905 q 1045 1024 907 1024 q 1294 965 1183 1024 q 1471 789 1405 905 q 1536 505 1536 673 q 1471 221 1536 336 q 1294 46 1405 105 q 1045 -14 1183 -14 m 1045 225 q 1201 297 1147 225 q 1254 505 1254 369 q 1201 713 1254 641 q 1045 785 1147 785 q 890 713 943 785 q 836 505 836 641 q 890 297 836 369 q 1045 225 943 225 m 73 769 l 64 769 l 64 830 l 73 830 q 147 869 147 830 q 82 905 147 905 l 38 905 l 38 1015 l 73 1015 q 217 982 167 1015 q 267 890 267 949 q 216 800 267 830 q 73 769 165 769 m 509 781 l 377 781 l 293 1010 l 490 1010 l 509 781 z "},"Ὃ":{"ha":1643,"x_min":38,"x_max":1569,"o":"m 1078 -14 q 828 46 940 -14 q 652 221 717 106 q 587 505 587 337 q 652 789 587 673 q 828 965 717 905 q 1078 1024 940 1024 q 1326 965 1215 1024 q 1503 789 1438 905 q 1569 505 1569 673 q 1503 221 1569 336 q 1326 46 1438 105 q 1078 -14 1215 -14 m 1078 225 q 1233 297 1180 225 q 1286 505 1286 369 q 1233 713 1286 641 q 1078 785 1180 785 q 922 713 976 785 q 869 505 869 641 q 922 297 869 369 q 1078 225 976 225 m 233 769 q 89 800 140 769 q 38 890 38 830 q 88 982 38 949 q 233 1015 138 1015 l 267 1015 l 267 905 l 223 905 q 158 869 158 905 q 233 830 158 830 l 241 830 l 241 769 l 233 769 m 531 781 l 399 781 l 315 1010 l 512 1010 l 531 781 z "},"Ὄ":{"ha":1622,"x_min":38,"x_max":1547,"o":"m 1056 -14 q 807 46 918 -14 q 630 221 695 106 q 565 505 565 337 q 630 789 565 673 q 807 965 695 905 q 1056 1024 918 1024 q 1305 965 1194 1024 q 1481 789 1416 905 q 1547 505 1547 673 q 1481 221 1547 336 q 1305 46 1416 105 q 1056 -14 1194 -14 m 1056 225 q 1212 297 1158 225 q 1265 505 1265 369 q 1212 713 1265 641 q 1056 785 1158 785 q 901 713 954 785 q 847 505 847 641 q 901 297 847 369 q 1056 225 954 225 m 73 769 l 64 769 l 64 830 l 73 830 q 147 869 147 830 q 82 905 147 905 l 38 905 l 38 1015 l 73 1015 q 217 982 167 1015 q 267 890 267 949 q 216 800 267 830 q 73 769 165 769 m 355 781 l 373 1010 l 570 1010 l 486 781 l 355 781 z "},"Ὅ":{"ha":1654,"x_min":38,"x_max":1579,"o":"m 1088 -14 q 839 46 951 -14 q 663 221 728 106 q 597 505 597 337 q 663 789 597 673 q 839 965 728 905 q 1088 1024 951 1024 q 1337 965 1226 1024 q 1514 789 1449 905 q 1579 505 1579 673 q 1514 221 1579 336 q 1337 46 1449 105 q 1088 -14 1226 -14 m 1088 225 q 1244 297 1191 225 q 1297 505 1297 369 q 1244 713 1297 641 q 1088 785 1191 785 q 933 713 987 785 q 880 505 880 641 q 933 297 880 369 q 1088 225 987 225 m 233 769 q 89 800 140 769 q 38 890 38 830 q 88 982 38 949 q 233 1015 138 1015 l 267 1015 l 267 905 l 223 905 q 158 869 158 905 q 233 830 158 830 l 241 830 l 241 769 l 233 769 m 376 781 l 395 1010 l 592 1010 l 507 781 l 376 781 z "},"Ὸ":{"ha":1077,"x_min":-286,"x_max":1029,"o":"m 538 -14 q 289 46 401 -14 q 113 221 178 106 q 47 505 47 337 q 113 789 47 673 q 289 965 178 905 q 538 1024 401 1024 q 787 965 676 1024 q 964 789 899 905 q 1029 505 1029 673 q 964 221 1029 336 q 787 46 899 105 q 538 -14 676 -14 m 538 225 q 694 297 641 225 q 747 505 747 369 q 694 713 747 641 q 538 785 641 785 q 383 713 437 785 q 330 505 330 641 q 383 297 330 369 q 538 225 437 225 m -37 840 l -189 840 l -286 1061 l -58 1061 l -37 840 z "},"ϴ":{"ha":1077,"x_min":47,"x_max":1029,"o":"m 538 -14 q 289 46 401 -14 q 113 221 178 106 q 47 505 47 337 q 113 789 47 673 q 289 965 178 905 q 538 1024 401 1024 q 787 965 676 1024 q 964 789 899 905 q 1029 505 1029 673 q 964 221 1029 336 q 787 46 899 105 q 538 -14 676 -14 m 538 225 q 676 276 625 225 q 742 426 728 328 l 335 426 q 401 276 349 328 q 538 225 452 225 m 335 585 l 742 585 q 676 734 728 682 q 538 785 625 785 q 401 734 453 785 q 335 585 349 682 z "},"Ό":{"ha":1348,"x_min":38,"x_max":1274,"o":"m 783 -14 q 533 46 645 -14 q 357 221 422 106 q 292 505 292 337 q 357 789 292 673 q 533 965 422 905 q 783 1024 645 1024 q 1031 965 920 1024 q 1208 789 1143 905 q 1274 505 1274 673 q 1208 221 1274 336 q 1031 46 1143 105 q 783 -14 920 -14 m 783 225 q 938 297 885 225 q 991 505 991 369 q 938 713 991 641 q 783 785 885 785 q 627 713 681 785 q 574 505 574 641 q 627 297 574 369 q 783 225 681 225 m 38 789 l 60 1010 l 288 1010 l 190 789 l 38 789 z "},"О":{"ha":1077,"x_min":47,"x_max":1029,"o":"m 538 -14 q 289 46 401 -14 q 113 221 178 106 q 47 505 47 337 q 113 789 47 673 q 289 965 178 905 q 538 1024 401 1024 q 787 965 676 1024 q 964 789 899 905 q 1029 505 1029 673 q 964 221 1029 336 q 787 46 899 105 q 538 -14 676 -14 m 538 225 q 694 297 641 225 q 747 505 747 369 q 694 713 747 641 q 538 785 641 785 q 383 713 437 785 q 330 505 330 641 q 383 297 330 369 q 538 225 437 225 z "},"Ӧ":{"ha":1077,"x_min":47,"x_max":1029,"o":"m 538 -14 q 289 46 401 -14 q 113 221 178 106 q 47 505 47 337 q 113 789 47 673 q 289 965 178 905 q 538 1024 401 1024 q 787 965 676 1024 q 964 789 899 905 q 1029 505 1029 673 q 964 221 1029 336 q 787 46 899 105 q 538 -14 676 -14 m 538 225 q 694 297 641 225 q 747 505 747 369 q 694 713 747 641 q 538 785 641 785 q 383 713 437 785 q 330 505 330 641 q 383 297 330 369 q 538 225 437 225 m 382 1098 q 297 1132 332 1098 q 262 1213 262 1165 q 297 1294 262 1260 q 382 1327 332 1327 q 466 1294 431 1327 q 501 1213 501 1260 q 466 1132 501 1165 q 382 1098 431 1098 m 695 1098 q 611 1132 646 1098 q 576 1213 576 1165 q 611 1294 576 1260 q 695 1327 646 1327 q 780 1294 745 1327 q 814 1213 814 1260 q 780 1132 814 1165 q 695 1098 745 1098 z "},"Ɵ":{"ha":1077,"x_min":47,"x_max":1029,"o":"m 538 -14 q 289 46 401 -14 q 113 221 178 106 q 47 505 47 337 q 113 789 47 673 q 289 965 178 905 q 538 1024 401 1024 q 787 965 676 1024 q 964 789 899 905 q 1029 505 1029 673 q 964 221 1029 336 q 787 46 899 105 q 538 -14 676 -14 m 538 225 q 676 276 625 225 q 742 426 728 328 l 335 426 q 401 276 349 328 q 538 225 452 225 m 335 585 l 742 585 q 676 734 728 682 q 538 785 625 785 q 401 734 453 785 q 335 585 349 682 z "},"Ө":{"ha":1077,"x_min":47,"x_max":1029,"o":"m 538 -14 q 289 46 401 -14 q 113 221 178 106 q 47 505 47 337 q 113 789 47 673 q 289 965 178 905 q 538 1024 401 1024 q 787 965 676 1024 q 964 789 899 905 q 1029 505 1029 673 q 964 221 1029 336 q 787 46 899 105 q 538 -14 676 -14 m 538 225 q 676 276 625 225 q 742 426 728 328 l 335 426 q 401 276 349 328 q 538 225 452 225 m 335 585 l 742 585 q 676 734 728 682 q 538 785 625 785 q 401 734 453 785 q 335 585 349 682 z "},"Ӫ":{"ha":1077,"x_min":47,"x_max":1029,"o":"m 538 -14 q 289 46 401 -14 q 113 221 178 106 q 47 505 47 337 q 113 789 47 673 q 289 965 178 905 q 538 1024 401 1024 q 787 965 676 1024 q 964 789 899 905 q 1029 505 1029 673 q 964 221 1029 336 q 787 46 899 105 q 538 -14 676 -14 m 538 225 q 676 276 625 225 q 742 426 728 328 l 335 426 q 401 276 349 328 q 538 225 452 225 m 335 585 l 742 585 q 676 734 728 682 q 538 785 625 785 q 401 734 453 785 q 335 585 349 682 m 382 1098 q 297 1132 332 1098 q 262 1213 262 1165 q 297 1294 262 1260 q 382 1327 332 1327 q 466 1294 431 1327 q 501 1213 501 1260 q 466 1132 501 1165 q 382 1098 431 1098 m 695 1098 q 611 1132 646 1098 q 576 1213 576 1165 q 611 1294 576 1260 q 695 1327 646 1327 q 780 1294 745 1327 q 814 1213 814 1260 q 780 1132 814 1165 q 695 1098 745 1098 z "},"Œ":{"ha":1429,"x_min":47,"x_max":1371,"o":"m 549 0 q 283 60 396 0 q 109 234 170 121 q 47 505 47 347 q 109 776 47 663 q 284 950 171 889 q 553 1010 398 1010 l 1371 1010 l 1371 789 l 917 789 l 917 618 l 1333 618 l 1333 403 l 917 403 l 917 221 l 1369 221 l 1369 0 l 549 0 m 643 233 l 643 777 l 568 777 q 434 753 489 777 q 351 670 380 729 q 323 505 323 610 q 351 340 323 399 q 432 257 379 281 q 560 233 485 233 l 643 233 z "},"P":{"ha":911,"x_min":65,"x_max":876,"o":"m 65 0 l 65 1010 l 500 1010 q 697 966 613 1010 q 829 841 782 922 q 876 652 876 760 q 828 465 876 544 q 693 343 780 386 q 491 300 606 300 l 339 300 l 339 0 l 65 0 m 339 513 l 435 513 q 549 551 508 513 q 590 652 590 589 q 549 754 590 718 q 435 791 508 791 l 339 791 l 339 513 z "},"Ṕ":{"ha":911,"x_min":65,"x_max":876,"o":"m 65 0 l 65 1010 l 500 1010 q 697 966 613 1010 q 829 841 782 922 q 876 652 876 760 q 828 465 876 544 q 693 343 780 386 q 491 300 606 300 l 339 300 l 339 0 l 65 0 m 339 513 l 435 513 q 549 551 508 513 q 590 652 590 589 q 549 754 590 718 q 435 791 508 791 l 339 791 l 339 513 m 355 1104 l 449 1325 l 682 1325 l 534 1104 l 355 1104 z "},"Ṗ":{"ha":911,"x_min":65,"x_max":876,"o":"m 65 0 l 65 1010 l 500 1010 q 697 966 613 1010 q 829 841 782 922 q 876 652 876 760 q 828 465 876 544 q 693 343 780 386 q 491 300 606 300 l 339 300 l 339 0 l 65 0 m 339 513 l 435 513 q 549 551 508 513 q 590 652 590 589 q 549 754 590 718 q 435 791 508 791 l 339 791 l 339 513 m 446 1088 q 351 1124 391 1088 q 312 1213 312 1161 q 351 1301 312 1265 q 446 1337 391 1337 q 541 1301 502 1337 q 581 1213 581 1265 q 541 1124 581 1161 q 446 1088 502 1088 z "},"Ҏ":{"ha":943,"x_min":73,"x_max":884,"o":"m 73 0 l 73 1010 l 509 1010 q 706 966 621 1010 q 837 841 790 922 q 884 652 884 760 q 835 464 884 543 q 699 342 785 384 l 765 239 l 677 182 l 595 309 q 499 300 549 300 l 347 300 l 347 0 l 73 0 m 486 673 l 562 555 q 598 652 598 591 q 557 754 598 718 q 444 791 516 791 l 347 791 l 347 513 l 444 513 q 463 513 453 513 l 396 616 l 486 673 z "},"Ƥ":{"ha":1237,"x_min":28,"x_max":1202,"o":"m 28 694 l 28 743 q 112 947 28 883 q 376 1010 195 1010 l 826 1010 q 1023 966 939 1010 q 1155 841 1107 922 q 1202 652 1202 760 q 1154 465 1202 544 q 1019 343 1105 386 q 817 300 932 300 l 665 300 l 665 0 l 391 0 l 391 789 l 365 789 q 269 713 269 789 l 269 694 l 28 694 m 665 513 l 761 513 q 874 551 833 513 q 916 652 916 589 q 874 754 916 718 q 761 791 833 791 l 665 791 l 665 513 z "},"Ρ":{"ha":911,"x_min":65,"x_max":876,"o":"m 65 0 l 65 1010 l 500 1010 q 697 966 613 1010 q 829 841 782 922 q 876 652 876 760 q 828 465 876 544 q 693 343 780 386 q 491 300 606 300 l 339 300 l 339 0 l 65 0 m 339 513 l 435 513 q 549 551 508 513 q 590 652 590 589 q 549 754 590 718 q 435 791 508 791 l 339 791 l 339 513 z "},"Ῥ":{"ha":1231,"x_min":38,"x_max":1196,"o":"m 385 0 l 385 1010 l 820 1010 q 1017 966 932 1010 q 1148 841 1101 922 q 1196 652 1196 760 q 1147 465 1196 544 q 1013 343 1099 386 q 810 300 926 300 l 659 300 l 659 0 l 385 0 m 659 513 l 755 513 q 868 551 827 513 q 909 652 909 589 q 868 754 909 718 q 755 791 827 791 l 659 791 l 659 513 m 233 769 q 89 800 140 769 q 38 890 38 830 q 88 982 38 949 q 233 1015 138 1015 l 267 1015 l 267 905 l 223 905 q 158 869 158 905 q 233 830 158 830 l 241 830 l 241 769 l 233 769 z "},"Q":{"ha":1093,"x_min":47,"x_max":1046,"o":"m 538 -14 q 289 46 401 -14 q 113 221 178 106 q 47 505 47 337 q 113 789 47 673 q 289 965 178 905 q 538 1024 401 1024 q 787 965 676 1024 q 964 789 899 905 q 1029 505 1029 673 q 991 281 1029 378 q 886 118 953 184 l 1046 -75 l 803 -75 l 724 17 q 538 -14 637 -14 m 456 374 l 669 374 l 710 323 q 747 505 747 391 q 694 713 747 641 q 538 785 641 785 q 383 713 437 785 q 330 505 330 641 q 383 297 330 369 q 538 225 437 225 q 568 227 553 225 l 456 374 z "},"Ɋ":{"ha":1085,"x_min":47,"x_max":1168,"o":"m 1020 1010 l 1020 -50 q 1035 -92 1020 -80 q 1090 -104 1050 -104 q 1128 -102 1109 -104 q 1168 -98 1147 -100 l 1168 -283 q 1034 -299 1108 -299 q 747 -50 747 -299 l 747 142 l 741 142 q 637 33 704 80 q 468 -14 570 -14 q 300 27 377 -14 q 167 138 224 67 q 79 303 110 210 q 47 505 47 397 q 80 707 47 612 q 169 872 112 801 q 303 984 227 943 q 468 1024 380 1024 q 637 977 570 1024 q 741 868 703 930 l 747 868 l 747 1010 l 1020 1010 m 538 225 q 694 297 641 225 q 747 505 747 369 q 694 713 747 641 q 538 785 641 785 q 383 713 437 785 q 330 505 330 641 q 383 297 330 369 q 538 225 437 225 z "},"R":{"ha":928,"x_min":65,"x_max":910,"o":"m 65 0 l 65 1010 l 500 1010 q 697 969 613 1010 q 829 851 782 928 q 876 667 876 774 q 830 489 876 562 q 704 377 785 416 l 910 0 l 612 0 l 434 334 l 339 334 l 339 0 l 65 0 m 339 547 l 435 547 q 549 574 508 547 q 590 667 590 602 q 549 761 590 732 q 435 791 508 791 l 339 791 l 339 547 z "},"Ŕ":{"ha":928,"x_min":65,"x_max":910,"o":"m 65 0 l 65 1010 l 500 1010 q 697 969 613 1010 q 829 851 782 928 q 876 667 876 774 q 830 489 876 562 q 704 377 785 416 l 910 0 l 612 0 l 434 334 l 339 334 l 339 0 l 65 0 m 339 547 l 435 547 q 549 574 508 547 q 590 667 590 602 q 549 761 590 732 q 435 791 508 791 l 339 791 l 339 547 m 366 1104 l 460 1325 l 693 1325 l 545 1104 l 366 1104 z "},"Ŗ":{"ha":928,"x_min":65,"x_max":910,"o":"m 65 0 l 65 1010 l 500 1010 q 697 969 613 1010 q 829 851 782 928 q 876 667 876 774 q 830 489 876 562 q 704 377 785 416 l 910 0 l 612 0 l 434 334 l 339 334 l 339 0 l 65 0 m 339 547 l 435 547 q 549 574 508 547 q 590 667 590 602 q 549 761 590 732 q 435 791 508 791 l 339 791 l 339 547 m 289 -316 l 354 -80 l 598 -80 l 473 -316 l 289 -316 z "},"Ř":{"ha":928,"x_min":65,"x_max":910,"o":"m 65 0 l 65 1010 l 500 1010 q 697 969 613 1010 q 829 851 782 928 q 876 667 876 774 q 830 489 876 562 q 704 377 785 416 l 910 0 l 612 0 l 434 334 l 339 334 l 339 0 l 65 0 m 339 547 l 435 547 q 549 574 508 547 q 590 667 590 602 q 549 761 590 732 q 435 791 508 791 l 339 791 l 339 547 m 361 1325 l 457 1213 l 553 1325 l 779 1325 l 779 1321 l 552 1104 l 362 1104 l 136 1321 l 136 1325 l 361 1325 z "},"Ȑ":{"ha":928,"x_min":65,"x_max":910,"o":"m 65 0 l 65 1010 l 500 1010 q 697 969 613 1010 q 829 851 782 928 q 876 667 876 774 q 830 489 876 562 q 704 377 785 416 l 910 0 l 612 0 l 434 334 l 339 334 l 339 0 l 65 0 m 339 547 l 435 547 q 549 574 508 547 q 590 667 590 602 q 549 761 590 732 q 435 791 508 791 l 339 791 l 339 547 m 241 1104 l 66 1325 l 311 1325 l 426 1104 l 241 1104 m 492 1104 l 384 1325 l 605 1325 l 671 1104 l 492 1104 z "},"Ȓ":{"ha":928,"x_min":65,"x_max":910,"o":"m 65 0 l 65 1010 l 500 1010 q 697 969 613 1010 q 829 851 782 928 q 876 667 876 774 q 830 489 876 562 q 704 377 785 416 l 910 0 l 612 0 l 434 334 l 339 334 l 339 0 l 65 0 m 339 547 l 435 547 q 549 574 508 547 q 590 667 590 602 q 549 761 590 732 q 435 791 508 791 l 339 791 l 339 547 m 457 1331 q 593 1300 533 1331 q 688 1219 653 1270 q 723 1104 723 1168 l 578 1104 q 543 1171 578 1144 q 457 1198 508 1198 q 370 1171 406 1198 q 335 1104 335 1144 l 191 1104 q 226 1219 191 1168 q 321 1300 261 1270 q 457 1331 381 1331 z "},"Ṙ":{"ha":928,"x_min":65,"x_max":910,"o":"m 65 0 l 65 1010 l 500 1010 q 697 969 613 1010 q 829 851 782 928 q 876 667 876 774 q 830 489 876 562 q 704 377 785 416 l 910 0 l 612 0 l 434 334 l 339 334 l 339 0 l 65 0 m 339 547 l 435 547 q 549 574 508 547 q 590 667 590 602 q 549 761 590 732 q 435 791 508 791 l 339 791 l 339 547 m 457 1088 q 362 1124 401 1088 q 323 1213 323 1161 q 362 1301 323 1265 q 457 1337 401 1337 q 552 1301 513 1337 q 591 1213 591 1265 q 552 1124 591 1161 q 457 1088 513 1088 z "},"Ṛ":{"ha":928,"x_min":65,"x_max":910,"o":"m 65 0 l 65 1010 l 500 1010 q 697 969 613 1010 q 829 851 782 928 q 876 667 876 774 q 830 489 876 562 q 704 377 785 416 l 910 0 l 612 0 l 434 334 l 339 334 l 339 0 l 65 0 m 339 547 l 435 547 q 549 574 508 547 q 590 667 590 602 q 549 761 590 732 q 435 791 508 791 l 339 791 l 339 547 m 473 -327 q 378 -290 418 -327 q 339 -202 339 -254 q 378 -114 339 -150 q 473 -77 418 -77 q 568 -114 529 -77 q 608 -202 608 -150 q 568 -290 608 -254 q 473 -327 529 -327 z "},"Ṝ":{"ha":928,"x_min":65,"x_max":910,"o":"m 65 0 l 65 1010 l 500 1010 q 697 969 613 1010 q 829 851 782 928 q 876 667 876 774 q 830 489 876 562 q 704 377 785 416 l 910 0 l 612 0 l 434 334 l 339 334 l 339 0 l 65 0 m 339 547 l 435 547 q 549 574 508 547 q 590 667 590 602 q 549 761 590 732 q 435 791 508 791 l 339 791 l 339 547 m 473 -327 q 378 -290 418 -327 q 339 -202 339 -254 q 378 -114 339 -150 q 473 -77 418 -77 q 568 -114 529 -77 q 608 -202 608 -150 q 568 -290 608 -254 q 473 -327 529 -327 m 661 1291 l 661 1134 l 254 1134 l 254 1291 l 661 1291 z "},"Ṟ":{"ha":928,"x_min":65,"x_max":910,"o":"m 65 0 l 65 1010 l 500 1010 q 697 969 613 1010 q 829 851 782 928 q 876 667 876 774 q 830 489 876 562 q 704 377 785 416 l 910 0 l 612 0 l 434 334 l 339 334 l 339 0 l 65 0 m 339 547 l 435 547 q 549 574 508 547 q 590 667 590 602 q 549 761 590 732 q 435 791 508 791 l 339 791 l 339 547 m 677 -123 l 677 -281 l 270 -281 l 270 -123 l 677 -123 z "},"℟":{"ha":941,"x_min":71,"x_max":916,"o":"m 633 1158 l 606 1001 q 807 889 732 976 q 882 667 882 803 q 836 489 882 562 q 709 377 790 416 l 916 0 l 617 0 l 478 261 l 389 -255 l 308 -247 l 410 334 l 345 334 l 345 0 l 71 0 l 71 1010 l 506 1010 q 530 1010 518 1010 l 547 1103 l 327 1146 l 346 1219 l 633 1158 m 491 787 q 441 791 468 791 l 345 791 l 345 547 l 441 547 q 448 547 445 547 l 491 787 m 564 753 l 530 561 q 595 667 595 588 q 564 753 595 723 z "},"℞":{"ha":1141,"x_min":65,"x_max":1067,"o":"m 65 1010 l 490 1010 q 777 929 676 1010 q 878 693 878 849 q 841 539 878 602 q 750 435 805 476 l 802 363 l 876 465 l 1025 465 l 878 259 l 1067 0 l 854 0 l 774 113 l 693 0 l 537 0 l 696 219 l 593 363 l 339 363 l 339 0 l 65 0 l 65 1010 m 339 581 l 494 581 q 571 603 535 580 q 606 685 606 625 q 589 749 606 726 q 544 781 571 772 q 490 789 517 789 l 339 789 l 339 581 z "},"Ɍ":{"ha":964,"x_min":8,"x_max":940,"o":"m 95 0 l 95 357 l 8 357 l 8 551 l 95 551 l 95 1010 l 530 1010 q 727 969 643 1010 q 859 851 812 928 q 906 667 906 774 q 860 489 906 562 q 734 377 814 416 l 940 0 l 642 0 l 464 334 l 369 334 l 369 0 l 95 0 m 369 547 l 465 547 q 579 574 538 547 q 620 667 620 602 q 579 761 620 732 q 465 791 538 791 l 369 791 l 369 547 z "},"S":{"ha":925,"x_min":39,"x_max":886,"o":"m 476 -12 q 247 27 345 -12 q 94 147 149 66 q 39 355 40 229 l 300 355 q 348 249 303 286 q 472 213 393 213 q 572 237 538 213 q 606 298 606 261 q 572 355 606 332 q 454 396 538 378 l 353 418 q 142 515 219 446 q 65 703 65 584 q 117 871 65 799 q 261 984 170 943 q 473 1024 353 1024 q 685 983 596 1024 q 823 868 774 942 q 872 694 871 793 l 609 694 q 573 771 606 744 q 473 799 540 799 q 380 777 410 799 q 351 722 351 755 q 383 663 351 686 q 487 625 415 641 l 570 608 q 811 493 737 572 q 886 298 886 414 q 777 68 886 149 q 476 -12 668 -12 z "},"Ś":{"ha":925,"x_min":39,"x_max":886,"o":"m 476 -12 q 247 27 345 -12 q 94 147 149 66 q 39 355 40 229 l 300 355 q 348 249 303 286 q 472 213 393 213 q 572 237 538 213 q 606 298 606 261 q 572 355 606 332 q 454 396 538 378 l 353 418 q 142 515 219 446 q 65 703 65 584 q 117 871 65 799 q 261 984 170 943 q 473 1024 353 1024 q 685 983 596 1024 q 823 868 774 942 q 872 694 871 793 l 609 694 q 573 771 606 744 q 473 799 540 799 q 380 777 410 799 q 351 722 351 755 q 383 663 351 686 q 487 625 415 641 l 570 608 q 811 493 737 572 q 886 298 886 414 q 777 68 886 149 q 476 -12 668 -12 m 373 1104 l 467 1325 l 700 1325 l 552 1104 l 373 1104 z "},"Ŝ":{"ha":925,"x_min":39,"x_max":886,"o":"m 476 -12 q 247 27 345 -12 q 94 147 149 66 q 39 355 40 229 l 300 355 q 348 249 303 286 q 472 213 393 213 q 572 237 538 213 q 606 298 606 261 q 572 355 606 332 q 454 396 538 378 l 353 418 q 142 515 219 446 q 65 703 65 584 q 117 871 65 799 q 261 984 170 943 q 473 1024 353 1024 q 685 983 596 1024 q 823 868 774 942 q 872 694 871 793 l 609 694 q 573 771 606 744 q 473 799 540 799 q 380 777 410 799 q 351 722 351 755 q 383 663 351 686 q 487 625 415 641 l 570 608 q 811 493 737 572 q 886 298 886 414 q 777 68 886 149 q 476 -12 668 -12 m 368 1104 l 142 1104 l 142 1108 l 369 1325 l 559 1325 l 785 1108 l 785 1104 l 560 1104 l 464 1217 l 368 1104 z "},"Ş":{"ha":925,"x_min":39,"x_max":886,"o":"m 476 -12 q 247 27 345 -12 q 94 147 149 66 q 39 355 40 229 l 300 355 q 348 249 303 286 q 472 213 393 213 q 572 237 538 213 q 606 298 606 261 q 572 355 606 332 q 454 396 538 378 l 353 418 q 142 515 219 446 q 65 703 65 584 q 117 871 65 799 q 261 984 170 943 q 473 1024 353 1024 q 685 983 596 1024 q 823 868 774 942 q 872 694 871 793 l 609 694 q 573 771 606 744 q 473 799 540 799 q 380 777 410 799 q 351 722 351 755 q 383 663 351 686 q 487 625 415 641 l 570 608 q 811 493 737 572 q 886 298 886 414 q 777 68 886 149 q 476 -12 668 -12 m 368 -283 l 368 -195 l 460 -195 q 514 -155 514 -195 q 460 -117 514 -117 l 392 -117 l 420 27 l 511 27 l 511 0 l 503 -61 q 604 -82 566 -53 q 642 -164 642 -111 q 603 -256 642 -229 q 475 -283 564 -283 l 368 -283 z "},"Š":{"ha":925,"x_min":39,"x_max":886,"o":"m 476 -12 q 247 27 345 -12 q 94 147 149 66 q 39 355 40 229 l 300 355 q 348 249 303 286 q 472 213 393 213 q 572 237 538 213 q 606 298 606 261 q 572 355 606 332 q 454 396 538 378 l 353 418 q 142 515 219 446 q 65 703 65 584 q 117 871 65 799 q 261 984 170 943 q 473 1024 353 1024 q 685 983 596 1024 q 823 868 774 942 q 872 694 871 793 l 609 694 q 573 771 606 744 q 473 799 540 799 q 380 777 410 799 q 351 722 351 755 q 383 663 351 686 q 487 625 415 641 l 570 608 q 811 493 737 572 q 886 298 886 414 q 777 68 886 149 q 476 -12 668 -12 m 368 1325 l 464 1213 l 560 1325 l 785 1325 l 785 1321 l 559 1104 l 369 1104 l 142 1321 l 142 1325 l 368 1325 z "},"Ș":{"ha":925,"x_min":39,"x_max":886,"o":"m 476 -12 q 247 27 345 -12 q 94 147 149 66 q 39 355 40 229 l 300 355 q 348 249 303 286 q 472 213 393 213 q 572 237 538 213 q 606 298 606 261 q 572 355 606 332 q 454 396 538 378 l 353 418 q 142 515 219 446 q 65 703 65 584 q 117 871 65 799 q 261 984 170 943 q 473 1024 353 1024 q 685 983 596 1024 q 823 868 774 942 q 872 694 871 793 l 609 694 q 573 771 606 744 q 473 799 540 799 q 380 777 410 799 q 351 722 351 755 q 383 663 351 686 q 487 625 415 641 l 570 608 q 811 493 737 572 q 886 298 886 414 q 777 68 886 149 q 476 -12 668 -12 m 283 -316 l 349 -80 l 593 -80 l 468 -316 l 283 -316 z "},"Ṡ":{"ha":925,"x_min":39,"x_max":886,"o":"m 476 -12 q 247 27 345 -12 q 94 147 149 66 q 39 355 40 229 l 300 355 q 348 249 303 286 q 472 213 393 213 q 572 237 538 213 q 606 298 606 261 q 572 355 606 332 q 454 396 538 378 l 353 418 q 142 515 219 446 q 65 703 65 584 q 117 871 65 799 q 261 984 170 943 q 473 1024 353 1024 q 685 983 596 1024 q 823 868 774 942 q 872 694 871 793 l 609 694 q 573 771 606 744 q 473 799 540 799 q 380 777 410 799 q 351 722 351 755 q 383 663 351 686 q 487 625 415 641 l 570 608 q 811 493 737 572 q 886 298 886 414 q 777 68 886 149 q 476 -12 668 -12 m 464 1088 q 369 1124 408 1088 q 330 1213 330 1161 q 369 1301 330 1265 q 464 1337 408 1337 q 559 1301 519 1337 q 598 1213 598 1265 q 559 1124 598 1161 q 464 1088 519 1088 z "},"Ṣ":{"ha":925,"x_min":39,"x_max":886,"o":"m 476 -12 q 247 27 345 -12 q 94 147 149 66 q 39 355 40 229 l 300 355 q 348 249 303 286 q 472 213 393 213 q 572 237 538 213 q 606 298 606 261 q 572 355 606 332 q 454 396 538 378 l 353 418 q 142 515 219 446 q 65 703 65 584 q 117 871 65 799 q 261 984 170 943 q 473 1024 353 1024 q 685 983 596 1024 q 823 868 774 942 q 872 694 871 793 l 609 694 q 573 771 606 744 q 473 799 540 799 q 380 777 410 799 q 351 722 351 755 q 383 663 351 686 q 487 625 415 641 l 570 608 q 811 493 737 572 q 886 298 886 414 q 777 68 886 149 q 476 -12 668 -12 m 468 -327 q 373 -290 412 -327 q 334 -202 334 -254 q 373 -114 334 -150 q 468 -77 412 -77 q 563 -114 524 -77 q 602 -202 602 -150 q 563 -290 602 -254 q 468 -327 524 -327 z "},"Ṥ":{"ha":925,"x_min":39,"x_max":886,"o":"m 476 -12 q 247 27 345 -12 q 94 147 149 66 q 39 355 40 229 l 300 355 q 348 249 303 286 q 472 213 393 213 q 572 237 538 213 q 606 298 606 261 q 572 355 606 332 q 454 396 538 378 l 353 418 q 142 515 219 446 q 65 703 65 584 q 117 871 65 799 q 261 984 170 943 q 473 1024 353 1024 q 685 983 596 1024 q 823 868 774 942 q 872 694 871 793 l 609 694 q 573 771 606 744 q 473 799 540 799 q 380 777 410 799 q 351 722 351 755 q 383 663 351 686 q 487 625 415 641 l 570 608 q 811 493 737 572 q 886 298 886 414 q 777 68 886 149 q 476 -12 668 -12 m 201 1265 q 232 1325 201 1301 q 308 1350 262 1350 q 384 1325 354 1350 q 414 1265 414 1301 q 384 1205 414 1230 q 308 1180 354 1180 q 232 1205 262 1180 q 201 1265 201 1230 m 410 1124 l 513 1294 l 669 1294 l 533 1124 l 410 1124 z "},"Ṧ":{"ha":925,"x_min":39,"x_max":886,"o":"m 476 -12 q 247 27 345 -12 q 94 147 149 66 q 39 355 40 229 l 300 355 q 348 249 303 286 q 472 213 393 213 q 572 237 538 213 q 606 298 606 261 q 572 355 606 332 q 454 396 538 378 l 353 418 q 142 515 219 446 q 65 703 65 584 q 117 871 65 799 q 261 984 170 943 q 473 1024 353 1024 q 685 983 596 1024 q 823 868 774 942 q 872 694 871 793 l 609 694 q 573 771 606 744 q 473 799 540 799 q 380 777 410 799 q 351 722 351 755 q 383 663 351 686 q 487 625 415 641 l 570 608 q 811 493 737 572 q 886 298 886 414 q 777 68 886 149 q 476 -12 668 -12 m 368 1303 l 464 1200 l 560 1303 l 785 1303 l 785 1299 l 559 1100 l 369 1100 l 142 1299 l 142 1303 l 368 1303 m 464 1354 q 382 1382 416 1354 q 349 1449 349 1410 q 382 1516 349 1489 q 464 1544 416 1544 q 545 1516 511 1544 q 578 1449 578 1489 q 545 1382 578 1410 q 464 1354 511 1354 z "},"Ṩ":{"ha":925,"x_min":39,"x_max":886,"o":"m 476 -12 q 247 27 345 -12 q 94 147 149 66 q 39 355 40 229 l 300 355 q 348 249 303 286 q 472 213 393 213 q 572 237 538 213 q 606 298 606 261 q 572 355 606 332 q 454 396 538 378 l 353 418 q 142 515 219 446 q 65 703 65 584 q 117 871 65 799 q 261 984 170 943 q 473 1024 353 1024 q 685 983 596 1024 q 823 868 774 942 q 872 694 871 793 l 609 694 q 573 771 606 744 q 473 799 540 799 q 380 777 410 799 q 351 722 351 755 q 383 663 351 686 q 487 625 415 641 l 570 608 q 811 493 737 572 q 886 298 886 414 q 777 68 886 149 q 476 -12 668 -12 m 468 -327 q 373 -290 412 -327 q 334 -202 334 -254 q 373 -114 334 -150 q 468 -77 412 -77 q 563 -114 524 -77 q 602 -202 602 -150 q 563 -290 602 -254 q 468 -327 524 -327 m 464 1088 q 369 1124 408 1088 q 330 1213 330 1161 q 369 1301 330 1265 q 464 1337 408 1337 q 559 1301 519 1337 q 598 1213 598 1265 q 559 1124 598 1161 q 464 1088 519 1088 z "},"Ѕ":{"ha":925,"x_min":39,"x_max":886,"o":"m 476 -12 q 247 27 345 -12 q 94 147 149 66 q 39 355 40 229 l 300 355 q 348 249 303 286 q 472 213 393 213 q 572 237 538 213 q 606 298 606 261 q 572 355 606 332 q 454 396 538 378 l 353 418 q 142 515 219 446 q 65 703 65 584 q 117 871 65 799 q 261 984 170 943 q 473 1024 353 1024 q 685 983 596 1024 q 823 868 774 942 q 872 694 871 793 l 609 694 q 573 771 606 744 q 473 799 540 799 q 380 777 410 799 q 351 722 351 755 q 383 663 351 686 q 487 625 415 641 l 570 608 q 811 493 737 572 q 886 298 886 414 q 777 68 886 149 q 476 -12 668 -12 z "},"Ƨ":{"ha":925,"x_min":39,"x_max":886,"o":"m 449 -12 q 148 68 257 -12 q 39 298 39 149 q 114 493 39 414 q 355 608 188 572 l 438 625 q 542 663 510 641 q 574 722 574 686 q 545 777 574 755 q 452 799 515 799 q 352 771 385 799 q 316 694 319 744 l 53 694 q 102 868 54 793 q 240 983 151 942 q 452 1024 329 1024 q 664 984 572 1024 q 808 871 756 943 q 860 703 860 799 q 783 515 860 584 q 572 418 706 446 l 471 396 q 353 355 387 378 q 319 298 319 332 q 353 237 319 261 q 453 213 387 213 q 577 249 532 213 q 625 355 622 286 l 886 355 q 831 147 885 229 q 679 27 777 66 q 449 -12 581 -12 z "},"ẞ":{"ha":1029,"x_min":65,"x_max":990,"o":"m 65 0 l 65 701 q 154 932 65 854 q 415 1010 243 1010 l 897 1010 l 897 803 l 641 541 q 824 550 745 566 q 946 476 902 534 q 990 315 990 418 q 882 79 990 157 q 563 0 774 0 l 448 0 l 448 210 l 563 210 q 671 235 637 210 q 705 315 705 260 q 671 396 705 370 q 563 422 637 422 l 448 422 l 448 560 l 642 791 l 415 791 q 366 773 384 791 q 347 723 347 755 l 347 0 l 65 0 z "},"T":{"ha":954,"x_min":38,"x_max":916,"o":"m 38 789 l 38 1010 l 916 1010 l 916 789 l 614 789 l 614 0 l 340 0 l 340 789 l 38 789 z "},"Ţ":{"ha":954,"x_min":38,"x_max":916,"o":"m 38 789 l 38 1010 l 916 1010 l 916 789 l 614 789 l 614 0 l 340 0 l 340 789 l 38 789 m 380 -283 l 380 -195 l 472 -195 q 526 -155 526 -195 q 472 -117 526 -117 l 404 -117 l 433 27 l 523 27 l 523 0 l 515 -61 q 616 -82 578 -53 q 654 -164 654 -111 q 615 -256 654 -229 q 488 -283 576 -283 l 380 -283 z "},"Ť":{"ha":954,"x_min":38,"x_max":916,"o":"m 38 789 l 38 1010 l 916 1010 l 916 789 l 614 789 l 614 0 l 340 0 l 340 789 l 38 789 m 380 1325 l 477 1213 l 573 1325 l 798 1325 l 798 1321 l 572 1104 l 382 1104 l 155 1321 l 155 1325 l 380 1325 z "},"Ț":{"ha":954,"x_min":38,"x_max":916,"o":"m 38 789 l 38 1010 l 916 1010 l 916 789 l 614 789 l 614 0 l 340 0 l 340 789 l 38 789 m 292 -316 l 357 -80 l 602 -80 l 477 -316 l 292 -316 z "},"Ṫ":{"ha":954,"x_min":38,"x_max":916,"o":"m 38 789 l 38 1010 l 916 1010 l 916 789 l 614 789 l 614 0 l 340 0 l 340 789 l 38 789 m 477 1088 q 382 1124 421 1088 q 342 1213 342 1161 q 382 1301 342 1265 q 477 1337 421 1337 q 572 1301 532 1337 q 611 1213 611 1265 q 572 1124 611 1161 q 477 1088 532 1088 z "},"Ṭ":{"ha":954,"x_min":38,"x_max":916,"o":"m 38 789 l 38 1010 l 916 1010 l 916 789 l 614 789 l 614 0 l 340 0 l 340 789 l 38 789 m 477 -327 q 382 -290 421 -327 q 342 -202 342 -254 q 382 -114 342 -150 q 477 -77 421 -77 q 572 -114 532 -77 q 611 -202 611 -150 q 572 -290 611 -254 q 477 -327 532 -327 z "},"Ṯ":{"ha":954,"x_min":38,"x_max":916,"o":"m 38 789 l 38 1010 l 916 1010 l 916 789 l 614 789 l 614 0 l 340 0 l 340 789 l 38 789 m 680 -123 l 680 -281 l 273 -281 l 273 -123 l 680 -123 z "},"Ṱ":{"ha":954,"x_min":38,"x_max":916,"o":"m 38 789 l 38 1010 l 916 1010 l 916 789 l 614 789 l 614 0 l 340 0 l 340 789 l 38 789 m 380 -313 l 155 -313 l 155 -309 l 382 -92 l 572 -92 l 798 -309 l 798 -313 l 573 -313 l 477 -200 l 380 -313 z "},"Ƭ":{"ha":1093,"x_min":95,"x_max":1055,"o":"m 95 694 l 95 743 q 178 947 95 883 q 442 1010 261 1010 l 1055 1010 l 1055 789 l 753 789 l 753 0 l 479 0 l 479 789 l 431 789 q 335 713 335 789 l 335 694 l 95 694 z "},"":{"ha":954,"x_min":318,"x_max":916,"o":"m 318 789 l 318 1010 l 916 1010 l 916 789 l 614 789 l 614 0 l 340 0 l 340 789 l 318 789 z "},"Ʈ":{"ha":954,"x_min":38,"x_max":916,"o":"m 627 -299 q 340 -50 340 -299 l 340 789 l 38 789 l 38 1010 l 916 1010 l 916 789 l 614 789 l 614 -44 q 629 -86 614 -75 q 684 -98 644 -98 q 722 -97 703 -98 q 762 -92 741 -95 l 762 -283 q 627 -299 702 -299 z "},"Ⱦ":{"ha":954,"x_min":38,"x_max":916,"o":"m 142 -142 l 340 291 l 340 789 l 38 789 l 38 1010 l 669 1010 l 734 1152 l 825 1152 l 760 1010 l 916 1010 l 916 789 l 659 789 l 614 692 l 614 0 l 340 0 l 340 95 l 231 -142 l 142 -142 z "},"Τ":{"ha":954,"x_min":38,"x_max":916,"o":"m 38 789 l 38 1010 l 916 1010 l 916 789 l 614 789 l 614 0 l 340 0 l 340 789 l 38 789 z "},"U":{"ha":1002,"x_min":65,"x_max":937,"o":"m 500 -12 q 272 34 370 -12 q 120 164 174 79 q 65 363 65 248 l 65 1010 l 339 1010 l 339 387 q 385 271 339 316 q 500 225 431 225 q 617 271 572 225 q 663 387 663 316 l 663 1010 l 937 1010 l 937 363 q 882 164 937 248 q 729 34 827 79 q 500 -12 631 -12 z "},"Ư":{"ha":1002,"x_min":65,"x_max":1050,"o":"m 500 -12 q 272 34 370 -12 q 120 164 174 79 q 65 363 65 248 l 65 1010 l 339 1010 l 339 387 q 385 271 339 316 q 500 225 431 225 q 617 271 572 225 q 663 387 663 316 l 663 1010 l 792 1010 q 814 1032 814 1010 l 814 1152 l 1050 1152 l 1050 1010 q 1018 907 1050 945 q 937 856 987 869 l 937 363 q 882 164 937 248 q 729 34 827 79 q 500 -12 631 -12 z "},"Ù":{"ha":1002,"x_min":65,"x_max":937,"o":"m 500 -12 q 272 34 370 -12 q 120 164 174 79 q 65 363 65 248 l 65 1010 l 339 1010 l 339 387 q 385 271 339 316 q 500 225 431 225 q 617 271 572 225 q 663 387 663 316 l 663 1010 l 937 1010 l 937 363 q 882 164 937 248 q 729 34 827 79 q 500 -12 631 -12 m 412 1104 l 264 1325 l 498 1325 l 591 1104 l 412 1104 z "},"Ú":{"ha":1002,"x_min":65,"x_max":937,"o":"m 500 -12 q 272 34 370 -12 q 120 164 174 79 q 65 363 65 248 l 65 1010 l 339 1010 l 339 387 q 385 271 339 316 q 500 225 431 225 q 617 271 572 225 q 663 387 663 316 l 663 1010 l 937 1010 l 937 363 q 882 164 937 248 q 729 34 827 79 q 500 -12 631 -12 m 410 1104 l 503 1325 l 736 1325 l 589 1104 l 410 1104 z "},"Û":{"ha":1002,"x_min":65,"x_max":937,"o":"m 500 -12 q 272 34 370 -12 q 120 164 174 79 q 65 363 65 248 l 65 1010 l 339 1010 l 339 387 q 385 271 339 316 q 500 225 431 225 q 617 271 572 225 q 663 387 663 316 l 663 1010 l 937 1010 l 937 363 q 882 164 937 248 q 729 34 827 79 q 500 -12 631 -12 m 404 1104 l 179 1104 l 179 1108 l 406 1325 l 595 1325 l 822 1108 l 822 1104 l 597 1104 l 500 1217 l 404 1104 z "},"Ü":{"ha":1002,"x_min":65,"x_max":937,"o":"m 500 -12 q 272 34 370 -12 q 120 164 174 79 q 65 363 65 248 l 65 1010 l 339 1010 l 339 387 q 385 271 339 316 q 500 225 431 225 q 617 271 572 225 q 663 387 663 316 l 663 1010 l 937 1010 l 937 363 q 882 164 937 248 q 729 34 827 79 q 500 -12 631 -12 m 344 1098 q 259 1132 294 1098 q 224 1213 224 1165 q 259 1294 224 1260 q 344 1327 294 1327 q 428 1294 393 1327 q 463 1213 463 1260 q 428 1132 463 1165 q 344 1098 393 1098 m 657 1098 q 573 1132 608 1098 q 538 1213 538 1165 q 573 1294 538 1260 q 657 1327 608 1327 q 742 1294 707 1327 q 777 1213 777 1260 q 742 1132 777 1165 q 657 1098 707 1098 z "},"Ũ":{"ha":1002,"x_min":65,"x_max":937,"o":"m 500 -12 q 272 34 370 -12 q 120 164 174 79 q 65 363 65 248 l 65 1010 l 339 1010 l 339 387 q 385 271 339 316 q 500 225 431 225 q 617 271 572 225 q 663 387 663 316 l 663 1010 l 937 1010 l 937 363 q 882 164 937 248 q 729 34 827 79 q 500 -12 631 -12 m 601 1104 q 535 1116 562 1104 q 489 1145 509 1128 q 453 1173 470 1161 q 418 1185 437 1185 q 366 1109 370 1185 l 232 1109 q 282 1269 234 1217 q 400 1321 330 1321 q 483 1301 451 1321 q 537 1261 515 1281 q 583 1242 560 1242 q 624 1262 612 1242 q 636 1317 635 1282 l 769 1317 q 719 1158 768 1213 q 601 1104 670 1104 z "},"Ū":{"ha":1002,"x_min":65,"x_max":937,"o":"m 500 -12 q 272 34 370 -12 q 120 164 174 79 q 65 363 65 248 l 65 1010 l 339 1010 l 339 387 q 385 271 339 316 q 500 225 431 225 q 617 271 572 225 q 663 387 663 316 l 663 1010 l 937 1010 l 937 363 q 882 164 937 248 q 729 34 827 79 q 500 -12 631 -12 m 704 1291 l 704 1134 l 297 1134 l 297 1291 l 704 1291 z "},"Ŭ":{"ha":1002,"x_min":65,"x_max":937,"o":"m 500 -12 q 272 34 370 -12 q 120 164 174 79 q 65 363 65 248 l 65 1010 l 339 1010 l 339 387 q 385 271 339 316 q 500 225 431 225 q 617 271 572 225 q 663 387 663 316 l 663 1010 l 937 1010 l 937 363 q 882 164 937 248 q 729 34 827 79 q 500 -12 631 -12 m 500 1093 q 365 1123 425 1093 q 270 1205 304 1154 q 235 1320 235 1257 l 378 1320 q 414 1253 378 1280 q 500 1225 449 1225 q 586 1253 551 1225 q 621 1320 621 1280 l 766 1320 q 731 1205 766 1257 q 636 1123 696 1154 q 500 1093 576 1093 z "},"Ů":{"ha":1002,"x_min":65,"x_max":937,"o":"m 500 -12 q 272 34 370 -12 q 120 164 174 79 q 65 363 65 248 l 65 1010 l 339 1010 l 339 387 q 385 271 339 316 q 500 225 431 225 q 617 271 572 225 q 663 387 663 316 l 663 1010 l 937 1010 l 937 363 q 882 164 937 248 q 729 34 827 79 q 500 -12 631 -12 m 500 1050 q 359 1096 412 1050 q 307 1213 307 1143 q 359 1329 307 1282 q 500 1375 412 1375 q 642 1329 589 1375 q 694 1213 694 1282 q 642 1096 694 1143 q 500 1050 589 1050 m 500 1143 q 556 1162 536 1143 q 576 1213 576 1181 q 556 1263 576 1244 q 500 1282 536 1282 q 445 1263 465 1282 q 425 1213 425 1244 q 445 1162 425 1181 q 500 1143 465 1143 z "},"Ű":{"ha":1002,"x_min":65,"x_max":937,"o":"m 500 -12 q 272 34 370 -12 q 120 164 174 79 q 65 363 65 248 l 65 1010 l 339 1010 l 339 387 q 385 271 339 316 q 500 225 431 225 q 617 271 572 225 q 663 387 663 316 l 663 1010 l 937 1010 l 937 363 q 882 164 937 248 q 729 34 827 79 q 500 -12 631 -12 m 666 1104 l 481 1104 l 597 1325 l 841 1325 l 666 1104 m 415 1104 l 236 1104 l 302 1325 l 524 1325 l 415 1104 z "},"Ų":{"ha":1002,"x_min":65,"x_max":937,"o":"m 500 -12 q 272 34 370 -12 q 120 164 174 79 q 65 363 65 248 l 65 1010 l 339 1010 l 339 387 q 385 271 339 316 q 500 225 431 225 q 617 271 572 225 q 663 387 663 316 l 663 1010 l 937 1010 l 937 363 q 882 164 937 248 q 729 34 827 79 q 500 -12 631 -12 m 553 -289 q 410 -248 463 -289 q 357 -136 357 -208 q 385 -44 357 -81 q 459 21 413 -6 q 560 71 505 48 q 670 118 615 94 q 771 174 725 142 q 845 252 817 206 q 873 363 873 298 l 937 363 q 911 218 937 278 q 845 118 886 159 q 759 50 804 77 q 673 -1 713 22 q 606 -45 632 -23 q 581 -98 581 -68 q 623 -145 581 -145 q 667 -132 643 -145 l 713 -254 q 640 -280 684 -271 q 553 -289 595 -289 z "},"Ǔ":{"ha":1002,"x_min":65,"x_max":937,"o":"m 500 -12 q 272 34 370 -12 q 120 164 174 79 q 65 363 65 248 l 65 1010 l 339 1010 l 339 387 q 385 271 339 316 q 500 225 431 225 q 617 271 572 225 q 663 387 663 316 l 663 1010 l 937 1010 l 937 363 q 882 164 937 248 q 729 34 827 79 q 500 -12 631 -12 m 404 1325 l 500 1213 l 597 1325 l 822 1325 l 822 1321 l 595 1104 l 406 1104 l 179 1321 l 179 1325 l 404 1325 z "},"Ǖ":{"ha":1002,"x_min":65,"x_max":937,"o":"m 500 -12 q 272 34 370 -12 q 120 164 174 79 q 65 363 65 248 l 65 1010 l 339 1010 l 339 387 q 385 271 339 316 q 500 225 431 225 q 617 271 572 225 q 663 387 663 316 l 663 1010 l 937 1010 l 937 363 q 882 164 937 248 q 729 34 827 79 q 500 -12 631 -12 m 704 1512 l 704 1386 l 297 1386 l 297 1512 l 704 1512 m 344 1082 q 259 1115 294 1082 q 224 1196 224 1149 q 259 1277 224 1244 q 344 1311 294 1311 q 428 1277 393 1311 q 463 1196 463 1244 q 428 1115 463 1149 q 344 1082 393 1082 m 657 1082 q 573 1115 608 1082 q 538 1196 538 1149 q 573 1277 538 1244 q 657 1311 608 1311 q 742 1277 707 1311 q 777 1196 777 1244 q 742 1115 777 1149 q 657 1082 707 1082 z "},"Ǘ":{"ha":1002,"x_min":65,"x_max":937,"o":"m 500 -12 q 272 34 370 -12 q 120 164 174 79 q 65 363 65 248 l 65 1010 l 339 1010 l 339 387 q 385 271 339 316 q 500 225 431 225 q 617 271 572 225 q 663 387 663 316 l 663 1010 l 937 1010 l 937 363 q 882 164 937 248 q 729 34 827 79 q 500 -12 631 -12 m 344 1082 q 259 1115 294 1082 q 224 1196 224 1149 q 259 1277 224 1244 q 344 1311 294 1311 q 428 1277 393 1311 q 463 1196 463 1244 q 428 1115 463 1149 q 344 1082 393 1082 m 657 1082 q 573 1115 608 1082 q 538 1196 538 1149 q 573 1277 538 1244 q 657 1311 608 1311 q 742 1277 707 1311 q 777 1196 777 1244 q 742 1115 777 1149 q 657 1082 707 1082 m 424 1359 l 498 1536 l 686 1536 l 567 1359 l 424 1359 z "},"Ǚ":{"ha":1002,"x_min":65,"x_max":937,"o":"m 500 -12 q 272 34 370 -12 q 120 164 174 79 q 65 363 65 248 l 65 1010 l 339 1010 l 339 387 q 385 271 339 316 q 500 225 431 225 q 617 271 572 225 q 663 387 663 316 l 663 1010 l 937 1010 l 937 363 q 882 164 937 248 q 729 34 827 79 q 500 -12 631 -12 m 418 1536 l 495 1446 l 572 1536 l 752 1536 l 752 1533 l 571 1359 l 419 1359 l 237 1533 l 237 1536 l 418 1536 m 344 1082 q 259 1115 294 1082 q 224 1196 224 1149 q 259 1277 224 1244 q 344 1311 294 1311 q 428 1277 393 1311 q 463 1196 463 1244 q 428 1115 463 1149 q 344 1082 393 1082 m 657 1082 q 573 1115 608 1082 q 538 1196 538 1149 q 573 1277 538 1244 q 657 1311 608 1311 q 742 1277 707 1311 q 777 1196 777 1244 q 742 1115 777 1149 q 657 1082 707 1082 z "},"Ǜ":{"ha":1002,"x_min":65,"x_max":937,"o":"m 500 -12 q 272 34 370 -12 q 120 164 174 79 q 65 363 65 248 l 65 1010 l 339 1010 l 339 387 q 385 271 339 316 q 500 225 431 225 q 617 271 572 225 q 663 387 663 316 l 663 1010 l 937 1010 l 937 363 q 882 164 937 248 q 729 34 827 79 q 500 -12 631 -12 m 344 1082 q 259 1115 294 1082 q 224 1196 224 1149 q 259 1277 224 1244 q 344 1311 294 1311 q 428 1277 393 1311 q 463 1196 463 1244 q 428 1115 463 1149 q 344 1082 393 1082 m 657 1082 q 573 1115 608 1082 q 538 1196 538 1149 q 573 1277 538 1244 q 657 1311 608 1311 q 742 1277 707 1311 q 777 1196 777 1244 q 742 1115 777 1149 q 657 1082 707 1082 m 423 1359 l 305 1536 l 492 1536 l 567 1359 l 423 1359 z "},"Ȕ":{"ha":1002,"x_min":65,"x_max":937,"o":"m 500 -12 q 272 34 370 -12 q 120 164 174 79 q 65 363 65 248 l 65 1010 l 339 1010 l 339 387 q 385 271 339 316 q 500 225 431 225 q 617 271 572 225 q 663 387 663 316 l 663 1010 l 937 1010 l 937 363 q 882 164 937 248 q 729 34 827 79 q 500 -12 631 -12 m 285 1104 l 110 1325 l 354 1325 l 469 1104 l 285 1104 m 536 1104 l 427 1325 l 648 1325 l 715 1104 l 536 1104 z "},"Ȗ":{"ha":1002,"x_min":65,"x_max":937,"o":"m 500 -12 q 272 34 370 -12 q 120 164 174 79 q 65 363 65 248 l 65 1010 l 339 1010 l 339 387 q 385 271 339 316 q 500 225 431 225 q 617 271 572 225 q 663 387 663 316 l 663 1010 l 937 1010 l 937 363 q 882 164 937 248 q 729 34 827 79 q 500 -12 631 -12 m 500 1331 q 636 1300 576 1331 q 731 1219 696 1270 q 766 1104 766 1168 l 621 1104 q 586 1171 621 1144 q 500 1198 551 1198 q 414 1171 449 1198 q 378 1104 378 1144 l 235 1104 q 270 1219 235 1168 q 365 1300 304 1270 q 500 1331 425 1331 z "},"Ṳ":{"ha":1002,"x_min":65,"x_max":937,"o":"m 500 -12 q 272 34 370 -12 q 120 164 174 79 q 65 363 65 248 l 65 1010 l 339 1010 l 339 387 q 385 271 339 316 q 500 225 431 225 q 617 271 572 225 q 663 387 663 316 l 663 1010 l 937 1010 l 937 363 q 882 164 937 248 q 729 34 827 79 q 500 -12 631 -12 m 344 -317 q 259 -283 294 -317 q 224 -202 224 -250 q 259 -121 224 -155 q 344 -87 294 -87 q 428 -121 393 -87 q 463 -202 463 -155 q 428 -283 463 -250 q 344 -317 393 -317 m 657 -317 q 573 -283 608 -317 q 538 -202 538 -250 q 573 -121 538 -155 q 657 -87 608 -87 q 742 -121 707 -87 q 777 -202 777 -155 q 742 -283 777 -250 q 657 -317 707 -317 z "},"Ṵ":{"ha":1002,"x_min":65,"x_max":937,"o":"m 500 -12 q 272 34 370 -12 q 120 164 174 79 q 65 363 65 248 l 65 1010 l 339 1010 l 339 387 q 385 271 339 316 q 500 225 431 225 q 617 271 572 225 q 663 387 663 316 l 663 1010 l 937 1010 l 937 363 q 882 164 937 248 q 729 34 827 79 q 500 -12 631 -12 m 601 -311 q 535 -298 562 -311 q 489 -270 509 -286 q 453 -241 470 -254 q 418 -229 437 -229 q 366 -305 370 -229 l 232 -305 q 282 -146 234 -198 q 400 -94 330 -94 q 483 -114 451 -94 q 537 -153 515 -134 q 583 -173 560 -173 q 624 -153 612 -173 q 636 -98 635 -133 l 769 -98 q 719 -256 768 -202 q 601 -311 670 -311 z "},"Ṷ":{"ha":1002,"x_min":65,"x_max":937,"o":"m 500 -12 q 272 34 370 -12 q 120 164 174 79 q 65 363 65 248 l 65 1010 l 339 1010 l 339 387 q 385 271 339 316 q 500 225 431 225 q 617 271 572 225 q 663 387 663 316 l 663 1010 l 937 1010 l 937 363 q 882 164 937 248 q 729 34 827 79 q 500 -12 631 -12 m 404 -313 l 179 -313 l 179 -309 l 406 -92 l 595 -92 l 822 -309 l 822 -313 l 597 -313 l 500 -200 l 404 -313 z "}}}
